<svg xmlns="http://www.w3.org/2000/svg" width="61" height="47.531" viewBox="0 0 61 47.531">
  <g id="T7yt1K.tif" transform="translate(-1437.5 5189.299)">
    <g id="Grupo_156325" data-name="Grupo 156325" transform="translate(1437.5 -5189.299)">
      <path id="Trazado_196652" data-name="Trazado 196652" d="M1498.5-5158.869a1.283,1.283,0,0,1-1.253.609c-2.005-.024-4.011,0-6.016-.021a.708.708,0,0,0-.809.546c-3.027,8.044-8.666,13.256-17.036,15.308a23.69,23.69,0,0,1-27.779-15.208.8.8,0,0,0-.914-.651c-2,.039-4.01.018-6.016.015-.881,0-1.176-.3-1.177-1.179q0-6.1,0-12.2c0-.845.3-1.148,1.144-1.15,2.045,0,4.09-.018,6.135.011a.7.7,0,0,0,.8-.562,23.289,23.289,0,0,1,6.463-9.767c.044-.041.087-.082.132-.121a.934.934,0,0,1,1.417-.01c.343.394.283.86-.172,1.313-.562.56-1.13,1.115-1.688,1.68-.175.178-.324.382-.58.688h1.828c1.35,0,2.7-.009,4.05.006a.6.6,0,0,0,.667-.428,19.344,19.344,0,0,1,4.074-6.442c.021-.021.018-.067.037-.142a20.936,20.936,0,0,0-4.7,1.991c-.8.457-1.3.429-1.6-.1-.316-.55-.107-1,.679-1.455a23.784,23.784,0,0,1,34.229,12.711c.131.374.231.654.74.657a.833.833,0,0,1,.735.985.859.859,0,0,1-.954.785c-1.43.006-2.859,0-4.289,0h-.818v10.866h10.833v-10.863c-.453,0-.9.009-1.35,0-.65-.017-1.06-.372-1.046-.888.015-.572.411-.914,1.086-.921.635-.007,1.272.025,1.906-.01a1.236,1.236,0,0,1,1.252.608Zm-42.888.635c-.154-.007-.291-.019-.428-.02-.913,0-1.827.009-2.74-.007a.893.893,0,0,1-.968-.9.927.927,0,0,1,.992-.893c.178-.007.357,0,.536,0h30.918v-10.914h-44.6v10.914h1.028c2.581,0,5.162,0,7.743,0a.9.9,0,0,1,1,.93c-.005.525-.372.848-.995.868-.246.008-.491,0-.8,0a19.974,19.974,0,0,0,2.346,4.7.773.773,0,0,0,.563.211c2.045.015,4.09.01,6.135.006a2.929,2.929,0,0,0,.439-.064Zm1.828-14.62h9.634c0-1.535.01-3.036-.018-4.536,0-.117-.267-.327-.411-.328q-3.747-.031-7.495,0a.556.556,0,0,0-.435.268C1458.276-5175.941,1457.868-5174.418,1457.44-5172.854Zm21.119.014c-.421-1.562-.8-3.034-1.23-4.493a.7.7,0,0,0-.528-.384c-2.458-.025-4.917-.011-7.375-.023-.391,0-.513.138-.508.52.017,1.327.005,2.655.01,3.983a2.4,2.4,0,0,0,.069.4Zm-21.089,14.619c.354,1.375.72,2.707,1.031,4.051a.942.942,0,0,0,1.132.852c2.1-.056,4.2-.021,6.3-.021,1.141,0,1.142,0,1.142-1.123v-3.76Zm11.458-.011c0,1.553-.009,3.055.019,4.555,0,.115.271.321.417.322q3.747.031,7.494,0a.553.553,0,0,0,.431-.274c.438-1.512.845-3.032,1.275-4.606Zm.035-21.391h7.529c-.242-.516-.435-.97-.663-1.405a13.189,13.189,0,0,0-4.528-5.41,20.794,20.794,0,0,0-2.338-1.079Zm-1.914-7.691c-2.613.107-7.057,4.754-7.431,7.694h7.431Zm-7.465,35.849a16.093,16.093,0,0,0,3.057,5.075,8.605,8.605,0,0,0,3.459,2.445c.285.1.589.153.934.24v-7.759Zm9.374,7.693c2.58-.086,7.1-4.812,7.422-7.682h-7.422Zm-12.183-33.892a.984.984,0,0,0-.212-.059c-2.164,0-4.328-.016-6.491.006a.769.769,0,0,0-.542.351c-.552.961-1.084,1.935-1.584,2.924-.253.5-.424,1.042-.64,1.583h8.31Zm31.9,4.821a21.534,21.534,0,0,0-2.125-4.422.877.877,0,0,0-.865-.464c-1.982.013-3.965,0-5.947,0-.169,0-.339.03-.516.047l1.167,4.842Zm-9.449,19.433a.918.918,0,0,0,.209.061c2.16,0,4.321.009,6.481-.021a.829.829,0,0,0,.574-.4c.637-1.16,1.244-2.337,1.842-3.519a7.487,7.487,0,0,0,.328-.928h-8.275Zm5.626-26.162a22.527,22.527,0,0,0-10.765-7.037c.337.369.564.609.781.858a20.787,20.787,0,0,1,3.425,5.681c.084.2.316.474.484.477C1480.739-5179.562,1482.7-5179.574,1484.852-5179.574Zm-23.161,35.027c-.016-.11-.007-.158-.027-.179a19.918,19.918,0,0,1-3.995-6.408c-.136-.332-.338-.375-.638-.374-1.764.008-3.527,0-5.291.005-.147,0-.295.021-.56.042A22.46,22.46,0,0,0,1461.691-5144.546Zm12.55-.024a21.77,21.77,0,0,0,10.5-6.816c-.094-.059-.125-.095-.156-.1-1.925-.005-3.851-.014-5.776,0a.581.581,0,0,0-.427.3A21.287,21.287,0,0,1,1474.241-5144.57Z" transform="translate(-1437.5 5189.299)" fill="#12263f"/>
      <path id="Trazado_196653" data-name="Trazado 196653" d="M1864.756-5016.2a1.205,1.205,0,0,1,0,.181,1.876,1.876,0,0,0,.561,2.369c.35.274.188.792-.156,1.109s-.849.427-1.121.06c-.62-.838-1.333-.691-2.206-.555a3.035,3.035,0,0,1-3.255-2.728,3.115,3.115,0,0,1,2.6-3.379,3.1,3.1,0,0,1,3.476,2.3C1864.711-5016.594,1864.734-5016.336,1864.756-5016.2Zm-1.88.088a1.193,1.193,0,0,0-1.205-1.208,1.224,1.224,0,0,0-1.248,1.24,1.222,1.222,0,0,0,1.281,1.2A1.185,1.185,0,0,0,1862.876-5016.112Z" transform="translate(-1808.291 5039.497)" fill="#12263f"/>
    </g>
  </g>
</svg>
