<svg xmlns="http://www.w3.org/2000/svg" width="60" height="61" viewBox="0 0 60 61">
  <g id="Grupo_142438" data-name="Grupo 142438" transform="translate(-0.397 0.499)">
    <ellipse id="Elipse_4775" data-name="Elipse 4775" cx="30" cy="30.5" rx="30" ry="30.5" transform="translate(0.397 -0.499)" fill="#cdb8f1"/>
    <g id="XNt1Sl.tif" transform="translate(-1426.786 5863.808)">
      <g id="Grupo_156326" data-name="Grupo 156326" transform="translate(1437.346 -5854.584)">
        <path id="Trazado_196654" data-name="Trazado 196654" d="M1477.019-5845.288c-.071.326-.133.653-.214.976a8.723,8.723,0,0,1-2.448,3.97c-.624.635-1.267,1.252-1.919,1.859a2.114,2.114,0,0,0-.694,1.542c-.021.684-.018,1.369-.005,2.052a.45.45,0,0,0,.176.327,1.974,1.974,0,0,1,.647,3.105,2.127,2.127,0,0,1,.461,1.643,1.875,1.875,0,0,1-1.024,1.418.437.437,0,0,0-.269.445,6.315,6.315,0,0,1-.135,1.34,3.1,3.1,0,0,1-2.141,2.253.442.442,0,0,0-.37.51c.012,2.646.007,5.293.007,7.94,0,.8-.185.986-.976.986h-7.283c-.828,0-1.007-.176-1.007-.991q0-7.184,0-14.37v-.511h-1.254c-.684,0-1.369.009-2.053,0a.7.7,0,0,0-.6.256c-.4.458-.819.9-1.233,1.339-.477.513-.679.535-1.259.145-.052-.035-.106-.065-.183-.113a5.935,5.935,0,0,0-.278.771.5.5,0,0,0,.145.354c.594.664,1.2,1.315,1.8,1.973.441.483.407.938-.188,1.218a1.337,1.337,0,0,0-.864,1.571,11.121,11.121,0,0,1,.012,1.664,2.043,2.043,0,0,1-2.07,2.06c-.98.012-1.961,0-2.991,0,.172.613.333,1.192.5,1.771.179.632.365,1.263.54,1.9.166.6-.1.966-.723.966q-4.823.005-9.646,0c-.675,0-.958-.431-.692-1.054.562-1.315,1.139-2.625,1.691-3.944a.932.932,0,0,0,.044-.58c-.861-2.876-1.741-5.747-2.608-8.622a7.184,7.184,0,0,1,.652-5.79c.061-.11.121-.22.2-.36-.285-.05-.537-.087-.786-.14a.67.67,0,0,1-.624-.749q-.009-1.239,0-2.479a.682.682,0,0,1,.667-.753c.661-.11,1.322-.226,1.986-.32.259-.037.439-.123.477-.4a.167.167,0,0,1,.031-.07,1.228,1.228,0,0,0-.213-1.727,9.2,9.2,0,0,1-.818-1.127.657.657,0,0,1,.077-.941q.882-.9,1.781-1.779a.659.659,0,0,1,.971-.064c.582.406,1.162.816,1.731,1.24a.378.378,0,0,0,.484.037,1.7,1.7,0,0,1,.531-.227c.439-.081.54-.374.59-.76.078-.613.2-1.222.3-1.832a.656.656,0,0,1,.686-.608q1.3-.021,2.6,0a.656.656,0,0,1,.682.612c.116.7.252,1.4.35,2.1a.431.431,0,0,0,.365.419.818.818,0,0,1,.288.109.944.944,0,0,0,1.321-.138,14.126,14.126,0,0,1,1.284-.932.683.683,0,0,1,1.031.074q.869.857,1.725,1.727a.667.667,0,0,1,.075,1c-.4.57-.8,1.141-1.218,1.7a.4.4,0,0,0-.042.521.867.867,0,0,1,.142.316c.1.629.522.79,1.083.836.512.043,1.02.152,1.528.241a.688.688,0,0,1,.661.8q.006,1.181,0,2.362c0,.538-.175.747-.705.839-.673.116-1.352.209-2.021.344-.14.028-.258.188-.375.3-.042.04-.038.125-.075.175-.434.585-.156,1.021.185,1.562a1.727,1.727,0,0,0,1.82.918c.922-.084,1.858-.02,2.787-.02.86,0,1.026.162,1.026,1.007q0,7.184,0,14.369v.476h6.62v-.385c0-2.4,0-4.8,0-7.2,0-.264-.051-.4-.339-.491a3.27,3.27,0,0,1-2.312-3.259.882.882,0,0,0-.461-.927,1.887,1.887,0,0,1-.567-2.622c.061-.1.129-.192.165-.247a6.4,6.4,0,0,1-.4-.981,1.87,1.87,0,0,1,.98-2.117.473.473,0,0,0,.3-.5c-.019-.606-.01-1.213-.019-1.82a2.354,2.354,0,0,0-.777-1.746c-.9-.866-1.815-1.73-2.639-2.669a7.7,7.7,0,0,1-.121-9.94,8.39,8.39,0,0,1,5.808-3.343,1.969,1.969,0,0,0,.26-.067h1.627a1.292,1.292,0,0,0,.214.069,8.43,8.43,0,0,1,7.078,5.812,16.2,16.2,0,0,1,.455,1.943Zm-23.539,19.616c-.58-.635-1.156-1.278-1.749-1.9a.786.786,0,0,1-.161-.982,7.823,7.823,0,0,0,.4-1.086c.049-.164.165-.352-.075-.513a.5.5,0,0,0-.624-.063c-.218.132-.485.18-.707.306a.6.6,0,0,0-.279.34c-.143.708-.249,1.423-.378,2.133a.639.639,0,0,1-.711.614q-1.259.015-2.518,0a.65.65,0,0,1-.735-.632,12.569,12.569,0,0,1-.246-1.527,1.043,1.043,0,0,0-.924-1.142.623.623,0,0,1-.244-.114c-.193-.138-.345-.075-.519.054-.55.407-1.108.8-1.668,1.194a.688.688,0,0,1-1.059-.087q-.84-.831-1.671-1.671a.7.7,0,0,1-.089-1.062c.4-.569.812-1.133,1.213-1.7.057-.081.144-.2.119-.267-.163-.423-.352-.836-.539-1.265a.975.975,0,0,0-.141.1,2.922,2.922,0,0,0-.188.246,5.84,5.84,0,0,0-.818,5.165q1.344,4.48,2.722,8.951a1.205,1.205,0,0,1-.057.9c-.455,1.025-.894,2.057-1.338,3.086-.047.108-.085.22-.13.335h8c-.346-1.21-.684-2.386-1.017-3.562-.2-.692.068-1.042.787-1.043,1.175,0,2.35,0,3.525,0,.622,0,.886-.271.888-.9,0-.723.045-1.45-.012-2.168a1.4,1.4,0,0,1,.873-1.648C1453.431-5825.6,1453.444-5825.631,1453.479-5825.672Zm16.929-9.1c0-.174,0-.3,0-.429,0-.568,0-1.136.01-1.7a3.522,3.522,0,0,1,1.11-2.55c.972-.96,1.952-1.917,2.851-2.944a5.142,5.142,0,0,0,1.307-3.4,7,7,0,0,0-3.472-6.383,7,7,0,0,0-7.3-.181c-3.357,1.753-5.571,6.972-1.812,10.75.746.75,1.527,1.466,2.261,2.228a3.3,3.3,0,0,1,.723,1.033,5.456,5.456,0,0,1,.331,1.532c.054.674.013,1.355.013,2.042h1.306c.009-.12.023-.221.023-.322,0-2.672,0-5.343.007-8.015a.4.4,0,0,0-.314-.44,2.618,2.618,0,0,1-1.631-2.927,2.617,2.617,0,0,1,2.6-2.159,2.624,2.624,0,0,1,2.59,2.128,2.611,2.611,0,0,1-1.6,2.942.453.453,0,0,0-.332.509c.009,2.633,0,5.266.006,7.9,0,.125.013.249.021.39Zm-16.492,4.44,1.094-1.171c-.441-.611-.856-1.2-1.286-1.777a.807.807,0,0,1-.042-.966,6.851,6.851,0,0,0,.569-1.3.949.949,0,0,1,.895-.758c.674-.084,1.342-.214,2.014-.324v-1.531c-.734-.126-1.443-.264-2.157-.366a.817.817,0,0,1-.719-.645,10.982,10.982,0,0,0-.606-1.459.854.854,0,0,1,.061-1c.431-.577.841-1.17,1.216-1.7l-1.084-1.11-.854.61c-.3.218-.613.43-.913.653a.77.77,0,0,1-.866.067c-.524-.245-1.059-.467-1.6-.663a.792.792,0,0,1-.583-.69c-.047-.345-.111-.687-.164-1.032-.187-1.21-.186-1.2-1.428-1.17-.225.006-.317.075-.349.3-.09.625-.216,1.245-.3,1.87a.84.84,0,0,1-.629.741,12.643,12.643,0,0,0-1.5.616.853.853,0,0,1-1-.081c-.574-.431-1.168-.837-1.741-1.244l-1.082,1.083c.422.59.843,1.191,1.277,1.782a.811.811,0,0,1,.055.936,6.338,6.338,0,0,0-.559,1.311,1.036,1.036,0,0,1-1.012.877c-.648.075-1.29.206-1.932.312v1.521c.7.116,1.382.245,2.069.339a.91.91,0,0,1,.837.725,6.471,6.471,0,0,0,.54,1.318.947.947,0,0,1-.072,1.172c-.423.547-.81,1.123-1.184,1.646l1.06,1.112c.592-.422,1.184-.831,1.762-1.261a.827.827,0,0,1,.965-.08,13.759,13.759,0,0,0,1.532.632.818.818,0,0,1,.609.713c.09.625.213,1.246.3,1.871.032.22.107.318.341.306.322-.017.646-.014.968,0,.207.008.295-.063.325-.276.089-.625.215-1.245.3-1.871a.845.845,0,0,1,.661-.754,10.159,10.159,0,0,0,1.459-.606.847.847,0,0,1,1,.069C1452.73-5831.159,1453.314-5830.757,1453.916-5830.327Zm12.566,2.2a2.164,2.164,0,0,0,.93,2.354,2,2,0,0,0,2.215-.133,2.112,2.112,0,0,0,.719-2.221Zm1.908-3.981c.851,0,1.7,0,2.554,0,.481,0,.79-.267.786-.662s-.313-.655-.8-.656q-2.516,0-5.031,0c-.484,0-.785.266-.782.667s.3.649.792.651C1466.739-5832.109,1467.564-5832.112,1468.39-5832.112Zm.028,2.643c.838,0,1.677,0,2.515,0,.491,0,.793-.254.8-.649s-.3-.668-.785-.669q-2.515-.007-5.031,0c-.489,0-.789.259-.794.658s.293.658.782.661C1466.741-5829.467,1467.579-5829.47,1468.418-5829.47Zm1.322-16.51a1.306,1.306,0,0,0-1.316-1.327,1.315,1.315,0,0,0-1.321,1.325,1.328,1.328,0,0,0,1.3,1.313A1.317,1.317,0,0,0,1469.74-5845.979Z" transform="translate(-1437.346 5854.584)" fill="#fff"/>
        <path id="Trazado_196655" data-name="Trazado 196655" d="M1867.077-5798.836l1.189-1.194.847.869-1.215,1.2Z" transform="translate(-1833.725 5804.264)" fill="#fff"/>
        <path id="Trazado_196656" data-name="Trazado 196656" d="M1782.761-5712.078l-.776-.8,1.232-1.232.761.81Z" transform="translate(-1755.237 5725.01)" fill="#fff"/>
        <path id="Trazado_196657" data-name="Trazado 196657" d="M1766.166-5770.822l1.8.481-.333,1.271-1.805-.474Z" transform="translate(-1740.333 5777.323)" fill="#fff"/>
        <path id="Trazado_196658" data-name="Trazado 196658" d="M1765.8-5739.086l1.8-.481.341,1.271-1.8.481Z" transform="translate(-1740.309 5748.494)" fill="#fff"/>
        <path id="Trazado_196659" data-name="Trazado 196659" d="M1812.647-5814.074l-1.273.339-.487-1.8,1.272-.347Z" transform="translate(-1781.897 5818.882)" fill="#fff"/>
        <path id="Trazado_196660" data-name="Trazado 196660" d="M1842.577-5815.868l1.276.342-.484,1.8-1.269-.332Z" transform="translate(-1810.686 5818.873)" fill="#fff"/>
        <path id="Trazado_196661" data-name="Trazado 196661" d="M1882.2-5770.281l1.8-.486.348,1.272-1.8.484Z" transform="translate(-1847.678 5777.273)" fill="#fff"/>
        <path id="Trazado_196662" data-name="Trazado 196662" d="M1882.191-5738.334l.344-1.271,1.8.478-.338,1.275Z" transform="translate(-1847.666 5748.529)" fill="#fff"/>
        <path id="Trazado_196663" data-name="Trazado 196663" d="M1783.882-5798.791l-.845.816-1.241-1.253.826-.839Z" transform="translate(-1755.063 5804.299)" fill="#fff"/>
        <path id="Trazado_196664" data-name="Trazado 196664" d="M1869.174-5713.283l-.875.871-1.242-1.253.9-.855Z" transform="translate(-1833.705 5725.391)" fill="#fff"/>
        <path id="Trazado_196665" data-name="Trazado 196665" d="M1510.764-5701.181a5.294,5.294,0,0,1,5.286,5.3,5.294,5.294,0,0,1-5.323,5.264,5.3,5.3,0,0,1-5.266-5.283A5.289,5.289,0,0,1,1510.764-5701.181Zm-.006,1.324a3.968,3.968,0,0,0-3.972,3.956,3.981,3.981,0,0,0,3.968,3.965,3.983,3.983,0,0,0,3.973-3.962A3.968,3.968,0,0,0,1510.758-5699.857Z" transform="translate(-1500.175 5713.087)" fill="#fff"/>
        <path id="Trazado_196666" data-name="Trazado 196666" d="M1538.48-5664.126l.991.829c-.066.1-.116.181-.178.257q-1.484,1.784-2.973,3.566c-.439.523-.773.532-1.255.057-.385-.38-.776-.754-1.149-1.117l.977-.985.694.857Z" transform="translate(-1526.421 5678.908)" fill="#fff"/>
      </g>
    </g>
  </g>
</svg>
