<svg xmlns="http://www.w3.org/2000/svg" width="60" height="61" viewBox="0 0 60 61">
  <g id="Grupo_142440" data-name="Grupo 142440" transform="translate(-0.384 0.499)">
    <ellipse id="Elipse_4869" data-name="Elipse 4869" cx="30" cy="30.5" rx="30" ry="30.5" transform="translate(0.384 -0.499)" fill="#cdb8f1"/>
    <g id="g0ee3K" transform="translate(-1797.951 6169.591)">
      <g id="Grupo_156328" data-name="Grupo 156328" transform="translate(1810.701 -6158.701)">
        <path id="Trazado_196682" data-name="Trazado 196682" d="M1869.453-6082.673a5.732,5.732,0,0,1-.575-.477c-.794-.86-1.38-1.852-2.757-2.12-.973-.189-1.315-1.547-1.06-2.6a2.825,2.825,0,0,0,.024-1.214,3.9,3.9,0,0,1,.747-3.382,2.484,2.484,0,0,0,.414-.909,4.077,4.077,0,0,1,4.06-3.257q1.842-.017,3.684,0a2.641,2.641,0,0,1,2.664,1.979,1.957,1.957,0,0,0,.67.895,4.106,4.106,0,0,1,1.574,4.686,1.65,1.65,0,0,0,.051.945,2.363,2.363,0,0,1-1.935,3.233,1.687,1.687,0,0,0-.839.546c-.5.539-.937,1.128-1.532,1.86-.031.4.227.745.882.869.809.152,1.607.376,2.4.6a4.665,4.665,0,0,1,3.492,4.188c.1,1.989.022,3.988.022,6.052h-18.7a58.847,58.847,0,0,1,.061-6.716,4.276,4.276,0,0,1,3.351-3.52,24.217,24.217,0,0,1,2.4-.6A.966.966,0,0,0,1869.453-6082.673Zm4.827-9.775c.214-.106.343-.167.468-.233a1.416,1.416,0,0,0,.808-1.629,1.335,1.335,0,0,0-1.376-1.173c-1.425-.035-2.858-.068-4.276.039a2.849,2.849,0,0,0-2.589,2.645,1.907,1.907,0,0,1-.454.942,2.525,2.525,0,0,0-.533,2.677c.547-.367.981-.705,1.458-.965a3.65,3.65,0,0,1,1.449-.6c1.881-.07,3.769-.071,5.65,0a3.688,3.688,0,0,1,1.44.62c.449.245.861.558,1.322.862a2.607,2.607,0,0,0-.987-3.48l-2.012,1.477Zm-2.187,2.855c-.884,0-1.77.022-2.653-.007-.645-.021-.955.2-.925.887.032.74-.015,1.483,0,2.225a3.482,3.482,0,0,0,3.471,3.4,3.487,3.487,0,0,0,3.573-3.387c.019-.77-.008-1.541.013-2.311.016-.587-.248-.824-.824-.812C1873.861-6089.579,1872.976-6089.592,1872.092-6089.593Zm-4.621,9.453c-1.982.331-3.4,1.265-3.633,3.214a42.649,42.649,0,0,0-.041,5.024h2.377c-.3-1.7.617-3.522-1.008-4.887l.774-.72c2.079,1.517,1.124,3.718,1.454,5.628h3.742Zm9.152-.005-3.666,8.262h3.738c.319-1.945-.637-4.176,1.491-5.631l.721.764c-1.621,1.439-.673,3.226-.991,4.856h2.424c0-1.266,0-2.463,0-3.661C1880.341-6078.346,1879.44-6079.487,1876.623-6080.146Zm-5.151,1.223a5.523,5.523,0,0,0,.555,5.983,5.566,5.566,0,0,0,.626-5.983Zm-.942-3.065a1.276,1.276,0,0,0,.641,1.717,2.085,2.085,0,0,0,1.806-.065c.461-.286,1.07-.929.559-1.652Zm-3.226-6.415c-.83.093-1.246.488-1.211,1.23a1.094,1.094,0,0,0,1.211,1.116Zm9.478,2.4c.835-.161,1.289-.561,1.205-1.346a1.018,1.018,0,0,0-1.205-1Zm-8.26,5.389,1.3,2.9c.412-1.017.59-1.912-.243-2.655C1869.394-6080.537,1869.033-6080.505,1868.521-6080.614Zm7.013.05c-.457.067-.833.008-1.005.168-.755.7-.8,1.449-.22,2.6Z" transform="translate(-1853.76 6107.278)" fill="#fff"/>
        <path id="Trazado_196683" data-name="Trazado 196683" d="M1817.744-6158.7a6.982,6.982,0,0,1,7.067,7.039,6.994,6.994,0,0,1-6.954,7.071,7.013,7.013,0,0,1-7.157-7.048A6.985,6.985,0,0,1,1817.744-6158.7Zm2.232,7.262,2.8,2.826a5.75,5.75,0,0,0-1.171-7.521,5.906,5.906,0,0,0-8.065.339c-2.172,2.189-2.062,5.789-.8,7.156l2.824-2.776c-1.057-1.644-1-3.146.269-4.239a2.977,2.977,0,0,1,3.913.053C1820.962-6154.5,1821.008-6152.985,1819.976-6151.439Zm-4.622,1.509c-.51.718-.963,1.34-1.4,1.975-.308.449-.134.775.28,1.066a5.638,5.638,0,0,0,5.5.778c.722-.275,1.766-.809,1.866-1.366.159-.89-.657-1.682-1.476-2.221a.187.187,0,0,0-.075-.016C1818.879-6147.521,1816.471-6147.685,1815.354-6149.931Zm.653-3.477a1.747,1.747,0,0,0,1.808,1.757,1.794,1.794,0,0,0,1.739-1.759,1.833,1.833,0,0,0-1.783-1.815A1.8,1.8,0,0,0,1816.007-6153.407Zm.6,3.065a1.157,1.157,0,0,0,1.229,1.055c.578-.021.94-.379,1.113-1.055Z" transform="translate(-1810.701 6158.701)" fill="#fff"/>
        <path id="Trazado_196684" data-name="Trazado 196684" d="M1948.782-6144.595a7,7,0,0,1-7.078-7.037,6.987,6.987,0,0,1,7.038-7.069,6.983,6.983,0,0,1,7.071,7.032A6.982,6.982,0,0,1,1948.782-6144.595Zm-5.039-4.038,2.828-2.784c-1.041-1.6-1-3.06.2-4.181a2.838,2.838,0,0,1,3.753-.164,3.928,3.928,0,0,1,1.088,1.677,2.773,2.773,0,0,1-.646,2.645l2.822,2.813c1.529-1.994,1.147-5.336-.954-7.332a5.9,5.9,0,0,0-7.752-.3A5.791,5.791,0,0,0,1943.743-6148.633Zm5.026.91-2.18-2.407c-.6.791-1.121,1.443-1.6,2.119-.326.457-.188.825.27,1.144a5.551,5.551,0,0,0,5.189.854,12.1,12.1,0,0,0,2.266-1.387,3.644,3.644,0,0,0-1.743-2.42,1.31,1.31,0,0,0-.272-.06Zm-1.758-5.73a1.748,1.748,0,0,0,1.76,1.8,1.8,1.8,0,0,0,1.792-1.8,1.847,1.847,0,0,0-1.742-1.776A1.8,1.8,0,0,0,1947.012-6153.453Zm2.59,3.063h-1.712l.894.855Z" transform="translate(-1919.246 6158.701)" fill="#fff"/>
        <path id="Trazado_196685" data-name="Trazado 196685" d="M1828-6009.623v-7.545h7.556v1.1h-6.4v6.45Z" transform="translate(-1825.037 6041.432)" fill="#fff"/>
        <path id="Trazado_196686" data-name="Trazado 196686" d="M1962.393-6016.069v-1.133h7.569v7.569h-1.1v-6.436Z" transform="translate(-1936.388 6041.46)" fill="#fff"/>
        <path id="Trazado_196687" data-name="Trazado 196687" d="M1848.959-6055.381h1.03v4.062h2.946v1.177h-3.977Z" transform="translate(-1842.4 6073.094)" fill="#fff"/>
        <path id="Trazado_196688" data-name="Trazado 196688" d="M1965.375-6051.4v-4.106l1.051-.05v5.254h-3.979v-1.1Z" transform="translate(-1936.432 6073.243)" fill="#fff"/>
        <path id="Trazado_196689" data-name="Trazado 196689" d="M1824.33-5963.9a1.669,1.669,0,0,1-1.683,1.762,1.722,1.722,0,0,1-1.8-1.747,1.751,1.751,0,0,1,1.75-1.726A1.687,1.687,0,0,1,1824.33-5963.9Zm-.845.051c-.421-.283-.647-.549-.882-.557-.186-.006-.56.335-.536.466a.861.861,0,0,0,.5.613C1822.78-5963.29,1823.042-5963.575,1823.484-5963.845Z" transform="translate(-1819.103 5998.711)" fill="#fff"/>
        <path id="Trazado_196690" data-name="Trazado 196690" d="M1995.213-5962.14a1.669,1.669,0,0,1-1.722-1.724,1.692,1.692,0,0,1,1.7-1.75,1.759,1.759,0,0,1,1.788,1.776A1.717,1.717,0,0,1,1995.213-5962.14Zm-.035-2.593c-.27.447-.563.72-.516.908a.89.89,0,0,0,.638.5c.133.021.466-.36.462-.555C1995.757-5964.1,1995.479-5964.321,1995.178-5964.733Z" transform="translate(-1962.154 5998.716)" fill="#fff"/>
        <path id="Trazado_196691" data-name="Trazado 196691" d="M1849.936-6067.86h-.978v-1.059h.978Z" transform="translate(-1842.4 6084.311)" fill="#fff"/>
        <path id="Trazado_196692" data-name="Trazado 196692" d="M1980.975-6068.882v1.049h-1v-1.049Z" transform="translate(-1950.955 6084.28)" fill="#fff"/>
      </g>
    </g>
  </g>
</svg>
