<svg xmlns="http://www.w3.org/2000/svg" width="71.481" height="75.76" viewBox="0 0 71.481 75.76">
  <g id="Grupo_156381" data-name="Grupo 156381" transform="translate(-669.938 -1219.077)">
    <ellipse id="Elipse_4691" data-name="Elipse 4691" cx="35.741" cy="37.88" rx="35.741" ry="37.88" transform="translate(669.938 1219.077)" fill="#fff"/>
    <g id="Grupo_154254" data-name="Grupo 154254" transform="translate(684.447 1231.655)">
      <path id="Trazado_67883" data-name="Trazado 67883" d="M228.4,213.345a4.894,4.894,0,1,1,4.894-4.894A4.9,4.9,0,0,1,228.4,213.345Zm0-8.482a3.588,3.588,0,1,0,3.587,3.588A3.591,3.591,0,0,0,228.4,204.863Z" transform="translate(-214.055 -197.716)" fill="#00223d"/>
      <path id="Trazado_67884" data-name="Trazado 67884" d="M228.4,247.6a4.894,4.894,0,1,1,4.894-4.894A4.9,4.9,0,0,1,228.4,247.6Zm0-8.482a3.588,3.588,0,1,0,3.587,3.588A3.591,3.591,0,0,0,228.4,239.121Z" transform="translate(-214.055 -218.364)" fill="#00223d"/>
      <path id="Trazado_67885" data-name="Trazado 67885" d="M228.4,281.862a4.894,4.894,0,1,1,4.894-4.894A4.9,4.9,0,0,1,228.4,281.862Zm0-8.481a3.587,3.587,0,1,0,3.587,3.587A3.591,3.591,0,0,0,228.4,273.38Z" transform="translate(-214.055 -239.012)" fill="#00223d"/>
      <path id="Trazado_67886" data-name="Trazado 67886" d="M205.789,199.323H201.5a1.782,1.782,0,1,1,0-3.565h4.287a1.782,1.782,0,1,1,0,3.565Zm-4.287-2.258a.476.476,0,1,0,0,.952h4.287a.476.476,0,1,0,0-.952Z" transform="translate(-199.72 -193.016)" fill="#00223d"/>
      <path id="Trazado_67887" data-name="Trazado 67887" d="M205.789,219.278H201.5a1.783,1.783,0,0,1,0-3.565h4.287a1.783,1.783,0,0,1,0,3.565ZM201.5,217.02a.476.476,0,1,0,0,.952h4.287a.476.476,0,0,0,0-.952Z" transform="translate(-199.72 -205.043)" fill="#00223d"/>
      <path id="Trazado_67888" data-name="Trazado 67888" d="M205.789,239.233H201.5a1.783,1.783,0,0,1,0-3.565h4.287a1.783,1.783,0,0,1,0,3.565Zm-4.287-2.259a.476.476,0,0,0,0,.952h4.287a.476.476,0,0,0,0-.952Z" transform="translate(-199.72 -217.07)" fill="#00223d"/>
      <path id="Trazado_67889" data-name="Trazado 67889" d="M205.789,259.189H201.5a1.783,1.783,0,0,1,0-3.565h4.287a1.783,1.783,0,0,1,0,3.565Zm-4.287-2.259a.476.476,0,0,0,0,.952h4.287a.476.476,0,0,0,0-.952Z" transform="translate(-199.72 -229.097)" fill="#00223d"/>
      <path id="Trazado_67890" data-name="Trazado 67890" d="M205.789,279.145H201.5a1.783,1.783,0,0,1,0-3.565h4.287a1.783,1.783,0,0,1,0,3.565Zm-4.287-2.259a.476.476,0,1,0,0,.952h4.287a.476.476,0,1,0,0-.952Z" transform="translate(-199.72 -241.125)" fill="#00223d"/>
      <path id="Trazado_67891" data-name="Trazado 67891" d="M205.789,299.1H201.5a1.782,1.782,0,1,1,0-3.565h4.287a1.782,1.782,0,1,1,0,3.565Zm-4.287-2.259a.476.476,0,1,0,0,.952h4.287a.476.476,0,0,0,0-.952Z" transform="translate(-199.72 -253.153)" fill="#00223d"/>
      <path id="Trazado_67892" data-name="Trazado 67892" d="M244.314,237.546h-33.9a1.526,1.526,0,0,1-1.524-1.524v-1.872a.653.653,0,0,1,.653-.653h1.775a.476.476,0,0,0,.475-.5.525.525,0,0,0-.539-.45h-1.711a.653.653,0,0,1-.653-.653v-5.669a.653.653,0,0,1,.653-.654h1.775a.475.475,0,0,0,.475-.5.525.525,0,0,0-.539-.45h-1.711a.653.653,0,0,1-.653-.654v-5.669a.653.653,0,0,1,.653-.653h1.775a.476.476,0,0,0,.475-.5.525.525,0,0,0-.539-.45h-1.711a.653.653,0,0,1-.653-.654v-5.669a.653.653,0,0,1,.653-.653h1.775a.476.476,0,0,0,.475-.5.525.525,0,0,0-.539-.45h-1.711a.653.653,0,0,1-.653-.653v-5.67a.653.653,0,0,1,.653-.653h1.775a.476.476,0,0,0,.475-.5.525.525,0,0,0-.539-.449h-1.711a.653.653,0,0,1-.653-.654v-5.669a.653.653,0,0,1,.653-.654h1.775a.475.475,0,0,0,.475-.5.525.525,0,0,0-.539-.449h-1.711a.653.653,0,0,1-.653-.654v-1.872a1.526,1.526,0,0,1,1.524-1.524h33.9a1.526,1.526,0,0,1,1.524,1.524v45.642A1.526,1.526,0,0,1,244.314,237.546ZM210.192,234.8v1.218a.218.218,0,0,0,.218.218h33.9a.218.218,0,0,0,.218-.218V190.379a.218.218,0,0,0-.218-.218h-33.9a.218.218,0,0,0-.218.218V191.6h1.058a1.816,1.816,0,0,1,1.844,1.688,1.767,1.767,0,0,1-.487,1.321,1.79,1.79,0,0,1-1.293.556h-1.122v4.363h1.058a1.816,1.816,0,0,1,1.844,1.688,1.768,1.768,0,0,1-.487,1.322,1.79,1.79,0,0,1-1.293.556h-1.122v4.363h1.058a1.816,1.816,0,0,1,1.844,1.688,1.767,1.767,0,0,1-.487,1.321,1.788,1.788,0,0,1-1.293.556h-1.122v4.363h1.058a1.816,1.816,0,0,1,1.844,1.688,1.767,1.767,0,0,1-.487,1.321,1.788,1.788,0,0,1-1.293.556h-1.122v4.363h1.058A1.816,1.816,0,0,1,213.094,225a1.767,1.767,0,0,1-.487,1.321,1.788,1.788,0,0,1-1.293.556h-1.122v4.363h1.058a1.816,1.816,0,0,1,1.844,1.687,1.768,1.768,0,0,1-.487,1.322,1.789,1.789,0,0,1-1.293.556Z" transform="translate(-205.244 -188.855)" fill="#00223d"/>
      <path id="Trazado_67893" data-name="Trazado 67893" d="M234.831,231.34a.653.653,0,0,1-.653-.653v-5.129a.653.653,0,1,1,1.307,0v5.129A.653.653,0,0,1,234.831,231.34Z" transform="translate(-220.488 -210.583)" fill="#00223d"/>
      <path id="Trazado_67894" data-name="Trazado 67894" d="M234.831,265.6a.653.653,0,0,1-.653-.653v-5.129a.653.653,0,1,1,1.307,0v5.129A.653.653,0,0,1,234.831,265.6Z" transform="translate(-220.488 -231.23)" fill="#00223d"/>
      <path id="Trazado_67895" data-name="Trazado 67895" d="M255.123,208.238h-1.96a.653.653,0,0,1,0-1.307h1.96a.653.653,0,0,1,0,1.307Z" transform="translate(-231.537 -199.75)" fill="#00223d"/>
      <path id="Trazado_67896" data-name="Trazado 67896" d="M271.442,208.238h-3.795a.653.653,0,0,1,0-1.307h3.795a.653.653,0,0,1,0,1.307Z" transform="translate(-240.267 -199.75)" fill="#00223d"/>
      <path id="Trazado_67897" data-name="Trazado 67897" d="M288.709,208.238h-1.96a.653.653,0,0,1,0-1.307h1.96a.653.653,0,0,1,0,1.307Z" transform="translate(-251.78 -199.75)" fill="#00223d"/>
      <path id="Trazado_67898" data-name="Trazado 67898" d="M268.466,222.837h-15.3a.653.653,0,1,1,0-1.306h15.3a.653.653,0,0,1,0,1.306Z" transform="translate(-231.537 -208.549)" fill="#00223d"/>
      <path id="Trazado_67899" data-name="Trazado 67899" d="M268.466,242.5h-15.3a.653.653,0,0,1,0-1.307h15.3a.653.653,0,0,1,0,1.307Z" transform="translate(-231.537 -220.397)" fill="#00223d"/>
      <path id="Trazado_67900" data-name="Trazado 67900" d="M268.466,257.1h-15.3a.653.653,0,0,1,0-1.307h15.3a.653.653,0,0,1,0,1.307Z" transform="translate(-231.537 -229.197)" fill="#00223d"/>
      <path id="Trazado_67901" data-name="Trazado 67901" d="M268.466,276.755h-15.3a.653.653,0,0,1,0-1.307h15.3a.653.653,0,0,1,0,1.307Z" transform="translate(-231.537 -241.046)" fill="#00223d"/>
      <path id="Trazado_67902" data-name="Trazado 67902" d="M268.466,291.354h-15.3a.653.653,0,0,1,0-1.307h15.3a.653.653,0,0,1,0,1.307Z" transform="translate(-231.537 -249.845)" fill="#00223d"/>
    </g>
  </g>
</svg>
