<svg xmlns="http://www.w3.org/2000/svg" width="60" height="61" viewBox="0 0 60 61">
  <g id="Grupo_142440" data-name="Grupo 142440" transform="translate(-0.384 0.499)">
    <ellipse id="Elipse_4869" data-name="Elipse 4869" cx="30" cy="30.5" rx="30" ry="30.5" transform="translate(0.384 -0.499)" fill="#cdb8f1"/>
    <g id="p78uZ0" transform="translate(-1219.946 4623.519)">
      <g id="Grupo_155830" data-name="Grupo 155830" transform="translate(1233.459 -4614.178)">
        <path id="Trazado_196255" data-name="Trazado 196255" d="M1352.511-4538.412c.5.138.782.366.715.816-.071.478-.45.575-.927.587-.05.551-.108,1.094-.147,1.637-.047.661-.239.852-.9.853h-6.609c-.7,0-.883-.186-.918-.905-.021-.44-.064-.878-.1-1.318a2.021,2.021,0,0,0-.057-.258c-.416-.028-.82-.1-.9-.605-.062-.412.2-.629.655-.812a23.134,23.134,0,0,0-1.211-2.666c-.871-1.431-1.851-2.8-2.8-4.178a11.135,11.135,0,0,1,3.093-15.592,10.334,10.334,0,0,1,14.53,3.572,10.329,10.329,0,0,1,1.254,8.1,15.193,15.193,0,0,1-2.151,4.256c-.916,1.422-1.812,2.858-2.647,4.328A17.44,17.44,0,0,0,1352.511-4538.412Zm-4.608.058c.991,0,1.982,0,2.973,0,.188,0,.335,0,.388-.248a13.192,13.192,0,0,1,1.84-4.26c.813-1.292,1.666-2.558,2.5-3.836a8.84,8.84,0,0,0,.439-9.471,9.094,9.094,0,0,0-10.177-4.74,9.679,9.679,0,0,0-6.959,11.426,13.114,13.114,0,0,0,2.62,5.044,16.307,16.307,0,0,1,3.027,5.818c.054.227.166.272.374.27C1345.922-4538.359,1346.913-4538.354,1347.9-4538.354Zm3.058,1.366h-6.018l.1,1.118h5.793Z" transform="translate(-1328.793 4566.751)" fill="#fff"/>
        <path id="Trazado_196256" data-name="Trazado 196256" d="M1237.128-4585.226c0-.565.006-1.129,0-1.694a.882.882,0,0,0-.964-.988,2.719,2.719,0,0,1-2.252-4.206c.866-1.373,1.665-2.789,2.447-4.212a3.359,3.359,0,0,0,.4-1.359,17.524,17.524,0,0,1,6.933-13.5,14.505,14.505,0,0,1,8.593-2.986c.083,0,.165,0,.248,0,.455.012.744.263.751.65s-.275.642-.727.677a22.4,22.4,0,0,0-2.258.209,14.051,14.051,0,0,0-9.287,6.133,17.089,17.089,0,0,0-2.938,8.987,4.251,4.251,0,0,1-.488,1.717q-1.2,2.237-2.545,4.394a1.4,1.4,0,0,0,1.188,2.181,2.186,2.186,0,0,1,2.233,2.347c.009.922,0,1.845,0,2.768a4.562,4.562,0,0,0,4.708,4.683,10.3,10.3,0,0,1,3.707.448,3.952,3.952,0,0,1,2.8,3.828.647.647,0,0,1-.518.7.619.619,0,0,1-.741-.381.927.927,0,0,1-.067-.32,2.6,2.6,0,0,0-2.132-2.635,11.82,11.82,0,0,0-2.568-.29,7.218,7.218,0,0,1-3.021-.545,5.752,5.752,0,0,1-3.491-5.233C1237.111-4584.317,1237.129-4584.772,1237.128-4585.226Z" transform="translate(-1233.459 4614.178)" fill="#fff"/>
        <path id="Trazado_196257" data-name="Trazado 196257" d="M1430.508-4210.5c.784,0,1.567,0,2.351,0,.5,0,.783.243.786.646s-.289.673-.767.675q-2.371.007-4.742,0a.677.677,0,0,1-.766-.677c0-.4.293-.645.788-.647.783-.005,1.567,0,2.35,0Z" transform="translate(-1411.348 4243.853)" fill="#fff"/>
        <path id="Trazado_196258" data-name="Trazado 196258" d="M1414.9-4116.821a.652.652,0,0,1-.666-.639.658.658,0,0,1,.67-.678.668.668,0,0,1,.65.66A.667.667,0,0,1,1414.9-4116.821Z" transform="translate(-1399.294 4159.123)" fill="#fff"/>
        <path id="Trazado_196259" data-name="Trazado 196259" d="M1386.429-4519.708c-.07.253-.068.483-.182.612-.31.35-.077.631.052.933s.17.62.622.712a1.12,1.12,0,0,1,.878,1.08,8.709,8.709,0,0,1-.005,1.524,1.2,1.2,0,0,1-.963,1.107.509.509,0,0,0-.434.414,1.484,1.484,0,0,1-.17.419.648.648,0,0,0,.007.746,1.192,1.192,0,0,1-.151,1.425,11.259,11.259,0,0,1-1.015,1.025,1.248,1.248,0,0,1-1.531.134.537.537,0,0,0-.6-.011,2.214,2.214,0,0,1-.377.164.684.684,0,0,0-.555.557,1.236,1.236,0,0,1-1.162.895c-.453.019-.909.018-1.362,0a1.242,1.242,0,0,1-1.2-.958.521.521,0,0,0-.4-.447,2.394,2.394,0,0,1-.532-.221.476.476,0,0,0-.56.013,1.278,1.278,0,0,1-1.568-.143c-.323-.3-.636-.609-.931-.934a1.359,1.359,0,0,1-.182-1.608.908.908,0,0,0,.024-.51c-.022-.145-.131-.274-.167-.419a.731.731,0,0,0-.588-.581,1.206,1.206,0,0,1-.877-1.178,11.969,11.969,0,0,1,0-1.32,1.246,1.246,0,0,1,.954-1.206.589.589,0,0,0,.483-.476,1.6,1.6,0,0,1,.155-.381.6.6,0,0,0,0-.709,1.258,1.258,0,0,1,.2-1.525q.433-.47.9-.906a1.3,1.3,0,0,1,1.568-.184.523.523,0,0,0,.6.017,1.484,1.484,0,0,1,.378-.162.725.725,0,0,0,.578-.585,1.191,1.191,0,0,1,1.176-.875c.439-.022.881-.017,1.321,0a1.264,1.264,0,0,1,1.221.99.474.474,0,0,0,.379.413,1.171,1.171,0,0,1,.269.1.95.95,0,0,0,1.055.02,1.076,1.076,0,0,1,1.272.181,9.479,9.479,0,0,1,1.1,1.115A2.75,2.75,0,0,1,1386.429-4519.708Zm-10.335,8.981c.1-.083.15-.126.2-.171.467-.424.611-.416,1.168-.138a10.882,10.882,0,0,0,1.524.614.717.717,0,0,1,.557.631c.022.148.023.3.035.478h1.144c.013-.092.027-.159.032-.226.044-.656.124-.719.726-.92a11.3,11.3,0,0,0,1.437-.612c.46-.229.668-.227,1.034.115.077.072.16.139.243.211l.843-.827-.3-.319a.716.716,0,0,1-.1-.873c.256-.559.5-1.128.707-1.706a.712.712,0,0,1,.692-.537c.134-.005.268-.013.42-.02v-1.172c-.138-.01-.246-.026-.353-.024-.442.008-.651-.219-.785-.633a10.941,10.941,0,0,0-.65-1.552.74.74,0,0,1,.108-.972c.086-.085.164-.179.235-.258l-.818-.847c-.067.056-.121.1-.17.141-.486.451-.6.442-1.2.142a10.083,10.083,0,0,0-1.408-.573c-.5-.165-.642-.313-.667-.847,0-.093-.017-.186-.027-.291h-1.147c-.012.085-.023.139-.026.193-.033.682-.122.771-.774.971a6.927,6.927,0,0,0-1.146.458c-.8.413-.795.426-1.467-.15-.017-.014-.051-.01-.016,0l-.855.8c.039.049.071.093.108.134.475.521.474.622.152,1.228a7.425,7.425,0,0,0-.506,1.17c-.267.822-.252.827-1.119.9-.023,0-.044.028-.078.052v1.151c.17,0,.306-.006.442,0a.7.7,0,0,1,.661.522c.222.588.467,1.169.724,1.743a.7.7,0,0,1-.1.837c-.1.108-.2.214-.289.309Z" transform="translate(-1360.997 4530.792)" fill="#fff"/>
        <path id="Trazado_196260" data-name="Trazado 196260" d="M1425-4474.45a3.625,3.625,0,0,1,3.615,3.631,3.64,3.64,0,0,1-3.655,3.64,3.643,3.643,0,0,1-3.616-3.68A3.624,3.624,0,0,1,1425-4474.45Zm-2.329,3.649a2.326,2.326,0,0,0,2.325,2.3,2.327,2.327,0,0,0,2.293-2.333,2.305,2.305,0,0,0-2.326-2.29A2.3,2.3,0,0,0,1422.67-4470.8Z" transform="translate(-1405.82 4485.994)" fill="#fff"/>
      </g>
    </g>
  </g>
</svg>
