<svg xmlns="http://www.w3.org/2000/svg" width="108.419" height="108.419" viewBox="0 0 108.419 108.419">
  <g id="Grupo_156386" data-name="Grupo 156386" transform="translate(4818.899 9660.792)">
    <circle id="Elipse_6025" data-name="Elipse 6025" cx="54.209" cy="54.209" r="54.209" transform="translate(-4818.899 -9660.792)" fill="#12263f"/>
    <g id="_8ivqyJ.tif" data-name="8ivqyJ.tif" transform="translate(-5943.322 -5703.147)">
      <g id="Grupo_155827" data-name="Grupo 155827" transform="translate(1147.108 -3937.247)">
        <path id="Trazado_196223" data-name="Trazado 196223" d="M1434.584-3893.2h-19.019c0,.458,0,.891,0,1.325,0,.463-.2.787-.684.814-.527.03-.766-.306-.772-.79-.015-1.155-.011-2.311,0-3.465,0-.482.213-.838.736-.833s.732.341.725.837c0,.167,0,.335,0,.552h19.056c0-.395-.005-.8,0-1.213.008-.49.159-.881.733-.908.485-.023.747.305.747.943q0,9.011,0,18.021v.784h2.885v-30.741H1436.1c0,.25,0,.475,0,.7q0,3.686,0,7.373c0,.168.062.386-.02.494-.194.256-.453.631-.694.638a1,1,0,0,1-.71-.6,4.409,4.409,0,0,1-.031-1.3H1421.21c-.871,0-1.228-.213-1.234-.73s.353-.731,1.22-.731h13.386v-5.888h-13.3c-.189,0-.378,0-.567,0a.677.677,0,0,1-.729-.7.67.67,0,0,1,.7-.726c.209-.013.42-.007.63-.008h20.6v-2.942h-.7q-9.955,0-19.909-.007a1.686,1.686,0,0,1-.8-.069,1.04,1.04,0,0,1-.488-.692.807.807,0,0,1,.467-.635c1.753-.245,2.079-1.607,2.372-2.974a7.667,7.667,0,0,0,.015-1.485H1421c-.567,0-1.135.008-1.7-.006a.706.706,0,0,1-.781-.728c-.006-.477.311-.709.769-.745.188-.015.378-.006.567-.006q7.56,0,15.121,0c1.846,0,2.728-.976,2.554-2.921-.4,0-.808-.01-1.218,0-.509.016-.877-.164-.939-.706-.052-.452.333-.754.943-.775.356-.013.713-.01,1.07-.019.038,0,.075-.032.191-.084v-.577q0-4.285,0-8.57a2.25,2.25,0,0,0-2.453-2.48q-8.569-.007-17.137,0a2.223,2.223,0,0,0-2.414,2.442q-.008,4.316,0,8.632c0,.186,0,.371,0,.648H1431.9c.881,0,1.289.253,1.264.778-.024.5-.381.7-1.261.7h-16.633c-1,0-1.172-.176-1.173-1.176,0-3.151.045-6.3-.015-9.452a3.852,3.852,0,0,1,4.049-4.049c5.627.077,11.256.024,16.885.026a3.666,3.666,0,0,1,4.009,4.036c0,3.655-.061,7.311.022,10.964a3.847,3.847,0,0,1-4.092,4.076c-1.547-.069-3.1-.014-4.693-.014a5.09,5.09,0,0,0,.469,2.974c.513.924,1.139,1.654,2.375,1.437a8.31,8.31,0,0,1,1.429-.014c.734-2.229,1.613-3.017,3.222-2.919,1.487.09,2.428,1.05,2.8,2.917.646,0,1.311-.009,1.974,0,.64.011.884.244.889.869q.016,2.048,0,4.1c0,.641-.234.865-.877.877s-1.3,0-2.038,0v.836q0,15.123,0,30.246c0,1.02-.159,1.181-1.154,1.184q-1.859.005-3.717,0c-.785,0-1-.22-1.007-1.017q-.009-4.1,0-8.191c0-.314,0-.628,0-1.036h-13.361a5.1,5.1,0,0,1-.567-.009.7.7,0,0,1-.712-.731.707.707,0,0,1,.714-.732,4.559,4.559,0,0,1,.566-.012h13.32Zm-11.3-20.611h6.566a6.347,6.347,0,0,1-1.07-4.3h-4.413A6.466,6.466,0,0,1,1423.287-3913.811Zm15.682.03a1.4,1.4,0,0,0-1.424-1.458,1.383,1.383,0,0,0-1.373,1.458Z" transform="translate(-1380.381 3937.247)" fill="#fff"/>
        <path id="Trazado_196224" data-name="Trazado 196224" d="M1293.871-3794.4c0,.743-.025,1.393.017,2.038a.652.652,0,0,0,.363.465c2.048.678,4.1,1.355,6.163,1.974a3.005,3.005,0,0,1,2.251,2.644,2.933,2.933,0,0,1-1.9,2.967,2.933,2.933,0,0,1-3.34-.944,2.953,2.953,0,0,1-.064-3.522c.083-.118.174-.23.313-.412l-3.809-1.265c0,.685.009,1.245,0,1.805a2.2,2.2,0,0,1-2.156,2.311,2.2,2.2,0,0,1-2.229-2.242c-.024-.583,0-1.168,0-1.861l-3.585,1.18a10.991,10.991,0,0,1,.612,2.255,2.793,2.793,0,0,1-2.574,2.835,2.926,2.926,0,0,1-3.186-2.342,2.943,2.943,0,0,1,2.016-3.354c2.059-.641,4.111-1.306,6.174-1.937.408-.125.581-.308.551-.751-.041-.583-.01-1.172-.01-1.845h-.712q-3.5,0-6.993,0c-.9,0-1.126-.249-1.056-1.137a3.63,3.63,0,0,1,3.565-3.262c1.7-.025,3.4-.005,5.145-.005v-6.587h-.66q-3.465,0-6.93,0c-.95,0-1.142-.194-1.142-1.144,0-5.02-.018-10.039,0-15.059a10.885,10.885,0,0,1,10.441-10.916,10.891,10.891,0,0,1,11.415,9.4,13.114,13.114,0,0,1,.116,1.756q.012,7.372,0,14.744c0,1.058-.168,1.223-1.253,1.223h-7.511v6.555c.221.01.441.028.661.029,1.512,0,3.024-.019,4.536.009a3.637,3.637,0,0,1,3.553,3.281c.066.838-.179,1.115-1.02,1.117q-3.5.006-6.993,0Zm7.342-12.495c0-1.227,0-2.4,0-3.572-.015-3.969.094-7.943-.081-11.9a9.392,9.392,0,0,0-9.1-8.7,9.537,9.537,0,0,0-9.892,9.562c-.029,4.7-.007,9.409,0,14.113,0,.161.029.321.046.5Zm-10.247,1.53c-.01.164-.023.266-.023.368q0,8.1,0,16.193c0,.146-.037.346.042.428.2.209.45.5.684.506s.5-.278.684-.5c.1-.118.06-.362.061-.549q.006-7.939,0-15.878c0-.183-.022-.366-.035-.572Zm2.943,9.44h7.142a1.888,1.888,0,0,0-1.591-1.335c-1.835-.075-3.675-.025-5.551-.025Zm-4.461-1.374c-1.871,0-3.671-.033-5.469.016a1.7,1.7,0,0,0-1.564,1.352h7.033Zm-4.379,10.224a1.456,1.456,0,0,0-1.425-1.462,1.484,1.484,0,0,0-1.5,1.463,1.5,1.5,0,0,0,1.436,1.469A1.477,1.477,0,0,0,1285.069-3787.072Zm16.126.031a1.443,1.443,0,0,0-1.455-1.488,1.474,1.474,0,0,0-1.465,1.426,1.489,1.489,0,0,0,1.466,1.494A1.461,1.461,0,0,0,1301.2-3787.041Z" transform="translate(-1263.822 3845.749)" fill="#fff"/>
        <path id="Trazado_196225" data-name="Trazado 196225" d="M1151.513-3836.824v.8q0,7.4,0,14.808c0,.209.061.477-.043.615-.179.24-.467.553-.705.549s-.522-.321-.7-.564c-.1-.141-.035-.407-.035-.617q0-7.4,0-14.808v-.835c-.688,0-1.333.006-1.977,0-.727-.009-.938-.215-.942-.939q-.01-1.985,0-3.97c0-.709.228-.928.952-.932,1.361-.007,2.722,0,4.136,0,.012-.283.03-.509.031-.734q.006-3.371.007-6.743c0-1.224.088-1.311,1.326-1.332.1,0,.207-.012.392-.022-.283-.578-.539-1.123-.815-1.655-.23-.445-.272-.854.2-1.152.4-.25.82-.055,1.1.494.346.671.667,1.355,1.025,2.02.073.135.263.207.4.309a1.653,1.653,0,0,0,.2-.41c.182-1.033.347-2.069.52-3.1.108-.644.463-.991.92-.866.576.157.63.595.542,1.1a23.8,23.8,0,0,0-.4,3.253c.36-.717.714-1.437,1.082-2.15.1-.2.208-.485.382-.553.257-.1.71-.163.837-.022a1.106,1.106,0,0,1,.215.924,13.96,13.96,0,0,1-.83,1.74c.077.045.11.082.141.081,1.729-.059,1.544.355,1.541,1.624-.006,2.142,0,4.285,0,6.427v.766c.47,0,.883.01,1.294,0,.517-.016.9.185.905.727s-.394.739-.9.739l-6.8,0q-3.151,0-6.3,0c-.185,0-.371.016-.6.027v2.918H1161.9c.189,0,.378,0,.567,0a.684.684,0,0,1,.755.741.672.672,0,0,1-.741.691c-.945.006-1.89,0-2.835,0h-3.728v.793q0,15.092-.005,30.183c0,1.164-.127,1.29-1.305,1.29-1.2,0-2.394,0-3.591,0-.751,0-.983-.228-.984-.973q-.007-5.64,0-11.279c0-.5.159-.878.725-.909.481-.027.757.31.758.943q.01,4.947,0,9.893v.846h2.888v-30.738Zm2.217-13.187v7.255h5.8v-7.255Z" transform="translate(-1147.108 3866.201)" fill="#fff"/>
        <path id="Trazado_196226" data-name="Trazado 196226" d="M1487.089-3912.561a4.869,4.869,0,0,1-.463.681q-3.507,3.525-7.028,7.036c-.357.357-.758.517-1.153.126s-.255-.794.1-1.155c2.359-2.358,4.709-4.726,7.089-7.063a1.144,1.144,0,0,1,.88-.245C1486.726-3913.146,1486.88-3912.8,1487.089-3912.561Z" transform="translate(-1436.409 3916.231)" fill="#fff"/>
        <path id="Trazado_196227" data-name="Trazado 196227" d="M1524.033-3883.5a5.127,5.127,0,0,1-.47.677c-1.1,1.119-2.217,2.224-3.324,3.337-.365.367-.769.576-1.2.15s-.214-.826.154-1.192c1.129-1.121,2.235-2.266,3.389-3.36a1.131,1.131,0,0,1,.879-.231C1523.677-3884.079,1523.83-3883.739,1524.033-3883.5Z" transform="translate(-1471.883 3890.841)" fill="#fff"/>
        <path id="Trazado_196228" data-name="Trazado 196228" d="M1467.982-3908.775c-.213-.164-.548-.293-.586-.483a1.146,1.146,0,0,1,.181-.887c.79-.866,1.641-1.675,2.471-2.5.355-.355.707-.715,1.069-1.064a.685.685,0,0,1,1.057-.026.7.7,0,0,1-.037,1.062q-1.768,1.787-3.558,3.552A3.1,3.1,0,0,1,1467.982-3908.775Z" transform="translate(-1426.943 3916.914)" fill="#fff"/>
        <path id="Trazado_196229" data-name="Trazado 196229" d="M1486.251-3571.262c.439,0,.879-.005,1.319,0,.477.006.832.2.843.721s-.33.746-.811.752q-1.381.018-2.763,0a.707.707,0,0,1-.788-.719c-.006-.5.327-.744.818-.753C1485.33-3571.268,1485.79-3571.262,1486.251-3571.262Z" transform="translate(-1441.515 3617.467)" fill="#fff"/>
        <path id="Trazado_196230" data-name="Trazado 196230" d="M1486.2-3629.328c.482,0,.964-.011,1.445,0a.687.687,0,0,1,.748.685.658.658,0,0,1-.66.764c-1,.039-2.009.035-3.012.006a.675.675,0,0,1-.694-.743.708.708,0,0,1,.793-.711c.461,0,.921,0,1.382,0Z" transform="translate(-1441.495 3668.204)" fill="#fff"/>
        <path id="Trazado_196231" data-name="Trazado 196231" d="M1486.2-3687.328h1.381c.463,0,.778.206.8.688a.667.667,0,0,1-.734.752c-.962.019-1.925.016-2.886,0a.684.684,0,0,1-.746-.75.7.7,0,0,1,.8-.7c.46,0,.921,0,1.381,0Z" transform="translate(-1441.484 3718.881)" fill="#fff"/>
        <path id="Trazado_196232" data-name="Trazado 196232" d="M1508.89-3814.1c-.27.191-.52.489-.816.546-.421.082-.713-.213-.724-.661-.012-.471.259-.8.72-.728.295.048.547.352.819.542Z" transform="translate(-1461.872 3830.395)" fill="#fff"/>
      </g>
    </g>
  </g>
</svg>
