<svg xmlns="http://www.w3.org/2000/svg" width="108.419" height="108.419" viewBox="0 0 108.419 108.419">
  <g id="Grupo_156384" data-name="Grupo 156384" transform="translate(-861.062 -2039.208)">
    <circle id="Elipse_6021" data-name="Elipse 6021" cx="54.209" cy="54.209" r="54.209" transform="translate(861.062 2039.208)" fill="#12263f"/>
    <g id="wsKaX8" transform="translate(71.694 6007.96)">
      <g id="Grupo_155826" data-name="Grupo 155826" transform="translate(812.306 -3949.96)">
        <path id="Trazado_196214" data-name="Trazado 196214" d="M872.47-3915.99a27.259,27.259,0,0,1-21.387,33.12,28.508,28.508,0,0,1-12.249-.532,5.2,5.2,0,0,0-2.153.293,14.325,14.325,0,0,1-2.74.695c-5.6.066-11.192.049-16.789.028-3.061-.011-4.8-1.782-4.842-4.85-.01-.792,0-1.583,0-2.374,0-2.831,0-2.831,3-3.123,0-.564,0-1.157,0-1.75,0-5.653-.012-11.306.006-16.958.009-2.572,1.108-3.9,3.6-4.626a1.669,1.669,0,0,0,1.037-.853c2.935-9.526,9.251-15.68,18.731-18.822v-3.8c-2.386-.85-2.86-1.53-2.866-4.115,0-1.074-.041-2.15.013-3.222a2.867,2.867,0,0,1,2.973-3.035q7.291-.086,14.583,0a2.835,2.835,0,0,1,2.966,2.863c.085,1.124.029,2.26.027,3.39-.005,2.574-.489,3.269-2.96,4.159,0,.972-.055,1.989.029,2.994a1.7,1.7,0,0,0,.638.992c.082.069.584-.274.826-.5.369-.345.66-.771,1.015-1.132,1.862-1.893,2.624-1.982,4.847-.6.286.177.585.333,1.086.615.314-2.835,1.488-4.626,4.649-4.235,1.9.235,2.111.346,3.6,4.229,1.946-1.632,3.782-2.192,5.866-.015,2.044,2.136,1.039,3.849-.358,5.653,4.119,1.328,4.3,1.519,4.267,4.371-.025,2.4-.331,2.688-4.16,3.863.727,1.5,2.328,2.928,1,4.734C875.724-3917.18,874.56-3915.9,872.47-3915.99Zm-27.993-17.625c-9.44-.073-21.2,9.553-21.445,17.526q5.086,0,10.168,0c4.079,0,5.579,1.52,5.58,5.648,0,7.519-.015,15.038.031,22.556,0,.558.326,1.5.691,1.6,1.6.462,3.261.683,4.9.991l-.28-.574c.618-.776,1.142-2.1,1.874-2.223,1.837-.319,1.4,1.542,1.711,2.562,10.85-.118,21.987-9.814,22.486-22.474-.372-.046-.751-.123-1.132-.133-1.065-.027-2.39.2-2.4-1.378-.015-1.7,1.39-1.416,2.5-1.461a10.279,10.279,0,0,0,1.2-.2c-.237-1.411-.454-2.7-.744-4.418-1.212,2.435-3.058,2.373-4.886,2.166-2.465-.279-2.377-2.484-2.842-4.324-1.795,1.156-3.345,2.7-5.39.756-2.262-2.149-2.323-2.34-.5-6.336-1.818-.586-3.9-.65-4.107-3.424-.235-3.124,1.2-4.443,4.278-4.551l-.135-.586-8.185-2.083c-.471,1.4.1,3.042-1.723,3.062C844.291-3930.887,844.787-3932.49,844.477-3933.615Zm-26.259,40.926c.644.03,1.193.078,1.743.079,3.561.007,7.124.059,10.683-.021,1.643-.037,2.264.644,2.183,2.213-.053,1.015-.01,2.035-.006,3.052,0,1.045.229,2.021,1.5,2.03s1.5-.912,1.5-2c-.015-7.914-.028-15.828.01-23.742.008-1.612-.663-2.216-2.239-2.2-4.352.049-8.705.011-13.058.019-2,0-2.391.383-2.394,2.362q-.013,8.394,0,16.79C818.137-3893.665,818.185-3893.227,818.217-3892.689Zm55.962-27.421c-.3-.442-.52-.768-.743-1.091-1.66-2.4-.786-4.539,2.066-5.207a5.474,5.474,0,0,0,1.49-.936c-.475-.34-.906-.862-1.433-.99-2.965-.725-3.816-2.785-2.029-5.3.639-.9.679-1.474-.054-1.814-1.454.5-2.7,1.322-3.892,1.259a2.9,2.9,0,0,1-2.806-3.2c0-.345-.635-.683-.976-1.025a11.085,11.085,0,0,0-.829,1.031c-.111.173-.065.441-.11.663a3,3,0,0,1-4.828,2.021c-.465-.313-.924-.636-1.349-.929-1.156.515-1.049,1.119-.432,2.005,1.784,2.565.948,4.545-2.077,5.3-.514.128-.926.671-1.385,1.021a4.969,4.969,0,0,0,1.36.863c3,.7,3.906,2.8,2.127,5.281-.687.96-.754,1.56.423,2.018.214-.131.413-.239.6-.368,3.042-2.114,4.777-1.4,5.71,2.24.115.451.812.753,1.384,1.25,1.581-5.248,2.631-5.674,6.933-3.018Zm-44.252,34.85v-4.367H815.179c0,.951-.026,1.786.006,2.619a1.6,1.6,0,0,0,1.677,1.736C821.249-3885.242,825.635-3885.26,829.927-3885.26Zm20.525-54.349h-8.715v3.051h8.715Zm-8.831-3.046v-4.3h-2.706v4.3Zm3.057-.031h2.807v-4.277h-2.807Zm6.017-4.275v4.306h2.627v-4.306Z" transform="translate(-812.306 3949.96)" fill="#fff"/>
        <path id="Trazado_196215" data-name="Trazado 196215" d="M916.959-3848.833c-.745,1.065-1.127,2.251-1.858,2.531-1.816.7-3.275.141-3.832-1.342-1.27-3.384-3.979-5.56-6.409-7.972a1.843,1.843,0,0,0-1.465-.315c-2.844.618-5.247-.489-6.257-2.972a4.985,4.985,0,0,1,2.339-6.367c1.769-1.038.834-2.6.735-3.909-.082-1.09-.788-2.12-.975-3.218a2.947,2.947,0,0,1,.417-2.1c.72-.912,1.488-2.219,3.029-1.448a3.3,3.3,0,0,1,1.717,4.21,33.818,33.818,0,0,0-.977,4.919,2.025,2.025,0,0,0,.878,1.514,5.267,5.267,0,0,1,2.464,6.108,1.969,1.969,0,0,0,.3,1.568c2.385,2.458,4.594,5.12,7.974,6.405C915.765-3850.946,916.177-3849.846,916.959-3848.833Zm-17.283-11.873a2.179,2.179,0,0,0,2.2,2.13,2.191,2.191,0,0,0,2.2-2.3,2.165,2.165,0,0,0-2.352-2.127A2.148,2.148,0,0,0,899.676-3860.706Z" transform="translate(-868.091 3901.217)" fill="#fff"/>
        <path id="Trazado_196216" data-name="Trazado 196216" d="M855.625-3815.8a9.6,9.6,0,0,1,2.681.058c.654.2,1.147.926,1.712,1.418-.521.489-1.008,1.348-1.569,1.4a30.854,30.854,0,0,1-5.722,0c-.539-.05-1-.934-1.5-1.436.509-.479.948-1.219,1.542-1.375A11.584,11.584,0,0,1,855.625-3815.8Z" transform="translate(-838.022 3861.374)" fill="#fff"/>
        <path id="Trazado_196217" data-name="Trazado 196217" d="M855.6-3795.464a10.545,10.545,0,0,1-2.679-.056c-.6-.163-1.066-.853-1.592-1.308.487-.488.943-1.351,1.468-1.4a35.962,35.962,0,0,1,5.883,0c.509.04.958.839,1.435,1.29-.494.49-.919,1.262-1.5,1.407A12.875,12.875,0,0,1,855.6-3795.464Z" transform="translate(-838.088 3849.795)" fill="#fff"/>
        <path id="Trazado_196218" data-name="Trazado 196218" d="M855.608-3830.229a12.574,12.574,0,0,1-2.85-.057c-.544-.128-.953-.832-1.422-1.276.486-.5.938-1.374,1.463-1.419a35.747,35.747,0,0,1,5.885,0c.509.04.957.84,1.434,1.291-.493.487-.916,1.256-1.494,1.4A13.014,13.014,0,0,1,855.608-3830.229Z" transform="translate(-838.091 3872.759)" fill="#fff"/>
        <path id="Trazado_196219" data-name="Trazado 196219" d="M835.994-3815.7c1.274,0,2.326.11,2.251,1.546-.073,1.414-1.182,1.4-2.219,1.419-1.113.018-2.132-.23-2.074-1.578C834.012-3815.7,835.133-3815.728,835.994-3815.7Z" transform="translate(-826.605 3861.265)" fill="#fff"/>
        <path id="Trazado_196220" data-name="Trazado 196220" d="M836.017-3830.151c-.88.047-1.906.016-1.909-1.339,0-1.547,1.162-1.492,2.269-1.5,1.035-.011,2,.1,2.028,1.4C838.439-3829.974,837.2-3830.154,836.017-3830.151Z" transform="translate(-826.709 3872.687)" fill="#fff"/>
        <path id="Trazado_196221" data-name="Trazado 196221" d="M836.3-3795.4c-1.094.074-2.162.022-2.2-1.4-.037-1.475,1.094-1.433,2.132-1.438s2.174-.06,2.174,1.393C838.406-3795.446,837.378-3795.3,836.3-3795.4Z" transform="translate(-826.703 3849.72)" fill="#fff"/>
        <path id="Trazado_196222" data-name="Trazado 196222" d="M954.2-3893.961a5.381,5.381,0,0,1,5.392-5.531,5.516,5.516,0,0,1,5.509,5.471,5.54,5.54,0,0,1-5.535,5.457A5.412,5.412,0,0,1,954.2-3893.961Zm7.96-.138a2.459,2.459,0,0,0-2.609-2.468,2.571,2.571,0,0,0-2.516,2.6,2.6,2.6,0,0,0,2.65,2.486A2.489,2.489,0,0,0,962.163-3894.1Z" transform="translate(-906.05 3916.618)" fill="#fff"/>
      </g>
    </g>
  </g>
</svg>
