<svg xmlns="http://www.w3.org/2000/svg" width="47.999" height="48" viewBox="0 0 47.999 48">
  <g id="eVj3V1" transform="translate(-1331.295 5001.996)">
    <g id="Grupo_156324" data-name="Grupo 156324" transform="translate(1331.295 -5001.996)">
      <path id="Trazado_196637" data-name="Trazado 196637" d="M1355.284-4954a23.984,23.984,0,0,1-23.989-23.885A24.011,24.011,0,0,1,1355.307-5002a24.006,24.006,0,0,1,23.987,24.079A23.985,23.985,0,0,1,1355.284-4954Zm0-17.581v.01h13.83a1.8,1.8,0,0,0,2.011-1.98q.007-4.078,0-8.156a1.8,1.8,0,0,0-2.057-2.058q-13.793,0-27.586,0a1.8,1.8,0,0,0-2.023,2.035q0,4.017,0,8.036c0,1.478.627,2.111,2.111,2.113Q1348.429-4971.573,1355.284-4971.577Zm-12.746-19.5c-1.241-.522-2.536-1.044-3.807-1.618a.547.547,0,0,0-.788.192,22.452,22.452,0,0,0-5.069,11.532c-.1.739-.129,1.489-.19,2.236h5.407c0-1.052,0-2.048,0-3.044a3.123,3.123,0,0,1,2.527-3.319.628.628,0,0,0,.377-.359C1341.52-4987.315,1342.022-4989.183,1342.538-4991.076Zm25.5-.075c.525,1.932,1.031,3.816,1.556,5.7a.593.593,0,0,0,.325.351c1.963.666,2.6,1.548,2.6,3.624,0,.912,0,1.824,0,2.759h5.428c-.115-1.038-.182-2.029-.343-3a22.175,22.175,0,0,0-5.06-10.886.57.57,0,0,0-.475-.186C1370.693-4992.258,1369.334-4991.687,1368.034-4991.15Zm-35.313,13.882a4.381,4.381,0,0,0,0,.633c.242,1.535.387,3.1.766,4.6a21.16,21.16,0,0,0,4.485,8.574c.128.151.422.333.554.281,1.391-.539,2.764-1.121,4.176-1.705-.055-.165-.113-.33-.165-.5-.437-1.41-.89-2.813-1.3-4.232-.111-.387-.241-.592-.673-.67a2.8,2.8,0,0,1-2.234-1.864,4.389,4.389,0,0,1-.238-1.4c-.032-1.23-.011-2.462-.011-3.718Zm35.231,12.374c.15.059.331.127.51.2,1.109.453,2.232.874,3.319,1.376a.644.644,0,0,0,.934-.228,22.467,22.467,0,0,0,4.85-10.489c.185-1.051.255-2.122.382-3.221h-5.433c0,1.254,0,2.469,0,3.684a3.158,3.158,0,0,1-2.7,3.362.678.678,0,0,0-.384.346,4.845,4.845,0,0,0-.178.694C1368.823-4967.758,1368.394-4966.35,1367.952-4964.895Zm-23.333-27.045a37.346,37.346,0,0,0,9.937,1.472v-10.062C1350.845-5000.374,1346.83-4996.927,1344.62-4991.94Zm11.4,1.473a36.834,36.834,0,0,0,9.959-1.545,19.405,19.405,0,0,0-3.267-4.937,11.129,11.129,0,0,0-4.311-3.05c-.75-.275-1.544-.43-2.381-.657Zm.007,24.938v9.935c3.858,0,8.082-4.119,9.866-8.459A38.294,38.294,0,0,0,1356.024-4965.529Zm-1.45.006a37.382,37.382,0,0,0-9.91,1.551,18.962,18.962,0,0,0,3.77,5.394,10.6,10.6,0,0,0,4.731,2.812c.448.117.913.168,1.409.256Zm1.463-23.543v3.891h12.285l-1.674-5.582A40.687,40.687,0,0,1,1356.036-4989.065Zm-1.465.007a41.741,41.741,0,0,1-10.656-1.634c-.553,1.865-1.084,3.65-1.637,5.512h12.293Zm-12.124,18.877,1.558,4.94a40.463,40.463,0,0,1,10.537-1.666v-3.274Zm13.566,0v3.248c.238.017.452.039.668.045a39.039,39.039,0,0,1,8.061,1.093c.594.144,1.376.534,1.748.3.435-.274.548-1.1.742-1.7.309-.963.57-1.942.87-2.981Zm15.292,8.09-3.974-1.58a20.194,20.194,0,0,1-5.522,7.249C1364.269-4956.737,1369.417-4959.817,1371.305-4962.086Zm-22.544,5.7a20.506,20.506,0,0,1-5.465-7.207l-4.018,1.567A21.95,21.95,0,0,0,1348.761-4956.383Zm-.3-43.1a21.732,21.732,0,0,0-9.219,5.573l3.978,1.578A21.209,21.209,0,0,1,1348.46-4999.484Zm13.707.02a21.5,21.5,0,0,1,5.181,7.069l3.967-1.568A21.768,21.768,0,0,0,1362.167-4999.464Z" transform="translate(-1331.295 5001.997)" fill="#12263f"/>
      <path id="Trazado_196649" data-name="Trazado 196649" d="M1431.267-4818.5c.17-.583.353-1.164.506-1.752.129-.493.417-.736.917-.592s.534.543.408.968c-.376,1.262-.765,2.52-1.141,3.782a.8.8,0,0,1-.809.664.811.811,0,0,1-.806-.742,6.482,6.482,0,0,0-.458-1.4c-.12.449-.251.9-.355,1.349s-.34.779-.836.789c-.473.01-.7-.3-.824-.724-.358-1.226-.727-2.448-1.095-3.671-.135-.449-.125-.842.4-1.022.451-.154.743.057.925.658a10.888,10.888,0,0,0,.619,1.711c.143-.549.3-1.1.425-1.649.1-.428.292-.756.781-.759s.695.318.8.744c.135.549.276,1.1.415,1.646Z" transform="translate(-1415.253 4842.632)" fill="#12263f"/>
      <path id="Trazado_196650" data-name="Trazado 196650" d="M1506.213-4817.713c-.173.664-.306,1.144-.421,1.627a.8.8,0,0,1-.792.689.771.771,0,0,1-.814-.648c-.371-1.264-.758-2.523-1.132-3.786-.135-.455-.083-.865.452-1,.475-.117.745.133.866.6a9.107,9.107,0,0,0,.637,1.775c.131-.5.272-1,.39-1.509.1-.453.245-.881.8-.889.588-.008.744.44.857.91a7,7,0,0,0,.494,1.492c.168-.581.343-1.16.5-1.744.128-.475.4-.764.906-.621.525.146.562.544.42,1.006q-.562,1.834-1.1,3.671c-.132.446-.37.77-.873.746-.475-.021-.677-.354-.78-.779C1506.512-4816.631,1506.382-4817.084,1506.213-4817.713Z" transform="translate(-1482.39 4842.591)" fill="#12263f"/>
      <path id="Trazado_196651" data-name="Trazado 196651" d="M1585.8-4818.472c.142-.548.3-1.093.422-1.646.1-.433.3-.752.787-.749s.691.322.792.752a8.482,8.482,0,0,0,.528,1.638c.132-.436.266-.871.4-1.308.063-.21.055-.491.192-.618a1.374,1.374,0,0,1,.8-.419.536.536,0,0,1,.5.732c-.4,1.42-.817,2.838-1.293,4.233a.909.909,0,0,1-.756.409,1.01,1.01,0,0,1-.679-.542c-.21-.487-.293-1.028-.536-1.56-.121.466-.245.933-.363,1.4a.823.823,0,0,1-.756.73.79.79,0,0,1-.863-.665c-.385-1.278-.772-2.557-1.147-3.838a.654.654,0,0,1,.487-.928c.449-.109.717.131.839.558.173.605.35,1.21.525,1.814Z" transform="translate(-1553.484 4842.608)" fill="#12263f"/>
    </g>
  </g>
</svg>
