<svg xmlns="http://www.w3.org/2000/svg" width="61" height="61" viewBox="0 0 61 61">
  <g id="Grupo_142439" data-name="Grupo 142439" transform="translate(-0.266 0.499)">
    <circle id="Elipse_4868" data-name="Elipse 4868" cx="30.5" cy="30.5" r="30.5" transform="translate(0.266 -0.499)" fill="#2194e5"/>
    <g id="T86jn9" transform="translate(-1297.531 4286.504)">
      <g id="Grupo_155829" data-name="Grupo 155829" transform="translate(1307.89 -4277.91)">
        <path id="Trazado_196233" data-name="Trazado 196233" d="M1374.8-4203.611a7.442,7.442,0,0,1,7.586-7.417,7.444,7.444,0,0,1,7.373,7.534,7.462,7.462,0,0,1-7.487,7.425A7.457,7.457,0,0,1,1374.8-4203.611Zm2.83,3.98c.7-1.005,1.371-1.941,2-2.908a1.1,1.1,0,0,0,.094-.765,2.776,2.776,0,0,1,1.045-3.171,2.649,2.649,0,0,1,3.083.047,2.726,2.726,0,0,1,1,3.1,1.02,1.02,0,0,0,.013.7c.665,1.012,1.375,2,2.065,2.981a5.975,5.975,0,0,0-.214-8.172,6.149,6.149,0,0,0-8.633-.223A6.022,6.022,0,0,0,1377.635-4199.631Zm4.654,2.454c1.029-.382,2-.7,2.919-1.122a.94.94,0,0,0,.257-.887,28.317,28.317,0,0,0-1.967-2.851c-.372-.472-.529-.839-.143-1.363a1.178,1.178,0,0,0-.248-1.853,1.931,1.931,0,0,0-1.649,0,1.177,1.177,0,0,0-.24,1.853c.388.524.219.894-.152,1.364a28.363,28.363,0,0,0-1.964,2.852.941.941,0,0,0,.266.884C1380.287-4197.87,1381.259-4197.558,1382.288-4197.177Z" transform="translate(-1361.821 4224.006)" fill="#fff"/>
        <path id="Trazado_196234" data-name="Trazado 196234" d="M1448.986-4262.913a5.112,5.112,0,0,1-1.429-.177,5.8,5.8,0,0,0-3.951.022c-1.189.309-1.487.03-1.281-1.174a6.674,6.674,0,0,0-.323-3.735,7.362,7.362,0,0,1,5.153-9.693,7.465,7.465,0,0,1,9.214,5.9A7.467,7.467,0,0,1,1448.986-4262.913Zm-5.249-1.593a7.421,7.421,0,0,1,3.642-.049,5.909,5.909,0,0,0,7.061-2.98,6.129,6.129,0,0,0-1.52-7.629,6.121,6.121,0,0,0-7.624-.135,6.037,6.037,0,0,0-1.787,7.554,3.277,3.277,0,0,1,.324,2.4A7.844,7.844,0,0,0,1443.737-4264.506Z" transform="translate(-1415.591 4277.91)" fill="#fff"/>
        <path id="Trazado_196235" data-name="Trazado 196235" d="M1443.566-4141.746l-1.653-1.316,1.129-.936,1.483,1.417a7.592,7.592,0,0,1,6.828-1.426,7.155,7.155,0,0,1,4.163,2.98,7.482,7.482,0,0,1-1.071,9.708,7.473,7.473,0,0,1-9.839.334C1441.468-4133.488,1441.066-4137.285,1443.566-4141.746Zm11.914,5a6.166,6.166,0,0,0-6.12-6.207,6.171,6.171,0,0,0-6.181,6.147,6.169,6.169,0,0,0,6.075,6.155A6.164,6.164,0,0,0,1455.48-4136.742Z" transform="translate(-1415.907 4170.216)" fill="#fff"/>
        <path id="Trazado_196236" data-name="Trazado 196236" d="M1320.328-4142.418l1.3-1.607,1.136,1.081-1.724,1.252a7.807,7.807,0,0,1,1.507,7.2,7.2,7.2,0,0,1-3.156,4.146,7.494,7.494,0,0,1-9.6-1.354,7.479,7.479,0,0,1-.174-9.77C1311.624-4143.916,1315.932-4145.541,1320.328-4142.418Zm-4.977,11.89a6.169,6.169,0,0,0,6.194-6.133,6.188,6.188,0,0,0-6.161-6.178,6.2,6.2,0,0,0-6.141,6.1A6.163,6.163,0,0,0,1315.351-4130.528Z" transform="translate(-1307.89 4170.096)" fill="#fff"/>
        <path id="Trazado_196237" data-name="Trazado 196237" d="M1321.215-4265.392l1.682,1.255-1.126.986-1.5-1.439a7.6,7.6,0,0,1-6.74,1.445,7.179,7.179,0,0,1-4.2-2.925,7.5,7.5,0,0,1,.949-9.718,7.482,7.482,0,0,1,9.754-.509C1323.282-4273.8,1323.731-4270.04,1321.215-4265.392Zm-11.91-5.056a6.17,6.17,0,0,0,6.105,6.223,6.168,6.168,0,0,0,6.194-6.133,6.167,6.167,0,0,0-6.156-6.169A6.165,6.165,0,0,0,1309.306-4270.447Z" transform="translate(-1307.954 4277.873)" fill="#fff"/>
        <path id="Trazado_196238" data-name="Trazado 196238" d="M1336.39-4189.886h1.189v1.27h-1.189Z" transform="translate(-1330.86 4206.967)" fill="#fff"/>
        <path id="Trazado_196239" data-name="Trazado 196239" d="M1336.306-4175.88h1.2v1.269h-1.2Z" transform="translate(-1330.792 4195.678)" fill="#fff"/>
        <path id="Trazado_196240" data-name="Trazado 196240" d="M1336.249-4160.472v-1.24h1.221v1.24Z" transform="translate(-1330.746 4184.26)" fill="#fff"/>
        <path id="Trazado_196241" data-name="Trazado 196241" d="M1411.391-4089.968h-1.251v-1.2h1.251Z" transform="translate(-1390.298 4127.402)" fill="#fff"/>
        <path id="Trazado_196242" data-name="Trazado 196242" d="M1410.192-4259.935h1.223v1.219h-1.223Z" transform="translate(-1390.341 4263.423)" fill="#fff"/>
        <path id="Trazado_196243" data-name="Trazado 196243" d="M1495.817-4174.47h-1.181v-1.282h1.181Z" transform="translate(-1458.399 4195.575)" fill="#fff"/>
        <path id="Trazado_196244" data-name="Trazado 196244" d="M1495.922-4161.64v1.229h-1.183v-1.229Z" transform="translate(-1458.481 4184.202)" fill="#fff"/>
        <path id="Trazado_196245" data-name="Trazado 196245" d="M1495.871-4189.718v1.25h-1.194v-1.25Z" transform="translate(-1458.432 4206.831)" fill="#fff"/>
        <path id="Trazado_196246" data-name="Trazado 196246" d="M1425.364-4259.892v1.193H1424.1v-1.193Z" transform="translate(-1401.547 4263.388)" fill="#fff"/>
        <path id="Trazado_196247" data-name="Trazado 196247" d="M1396.042-4090v-1.182h1.275V-4090Z" transform="translate(-1378.937 4127.415)" fill="#fff"/>
        <path id="Trazado_196248" data-name="Trazado 196248" d="M1397.357-4258.668H1396.1v-1.194h1.255Z" transform="translate(-1378.985 4263.365)" fill="#fff"/>
        <path id="Trazado_196249" data-name="Trazado 196249" d="M1424.152-4091.283h1.246v1.195h-1.246Z" transform="translate(-1401.592 4127.497)" fill="#fff"/>
        <path id="Trazado_196250" data-name="Trazado 196250" d="M1466.078-4250.6c.841,0,1.682.023,2.522-.006.887-.031,1.146-.432.734-1.179-.81-1.469-1.649-2.924-2.5-4.368-.424-.717-.966-.729-1.39-.016q-1.288,2.164-2.5,4.373c-.411.752-.161,1.155.709,1.189C1464.46-4250.571,1465.27-4250.6,1466.078-4250.6Z" transform="translate(-1432.701 4260.81)" fill="#fff"/>
        <path id="Trazado_196251" data-name="Trazado 196251" d="M1466.078-4250.6c-.808,0-1.618.024-2.425-.007-.871-.034-1.121-.437-.709-1.189q1.21-2.208,2.5-4.373c.424-.712.966-.7,1.39.016.854,1.444,1.694,2.9,2.5,4.368.412.747.154,1.147-.734,1.179C1467.76-4250.572,1466.919-4250.6,1466.078-4250.6Z" transform="translate(-1432.701 4260.81)" fill="#fff"/>
        <path id="Trazado_196252" data-name="Trazado 196252" d="M1462.416-4122.815c-.316-1.052.333-1.777,1.331-2.466,2.559-1.767,1.6-1.75,4.082.027.488.351,1.183.749,1.284,1.23a9.1,9.1,0,0,1,.011,2.977c-.044.345-.553.673-.906.93-3.035,2.2-1.845,2.152-4.848,0C1462.4-4120.8,1462.416-4120.824,1462.416-4122.815Zm3.375-2.286c-.458.339-.873.643-1.283.951-.726.546-1.149,2.149-.612,2.693a6.427,6.427,0,0,0,1.867,1.332c.223.1.744-.388,1.1-.649,1.466-1.086,1.466-2.433.015-3.516Z" transform="translate(-1432.366 4155.958)" fill="#fff"/>
        <path id="Trazado_196253" data-name="Trazado 196253" d="M1335.747-4119.7c0,.806-.02,1.613.006,2.418.021.651-.254.959-.906.957q-2.466-.008-4.933,0c-.637,0-.958-.278-.956-.929q.008-2.467,0-4.933c0-.636.261-.943.929-.935,1.644.02,3.289.025,4.933,0,.736-.013.961.326.935,1C1335.724-4121.315,1335.747-4120.508,1335.747-4119.7Zm-1.365-2.015h-4v3.973h4Z" transform="translate(-1324.87 4153.161)" fill="#fff"/>
        <path id="Trazado_196254" data-name="Trazado 196254" d="M1335.765-4253.428a3.323,3.323,0,0,1-3.366,3.361,3.393,3.393,0,0,1-3.419-3.343,3.464,3.464,0,0,1,3.449-3.44A3.387,3.387,0,0,1,1335.765-4253.428Zm-1.33-.051a2.079,2.079,0,0,0-2.059-2.027,2.115,2.115,0,0,0-2.051,2.046,2.076,2.076,0,0,0,2.12,2.062A2.049,2.049,0,0,0,1334.436-4253.479Z" transform="translate(-1324.888 4260.938)" fill="#fff"/>
      </g>
    </g>
  </g>
</svg>
