<svg xmlns="http://www.w3.org/2000/svg" xmlns:xlink="http://www.w3.org/1999/xlink" width="1097.456" height="218.312" viewBox="0 0 1097.456 218.312">
  <defs>
    <linearGradient id="linear-gradient" x1="0.5" x2="0.5" y2="1" gradientUnits="objectBoundingBox">
      <stop offset="0" stop-color="#116eb9"/>
      <stop offset="1" stop-color="#1894f6"/>
    </linearGradient>
    <linearGradient id="linear-gradient-2" x1="0.5" x2="0.5" y2="1" gradientUnits="objectBoundingBox">
      <stop offset="0" stop-color="#f5f5f5"/>
      <stop offset="0.25" stop-color="#f5f5f5"/>
      <stop offset="1" stop-color="#a7b3cf"/>
    </linearGradient>
  </defs>
  <g id="Grupo_156381" data-name="Grupo 156381" transform="translate(-251.272 -844.744)">
    <path id="Trazado_196737" data-name="Trazado 196737" d="M0,0H808.751" transform="translate(383.055 946.327)" fill="none" stroke="#000" stroke-linecap="round" stroke-width="1" stroke-dasharray="0 4"/>
    <path id="Trazado_196738" data-name="Trazado 196738" d="M0,0H31.664V2.054H0Z" transform="translate(510.806 1035.885) rotate(-90)" fill="#d2d2d2"/>
    <path id="Trazado_196739" data-name="Trazado 196739" d="M0,0H31.664V2.054H0Z" transform="translate(881.393 1035.885) rotate(-90)" fill="#d2d2d2"/>
    <path id="Trazado_195627" data-name="Trazado 195627" d="M178.471-249.311a69.9,69.9,0,0,1-69.856,67.681A69.9,69.9,0,0,1,38.76-249.311h-2a71.9,71.9,0,0,0,71.855,69.681,71.9,71.9,0,0,0,71.856-69.681Z" transform="translate(218.53 1185.713)" fill="#d2d2d2"/>
    <path id="Trazado_195628" data-name="Trazado 195628" d="M314.707-249.311a69.9,69.9,0,0,1-69.855,67.681A69.9,69.9,0,0,1,175-249.311h-2a71.9,71.9,0,0,0,71.855,69.681,71.9,71.9,0,0,0,71.855-69.681Z" transform="translate(267.384 1185.713)" fill="#d2d2d2"/>
    <path id="Trazado_195629" data-name="Trazado 195629" d="M450.946-249.311a69.9,69.9,0,0,1-69.855,67.681,69.9,69.9,0,0,1-69.856-67.681h-2a71.9,71.9,0,0,0,71.856,69.681,71.9,71.9,0,0,0,71.855-69.681Z" transform="translate(316.237 1185.713)" fill="#d2d2d2"/>
    <path id="Trazado_195630" data-name="Trazado 195630" d="M587.184-249.311a69.9,69.9,0,0,1-69.856,67.681,69.9,69.9,0,0,1-69.855-67.681h-2a71.9,71.9,0,0,0,71.855,69.681,71.9,71.9,0,0,0,71.855-69.681Z" transform="translate(365.092 1185.713)" fill="#d2d2d2"/>
    <path id="Trazado_195631" data-name="Trazado 195631" d="M723.421-249.311a69.9,69.9,0,0,1-69.855,67.681,69.9,69.9,0,0,1-69.856-67.681h-2a71.9,71.9,0,0,0,71.856,69.681,71.9,71.9,0,0,0,71.855-69.681Z" transform="translate(413.945 1185.713)" fill="#d2d2d2"/>
    <path id="Trazado_195632" data-name="Trazado 195632" d="M143.065-243.324a20.69,20.69,0,0,1,20.69-20.69,20.691,20.691,0,0,1,20.691,20.69h1.992a22.682,22.682,0,0,0-22.683-22.682,22.682,22.682,0,0,0-22.683,22.682Z" transform="translate(255.936 1179.727)" fill="#d2d2d2"/>
    <path id="Trazado_195633" data-name="Trazado 195633" d="M279.3-243.324a20.691,20.691,0,0,1,20.691-20.69,20.69,20.69,0,0,1,20.69,20.69h1.993a22.682,22.682,0,0,0-22.683-22.682,22.682,22.682,0,0,0-22.683,22.682Z" transform="translate(304.789 1179.727)" fill="#d2d2d2"/>
    <path id="Trazado_195634" data-name="Trazado 195634" d="M415.54-243.324a20.69,20.69,0,0,1,20.69-20.69,20.691,20.691,0,0,1,20.691,20.69h1.992a22.682,22.682,0,0,0-22.683-22.682,22.682,22.682,0,0,0-22.683,22.682Z" transform="translate(353.644 1179.727)" fill="#d2d2d2"/>
    <path id="Trazado_195635" data-name="Trazado 195635" d="M551.777-243.324a20.691,20.691,0,0,1,20.691-20.69,20.69,20.69,0,0,1,20.69,20.69h1.993a22.682,22.682,0,0,0-22.683-22.682,22.682,22.682,0,0,0-22.683,22.682Z" transform="translate(402.497 1179.727)" fill="#d2d2d2"/>
    <path id="Trazado_195636" data-name="Trazado 195636" d="M314.71-249.311a69.9,69.9,0,0,1-69.856,67.681A69.9,69.9,0,0,1,175-249.311h-2a71.9,71.9,0,0,0,71.855,69.681,71.9,71.9,0,0,0,71.856-69.681Z" transform="translate(267.385 1185.713)" fill="#d2d2d2"/>
    <path id="Trazado_195637" data-name="Trazado 195637" d="M450.947-249.311a69.9,69.9,0,0,1-69.855,67.681,69.9,69.9,0,0,1-69.856-67.681h-2a71.9,71.9,0,0,0,71.856,69.681,71.9,71.9,0,0,0,71.855-69.681Z" transform="translate(316.238 1185.713)" fill="#d2d2d2"/>
    <path id="Trazado_195638" data-name="Trazado 195638" d="M587.185-249.311a69.9,69.9,0,0,1-69.856,67.681,69.9,69.9,0,0,1-69.855-67.681h-2a71.9,71.9,0,0,0,71.855,69.681,71.9,71.9,0,0,0,71.856-69.681Z" transform="translate(365.092 1185.713)" fill="#d2d2d2"/>
    <path id="Trazado_195639" data-name="Trazado 195639" d="M723.422-249.311a69.9,69.9,0,0,1-69.855,67.681,69.9,69.9,0,0,1-69.856-67.681h-2a71.9,71.9,0,0,0,71.856,69.681,71.9,71.9,0,0,0,71.855-69.681Z" transform="translate(413.945 1185.713)" fill="#d2d2d2"/>
    <path id="Trazado_195640" data-name="Trazado 195640" d="M859.66-249.311A69.9,69.9,0,0,1,789.8-181.63a69.9,69.9,0,0,1-69.855-67.681h-2A71.9,71.9,0,0,0,789.8-179.63a71.9,71.9,0,0,0,71.856-69.681Z" transform="translate(462.799 1185.713)" fill="#d2d2d2"/>
    <path id="Trazado_195641" data-name="Trazado 195641" d="M279.3-243.324a20.69,20.69,0,0,1,20.69-20.69,20.69,20.69,0,0,1,20.69,20.69h1.993a22.682,22.682,0,0,0-22.683-22.682,22.682,22.682,0,0,0-22.683,22.682Z" transform="translate(304.79 1179.727)" fill="#d2d2d2"/>
    <path id="Trazado_195642" data-name="Trazado 195642" d="M415.541-243.324a20.691,20.691,0,0,1,20.691-20.69,20.69,20.69,0,0,1,20.69,20.69h1.992a22.682,22.682,0,0,0-22.682-22.682,22.682,22.682,0,0,0-22.683,22.682Z" transform="translate(353.644 1179.727)" fill="#d2d2d2"/>
    <path id="Trazado_195643" data-name="Trazado 195643" d="M551.779-243.324a20.69,20.69,0,0,1,20.69-20.69,20.691,20.691,0,0,1,20.691,20.69h1.992a22.682,22.682,0,0,0-22.683-22.682,22.682,22.682,0,0,0-22.683,22.682Z" transform="translate(402.497 1179.727)" fill="#d2d2d2"/>
    <path id="Trazado_195644" data-name="Trazado 195644" d="M688.016-243.324a20.691,20.691,0,0,1,20.691-20.69,20.69,20.69,0,0,1,20.69,20.69h1.992a22.681,22.681,0,0,0-22.682-22.682,22.682,22.682,0,0,0-22.683,22.682Z" transform="translate(451.351 1179.727)" fill="#d2d2d2"/>
    <path id="Trazado_196740" data-name="Trazado 196740" d="M0,0H31.664V2.054H0Z" transform="translate(326.097 1035.885) rotate(-90)" fill="#d2d2d2"/>
    <path id="Trazado_196741" data-name="Trazado 196741" d="M0,0H31.664V2.054H0Z" transform="translate(696.301 1035.885) rotate(-90)" fill="#d2d2d2"/>
    <path id="Trazado_196742" data-name="Trazado 196742" d="M2.387,0A2.387,2.387,0,1,1,0,2.387,2.387,2.387,0,0,1,2.387,0Z" transform="translate(253.887 934.017)" fill="#d2d2d2"/>
    <path id="Trazado_196743" data-name="Trazado 196743" d="M2.387,0A2.387,2.387,0,1,1,0,2.387,2.387,2.387,0,0,1,2.387,0Z" transform="translate(1124.9 934.017)" fill="#d2d2d2"/>
    <path id="Trazado_196748" data-name="Trazado 196748" d="M63.235,0A63.235,63.235,0,1,1,0,63.235,63.235,63.235,0,0,1,63.235,0Z" transform="matrix(0.162, -0.987, 0.987, 0.162, 254.504, 986.33)" fill="#f6f6f4"/>
    <path id="Trazado_196749" data-name="Trazado 196749" d="M52.724,0A52.724,52.724,0,1,1,0,52.724,52.724,52.724,0,0,1,52.724,0Z" transform="translate(252.583 934.172) rotate(-45)" fill="#e5e5e5"/>
    <g id="Grupo_155274" data-name="Grupo 155274" transform="translate(300.635 907.49)">
      <path id="Trazado_195645" data-name="Trazado 195645" d="M110.43-265.41l-6.209,3.1-1.388-2.777,6.209-3.1Z" transform="translate(-58.411 271.454)" fill="#12263f"/>
      <path id="Trazado_195646" data-name="Trazado 195646" d="M109.042-246.31l-6.209-3.1,1.388-2.777,6.207,3.1Z" transform="translate(-58.411 277.19)" fill="#12263f"/>
      <path id="Trazado_195647" data-name="Trazado 195647" d="M104.486-259.167H110.8v3.1h-6.312Z" transform="translate(-57.818 274.689)" fill="#12263f"/>
      <path id="Trazado_195648" data-name="Trazado 195648" d="M72.232-268.186l6.207,3.1-1.388,2.776-6.207-3.1Z" transform="translate(-69.882 271.455)" fill="#12263f"/>
      <path id="Trazado_195649" data-name="Trazado 195649" d="M72.231-246.311l-1.388-2.777,6.209-3.1,1.388,2.777Z" transform="translate(-69.882 277.19)" fill="#12263f"/>
      <path id="Trazado_195650" data-name="Trazado 195650" d="M70.136-259.167h6.312v3.1H70.136Z" transform="translate(-70.136 274.689)" fill="#12263f"/>
      <path id="Trazado_195651" data-name="Trazado 195651" d="M86.206-233.881h9.313v3.1H86.206Z" transform="translate(-64.373 283.756)" fill="#12263f"/>
      <path id="Trazado_195652" data-name="Trazado 195652" d="M111.214-253.519A17.094,17.094,0,0,0,94.14-270.592a17.093,17.093,0,0,0-17.073,17.073,17.079,17.079,0,0,0,9.313,15.186v4.991h-3.1v3.1h3.1v6.415H101.9v-6.415h3.1v-3.1h-3.1v-4.991A17.081,17.081,0,0,0,111.214-253.519ZM98.8-226.925H89.483v-3.311H98.8Zm-6.209-23.489a1.554,1.554,0,0,1,1.553-1.551,1.553,1.553,0,0,1,1.552,1.551,1.554,1.554,0,0,1-1.552,1.553A1.555,1.555,0,0,1,92.588-250.414Zm3.1,17.073v-12.684a4.665,4.665,0,0,0,3.1-4.39,4.661,4.661,0,0,0-4.656-4.656,4.662,4.662,0,0,0-4.657,4.656,4.666,4.666,0,0,0,3.1,4.39v12.684h-3.1v-6.986l-.928-.408a13.981,13.981,0,0,1-8.384-12.784A13.985,13.985,0,0,1,94.14-267.488a13.986,13.986,0,0,1,13.969,13.969,13.983,13.983,0,0,1-8.384,12.784l-.929.408v6.986Z" transform="translate(-67.651 270.592)" fill="#12263f"/>
    </g>
    <path id="Trazado_196750" data-name="Trazado 196750" d="M11.591-6.467A7.923,7.923,0,0,1,10.248-1.5,4.687,4.687,0,0,1,6.316.215a4.72,4.72,0,0,1-3.91-1.687A7.691,7.691,0,0,1,1.021-6.306V-9.185a7.819,7.819,0,0,1,1.359-4.974,4.722,4.722,0,0,1,3.916-1.7,4.726,4.726,0,0,1,3.91,1.681,7.668,7.668,0,0,1,1.386,4.829Zm-3.1-3.165a5.727,5.727,0,0,0-.532-2.833,1.8,1.8,0,0,0-1.66-.887,1.765,1.765,0,0,0-1.617.844,5.36,5.36,0,0,0-.553,2.64v3.806a6.012,6.012,0,0,0,.521,2.844,1.773,1.773,0,0,0,1.67.93A1.743,1.743,0,0,0,7.96-3.181a5.868,5.868,0,0,0,.526-2.731ZM21.227,0h-3.1V-11.983l-3.706,1.144v-2.5l6.478-2.32h.333ZM26.6-1.525a1.563,1.563,0,0,1,.5-1.2,1.772,1.772,0,0,1,1.251-.462,1.787,1.787,0,0,1,1.262.462,1.563,1.563,0,0,1,.5,1.2,1.542,1.542,0,0,1-.494,1.187,1.794,1.794,0,0,1-1.268.457,1.78,1.78,0,0,1-1.257-.457A1.542,1.542,0,0,1,26.6-1.525Z" transform="translate(274.971 891.807)" fill="#00334e"/>
    <path id="Trazado_196762" data-name="Trazado 196762" d="M63.235,0A63.235,63.235,0,1,1,0,63.235,63.235,63.235,0,0,1,63.235,0Z" transform="matrix(0.163, -0.987, 0.987, 0.163, 439.565, 986.288)" fill="#f6f6f4"/>
    <path id="Trazado_196763" data-name="Trazado 196763" d="M52.724,0A52.724,52.724,0,1,1,0,52.724,52.724,52.724,0,0,1,52.724,0Z" transform="translate(448.654 973.119) rotate(-76.489)" fill="#e5e5e5"/>
    <path id="Trazado_196751" data-name="Trazado 196751" d="M11.591-6.467A7.923,7.923,0,0,1,10.248-1.5,4.687,4.687,0,0,1,6.316.215a4.72,4.72,0,0,1-3.91-1.687A7.691,7.691,0,0,1,1.021-6.306V-9.185a7.819,7.819,0,0,1,1.359-4.974,4.722,4.722,0,0,1,3.916-1.7,4.726,4.726,0,0,1,3.91,1.681,7.668,7.668,0,0,1,1.386,4.829Zm-3.1-3.165a5.727,5.727,0,0,0-.532-2.833,1.8,1.8,0,0,0-1.66-.887,1.765,1.765,0,0,0-1.617.844,5.36,5.36,0,0,0-.553,2.64v3.806a6.012,6.012,0,0,0,.521,2.844,1.773,1.773,0,0,0,1.67.93A1.743,1.743,0,0,0,7.96-3.181a5.868,5.868,0,0,0,.526-2.731ZM24.406,0H13.686V-2.127l5.06-5.393a12.482,12.482,0,0,0,1.542-1.987,3.193,3.193,0,0,0,.5-1.611,2.389,2.389,0,0,0-.526-1.638,1.9,1.9,0,0,0-1.5-.6,2.049,2.049,0,0,0-1.66.725,2.872,2.872,0,0,0-.607,1.907H13.374a5.128,5.128,0,0,1,.682-2.61,4.808,4.808,0,0,1,1.928-1.853,5.861,5.861,0,0,1,2.825-.671,5.549,5.549,0,0,1,3.754,1.16A4.1,4.1,0,0,1,23.9-11.419a5.259,5.259,0,0,1-.6,2.363,13.133,13.133,0,0,1-2.062,2.8L17.682-2.5h6.725ZM26.6-1.525a1.563,1.563,0,0,1,.5-1.2,1.772,1.772,0,0,1,1.251-.462,1.787,1.787,0,0,1,1.262.462,1.563,1.563,0,0,1,.5,1.2,1.542,1.542,0,0,1-.494,1.187,1.794,1.794,0,0,1-1.268.457,1.78,1.78,0,0,1-1.257-.457A1.542,1.542,0,0,1,26.6-1.525Z" transform="translate(454.922 891.807)" fill="#00334e"/>
    <g id="Grupo_155309" data-name="Grupo 155309" transform="translate(478.976 896.892)">
      <path id="Trazado_195678" data-name="Trazado 195678" d="M-487.559,533.241a5.734,5.734,0,0,1-2.307-3.594,19.683,19.683,0,0,1-.124-3.133,2.106,2.106,0,0,0-.609-1.555,4.293,4.293,0,0,1-.881-2.267,11.564,11.564,0,0,1,.773-5.394c.92-2.421,3.513-3.585,6.313-2.9.81.2,1.622.4,2.441.557a6.9,6.9,0,0,1,5.2,8.88,2.635,2.635,0,0,1-.589,1.178,2.376,2.376,0,0,0-.666,2.2,6.79,6.79,0,0,1-.792,4.1c-.45.695-1.029,1.306-1.608,2.028.272.475.566,1.054.928,1.587a.927.927,0,0,0,.626.318,5.059,5.059,0,0,1,4.987,5.362c0,1.363.01,2.725,0,4.088-.009.853-.28,1.13-1.14,1.132q-9,.012-18,0c-.874,0-1.17-.318-1.176-1.2q-.016-2.083,0-4.167a5,5,0,0,1,4.527-5.143,1.641,1.641,0,0,0,1.524-1.048C-488,533.944-487.785,533.639-487.559,533.241Zm11.8,10.667c0-1.257.025-2.457-.006-3.655a3.17,3.17,0,0,0-2.725-3.084.684.684,0,0,0-.849.453,4.944,4.944,0,0,1-4.695,2.978,4.936,4.936,0,0,1-4.679-3,.677.677,0,0,0-.859-.425,3.093,3.093,0,0,0-2.663,2.631c-.131,1.341-.028,2.705-.028,4.1Zm-12.527-16.978.168.033c0,.5-.014,1,0,1.492a3.968,3.968,0,0,0,4.17,3.962,4.021,4.021,0,0,0,4.048-4.028c.012-.759.025-1.519,0-2.277a5.026,5.026,0,0,0-1.54-3.313.839.839,0,0,0-.739-.167,14.664,14.664,0,0,1-4.888,1.013.813.813,0,0,0-.623.423C-487.929,525.01-488.091,525.974-488.281,526.931Zm9.6-3.468a4.927,4.927,0,0,0-3.473-6.615q-1.289-.305-2.576-.612a3.413,3.413,0,0,0-4.547,2.735,8.585,8.585,0,0,0-.167,4.212c.468-1.26,1.424-1.391,2.587-1.5a20.11,20.11,0,0,0,4.234-.985,1.861,1.861,0,0,1,1.548.047A5.471,5.471,0,0,1-478.685,523.463Zm-5.487,15.455.1-.211a3.546,3.546,0,0,0,.47,0,3.311,3.311,0,0,0,2.531-1.765c.476-.831-.33-1.27-.539-1.89-.008-.024-.03-.044-.038-.068a1.042,1.042,0,0,0-1.5-.73,2.447,2.447,0,0,1-1.4.022c-1.158-.376-1.66.188-2.12,1.137-.535,1.1-.567,1.665.4,2.418A12.579,12.579,0,0,0-484.172,538.918Z" transform="translate(494.198 -476.796)" fill="#12263f"/>
      <path id="Trazado_195679" data-name="Trazado 195679" d="M-216.874,295.448a6.424,6.424,0,0,1-2.481-5.914c.048-.933.162-1.854-.782-2.591a2.379,2.379,0,0,1-.61-1.712,21.219,21.219,0,0,1,.351-4.434c.8-3.558,3.561-5.074,7.077-4.072.624.178,1.263.315,1.9.43a6.905,6.905,0,0,1,5.26,9.14,2.443,2.443,0,0,1-.556,1.022,2.228,2.228,0,0,0-.651,1.978,14.955,14.955,0,0,1-.142,2.658,5.741,5.741,0,0,1-2.293,3.51c.339.591.635,1.172,1,1.705a.911.911,0,0,0,.643.315,5.187,5.187,0,0,1,5.007,5.609c-.07,1.254-.005,2.515-.016,3.773-.008.882-.353,1.23-1.249,1.231q-8.923.008-17.845,0c-.916,0-1.218-.314-1.224-1.233-.009-1.467-.027-2.935,0-4.4a4.9,4.9,0,0,1,4.578-4.9,1.439,1.439,0,0,0,1.36-.922C-217.351,296.244-217.112,295.871-216.874,295.448Zm11.8,10.716c0-1.39.081-2.727-.023-4.049a3.078,3.078,0,0,0-2.374-2.636.947.947,0,0,0-1.3.565,4.82,4.82,0,0,1-4.492,2.79,4.985,4.985,0,0,1-4.558-2.579c-.571-.939-.888-1.062-1.912-.59a2.781,2.781,0,0,0-1.784,2.236c-.126,1.4-.031,2.811-.031,4.264Zm-12.554-17.015.171.034c0,.549-.023,1.1,0,1.648a4.02,4.02,0,0,0,4.179,3.811,3.94,3.94,0,0,0,4.025-3.856c.028-.836.036-1.675.005-2.511a4.785,4.785,0,0,0-1.514-3.243.837.837,0,0,0-.73-.176,13.789,13.789,0,0,1-4.806,1c-.436.016-.693.16-.781.584Q-217.355,287.794-217.63,289.148Zm9.637-3.389a5,5,0,0,0-3.68-6.731c-.817-.153-1.625-.359-2.431-.561a3.355,3.355,0,0,0-3.941,1.341,8.671,8.671,0,0,0-.727,5.629c.434-1.426,1.538-1.351,2.655-1.5a24.463,24.463,0,0,0,4.16-1,1.886,1.886,0,0,1,1.561.042A5.383,5.383,0,0,1-207.993,285.759Zm-5.443,15.383a3.745,3.745,0,0,0,3.045-2.026,1.083,1.083,0,0,0,.036-.793,12.462,12.462,0,0,0-.973-1.7.757.757,0,0,0-.566-.229,8.475,8.475,0,0,1-2.02.073c-1.131-.278-1.6.237-2.044,1.143-.588,1.2-.6,1.708.472,2.518A11.792,11.792,0,0,0-213.436,301.142Z" transform="translate(266.085 -276.422)" fill="#12263f"/>
      <path id="Trazado_195680" data-name="Trazado 195680" d="M-362.154,422.929q0-6.016,0-12.032c0-1.242.242-1.492,1.45-1.493,4.089,0,8.179-.022,12.267.023a2.414,2.414,0,0,1,1.442.587c1.567,1.391,3.088,2.837,4.582,4.307a1.8,1.8,0,0,1,.512,1.144c.031,6.632.024,13.264.02,19.9,0,.919-.313,1.249-1.215,1.25q-8.925.012-17.851,0c-.9,0-1.206-.332-1.207-1.259Q-362.16,429.142-362.154,422.929Zm1.914,11.757h16.418V416.11c-1.307,0-2.56,0-3.812,0-1.019-.005-1.292-.28-1.3-1.311-.008-1.144,0-2.289,0-3.449H-360.24Zm13.259-22.1v1.57h1.7Z" transform="translate(382.93 -388.477)" fill="#12263f"/>
      <path id="Trazado_195681" data-name="Trazado 195681" d="M-448.345,338.651v16.823c.576-.57,1.035-1.012,1.481-1.467s.956-.6,1.447-.128.347,1-.093,1.447q-1.519,1.538-3.059,3.056a.963.963,0,0,1-1.515-.021c-1.021-1.017-2.036-2.04-3.057-3.058a.917.917,0,0,1-.113-1.391.911.911,0,0,1,1.446.065c.452.457.879.938,1.317,1.409l.214-.116v-.823q0-8.06,0-16.121c0-1.348.214-1.566,1.531-1.566h26.579c1.122,0,1.588.285,1.57.954s-.485.937-1.613.937h-26.134Z" transform="translate(459.925 -327.267)" fill="#12263f"/>
      <path id="Trazado_195682" data-name="Trazado 195682" d="M-301.965,518.683c-.432.487-.853.984-1.3,1.458a.905.905,0,0,1-1.442.07.906.906,0,0,1,.106-1.389c1.012-1.027,2.034-2.044,3.055-3.062a.962.962,0,0,1,1.515-.023c1.046,1.03,2.077,2.075,3.111,3.117a.9.9,0,0,1,.052,1.388.9.9,0,0,1-1.389-.076c-.453-.464-.872-.961-1.305-1.443l-.215.111c-.012.271-.034.542-.034.812q0,8.063,0,16.125c0,1.383-.206,1.586-1.591,1.586h-23.834c-.236,0-.534.084-.695-.027-.33-.229-.767-.536-.817-.863-.041-.274.357-.686.656-.913.191-.145.554-.083.84-.083q11.249-.005,22.5,0h1v-16.6Z" transform="translate(353.096 -477.784)" fill="#12263f"/>
      <path id="Trazado_195683" data-name="Trazado 195683" d="M-332.727,491.8c-1.757,0-3.513,0-5.27,0-.861,0-1.268-.313-1.269-.94s.413-.945,1.264-.946q5.27-.005,10.54,0c.855,0,1.266.315,1.268.94s-.415.942-1.263.944C-329.214,491.8-330.971,491.8-332.727,491.8Z" transform="translate(363.642 -456.319)" fill="#12263f"/>
      <path id="Trazado_195684" data-name="Trazado 195684" d="M-332.783,467.635q-2.674,0-5.348,0c-.58,0-1.043-.191-1.14-.835s.34-1.045,1.137-1.048c2.543-.009,5.086,0,7.628,0,1.075,0,2.15.006,3.224,0,.613,0,1.037.248,1.063.892.029.7-.437.985-1.06.992-1.835.019-3.67.007-5.505.007Z" transform="translate(363.657 -435.96)" fill="#12263f"/>
      <path id="Trazado_195685" data-name="Trazado 195685" d="M-332.757,515.949c-1.757,0-3.513-.008-5.27,0-.654,0-1.159-.157-1.2-.913-.036-.628.4-.974,1.236-.976q5.309-.012,10.618-.006c.637,0,1.162.18,1.2.934.036.642-.371.949-1.238.952-1.783.005-3.566,0-5.349,0Z" transform="translate(363.613 -476.67)" fill="#12263f"/>
      <path id="Trazado_195686" data-name="Trazado 195686" d="M-332.7,540.334c-1.756,0-3.511.005-5.267,0-.874,0-1.264-.3-1.267-.933s.386-.938,1.262-.94q5.307-.012,10.614,0c.795,0,1.208.332,1.188.937-.024.763-.54.942-1.184.942Z" transform="translate(363.618 -497.226)" fill="#12263f"/>
      <path id="Trazado_195687" data-name="Trazado 195687" d="M-335.282,441.377c.941,0,1.881,0,2.822,0,.63,0,1.079.229,1.124.92.039.607-.374.957-1.157.961-1.881.01-3.763,0-5.644,0-.614,0-1.093-.2-1.121-.914-.025-.619.368-.95,1.154-.962.941-.014,1.882,0,2.822,0Z" transform="translate(363.637 -415.418)" fill="#12263f"/>
    </g>
    <path id="Trazado_196764" data-name="Trazado 196764" d="M63.235,0A63.235,63.235,0,1,1,0,63.235,63.235,63.235,0,0,1,63.235,0Z" transform="translate(621.522 981.613) rotate(-77.04)" fill="#f6f6f4"/>
    <path id="Trazado_196765" data-name="Trazado 196765" d="M52.724,0A52.724,52.724,0,1,1,0,52.724,52.724,52.724,0,0,1,52.724,0Z" transform="translate(633.746 973.118) rotate(-76.489)" fill="#e5e5e5"/>
    <path id="Trazado_196752" data-name="Trazado 196752" d="M12.118-6.761a8.284,8.284,0,0,1-1.4,5.188A4.9,4.9,0,0,1,6.6.225,4.934,4.934,0,0,1,2.516-1.539,8.041,8.041,0,0,1,1.067-6.592V-9.6a8.175,8.175,0,0,1,1.421-5.2,4.937,4.937,0,0,1,4.094-1.774,4.941,4.941,0,0,1,4.088,1.758,8.016,8.016,0,0,1,1.449,5.048ZM8.872-10.07a5.988,5.988,0,0,0-.556-2.962,1.879,1.879,0,0,0-1.735-.927,1.845,1.845,0,0,0-1.69.882,5.6,5.6,0,0,0-.578,2.76v3.979a6.285,6.285,0,0,0,.545,2.973A1.854,1.854,0,0,0,6.6-2.392a1.823,1.823,0,0,0,1.718-.933,6.135,6.135,0,0,0,.55-2.855Zm8.737.457h1.729a2.437,2.437,0,0,0,1.831-.618,2.263,2.263,0,0,0,.6-1.64,2,2,0,0,0-.59-1.539,2.285,2.285,0,0,0-1.623-.55,2.4,2.4,0,0,0-1.561.511,1.634,1.634,0,0,0-.629,1.331H14.117a3.991,3.991,0,0,1,.691-2.3A4.6,4.6,0,0,1,16.739-16a6.447,6.447,0,0,1,2.735-.573,6.114,6.114,0,0,1,4.065,1.241,4.234,4.234,0,0,1,1.471,3.42,3.441,3.441,0,0,1-.685,2.066,4.451,4.451,0,0,1-1.8,1.449,4.063,4.063,0,0,1,2.061,1.482,4.021,4.021,0,0,1,.679,2.336,4.3,4.3,0,0,1-1.589,3.493A6.389,6.389,0,0,1,19.474.225a6.058,6.058,0,0,1-4-1.292,4.218,4.218,0,0,1-1.555-3.414H17.16a1.88,1.88,0,0,0,.691,1.5,2.545,2.545,0,0,0,1.7.584A2.557,2.557,0,0,0,21.366-3a2.113,2.113,0,0,0,.657-1.623q0-2.448-2.7-2.448H17.609Zm10.2,8.019a1.634,1.634,0,0,1,.522-1.258,1.853,1.853,0,0,1,1.308-.483,1.868,1.868,0,0,1,1.32.483,1.634,1.634,0,0,1,.522,1.258,1.612,1.612,0,0,1-.517,1.241,1.876,1.876,0,0,1-1.325.477,1.861,1.861,0,0,1-1.314-.477A1.612,1.612,0,0,1,27.807-1.595Z" transform="translate(640.763 892.806)" fill="#00334e"/>
    <g id="Grupo_155310" data-name="Grupo 155310" transform="translate(661.343 905.59)">
      <path id="Trazado_195688" data-name="Trazado 195688" d="M74.269,430.877l-4.656-3.5c-.943-.709-1.03-1.257-.342-2.223,1.688-2.37,3.388-4.731,5.059-7.113a1.875,1.875,0,0,0,.324-.989c.03-1.9.013-3.81.016-5.716,0-.308.006-.532-.4-.667a5.694,5.694,0,0,1-4.26-5.664c-.066-2.866-.041-5.737.034-8.6a5.621,5.621,0,0,1,3.977-5.136.778.778,0,0,0,.661-.937,1.371,1.371,0,0,1,1.29-1.7c.889-.087,1.792-.028,2.833-.028a7.145,7.145,0,0,1-1.306-7.206,6.782,6.782,0,0,1,2.946-3.529A7.057,7.057,0,0,1,89.07,378.9a7.153,7.153,0,0,1,.354,9.649c.222.017.4.043.575.044,1.8,0,3.6.025,5.4-.01a1.64,1.64,0,0,1,1.614.8v16.058a1.694,1.694,0,0,1-1.69.781c-.9-.05-1.8-.025-2.7,0-.167,0-.443.138-.476.263a6.105,6.105,0,0,1-2.95,3.738c.115.239.212.448.315.654,1.6,3.21,3.218,6.414,4.793,9.637a3.722,3.722,0,0,1,.361,1.528c.037,2.354,0,4.709.028,7.063a1.922,1.922,0,0,1-.768,1.772H87.244a1.6,1.6,0,0,1-.82-1.6q.034-3.467,0-6.934a2.493,2.493,0,0,0-.234-1.039c-.955-1.957-1.939-3.9-2.917-5.844-.068-.136-.16-.261-.241-.391a27.3,27.3,0,0,0-.1,3.409,3.009,3.009,0,0,1-.548,1.856c-2.157,3.187-4.275,6.4-6.425,9.593a7.478,7.478,0,0,1-.913.951Zm20.386-39.893H77.1V403.81h6.977v-3.448h2.389v3.465c.266.012.474.03.683.03,2.268,0,4.536-.017,6.8.014.564.008.722-.143.719-.714-.025-3.829-.013-7.658-.013-11.487Zm-15.252-7.1a4.689,4.689,0,1,0,4.731-4.661A4.753,4.753,0,0,0,79.4,383.885ZM74.668,393.6a3.328,3.328,0,0,0-2.314,3.176c-.037,2.74-.052,5.481,0,8.22a3.475,3.475,0,0,0,3.676,3.54c3.447.01,6.893,0,10.34.006a3.331,3.331,0,0,0,2.443-.947,11.4,11.4,0,0,0,1.02-1.384H76.318c-1.256,0-1.648-.389-1.649-1.643q0-5.106,0-10.211Zm2.4,17.366c0,1.847-.076,3.624.024,5.392a5.092,5.092,0,0,1-1.163,3.593c-1.486,1.925-2.848,3.946-4.3,5.974l2.741,2.053c.1-.117.155-.177.2-.245q2.9-4.344,5.794-8.7a1.374,1.374,0,0,0,.189-.716c.014-2.289.009-4.578.006-6.866,0-.163-.029-.326-.045-.489Zm6.612-.058c.172.372.263.585.366.792,1.3,2.6,2.56,5.213,3.911,7.782a6.651,6.651,0,0,1,.846,3.544c-.078,1.536-.018,3.079-.018,4.619v.837h3.447a2.006,2.006,0,0,0,.048-.288c0-2.053.006-4.107,0-6.16a1.287,1.287,0,0,0-.125-.551q-2.555-5.133-5.131-10.255c-.066-.131-.225-.3-.344-.305C85.72,410.9,84.763,410.908,83.679,410.908Z" transform="translate(-31.27 -373.377)" fill="#12263f"/>
      <path id="Trazado_195691" data-name="Trazado 195691" d="M-4.628,780.976v-2.312h2.441v2.313Z" transform="translate(32.724 -723.476)" fill="#12263f"/>
      <path id="Trazado_195692" data-name="Trazado 195692" d="M-40.56,780.943v-2.318h2.312v2.318Z" transform="translate(64.031 -723.443)" fill="#12263f"/>
      <path id="Trazado_195693" data-name="Trazado 195693" d="M32.3,780.953v-2.316h2.312v2.316Z" transform="translate(0.546 -723.453)" fill="#12263f"/>
      <path id="Trazado_195694" data-name="Trazado 195694" d="M-220.662,388.18h-2.246v-2.347c.216-.01.441-.031.665-.031q19.074,0,38.147,0a4.238,4.238,0,0,1,4.331,2.668,4.136,4.136,0,0,1-4.083,5.6c-2.333.028-4.667.006-7,.006h-.763a4.164,4.164,0,0,1-.819,4.649,4.2,4.2,0,0,1,.049,5.844,10.767,10.767,0,0,1,.871,1.541,4.108,4.108,0,0,1-3.911,5.574c-1.155.032-2.312.006-3.468.006h-24v-2.377h2.23Zm7.147,21.078c.239.012.447.03.655.031q8.572,0,17.145,0c.193,0,.386,0,.577-.016a1.671,1.671,0,0,0,1.51-1.566,1.739,1.739,0,0,0-1.907-1.912c-2.547-.012-5.094,0-7.641,0h-.96V403.44h.732q3.756,0,7.513,0a4.976,4.976,0,0,0,.957-.076,1.65,1.65,0,0,0,1.308-1.543c.064-1.155-.68-1.881-1.992-1.889-2.29-.014-4.581.008-6.871-.015a.82.82,0,0,0-.91.562,4.054,4.054,0,0,1-4.365,2.337,3.959,3.959,0,0,1-3.356-3.549c-.131-2.067-.069-4.146-.086-6.219,0-.054.057-.108.083-.155h2.294v.735c0,1.691-.008,3.382,0,5.073a1.751,1.751,0,0,0,1.708,1.8,1.763,1.763,0,0,0,1.773-1.806c.013-2.333.023-4.666,0-7a3.349,3.349,0,0,0-2.956-3.42c-1.712-.158-3.45-.034-5.213-.034Zm9.582-21.05a26.756,26.756,0,0,1,.868,2.784c.108.526.222.7.777.7,5.565-.022,11.131-.013,16.7-.013.685,0,1.371.019,2.055-.008a1.719,1.719,0,0,0,1.5-2.486,1.8,1.8,0,0,0-1.788-1q-9.825.012-19.651.005C-203.66,388.188-203.843,388.2-203.934,388.209Zm-12.01,21.049v-21.02h-2.234v21.02Zm13.02-11.694c2.6,0,5.136.031,7.674-.03a2.108,2.108,0,0,0,1.251-.657,1.531,1.531,0,0,0,.225-1.794,1.615,1.615,0,0,0-1.577-1q-3.591,0-7.182,0a3.124,3.124,0,0,0-.389.051Z" transform="translate(222.908 -381.18)" fill="#12263f"/>
      <path id="Trazado_195695" data-name="Trazado 195695" d="M123.649,353.357V349.9h2.315v3.453Z" transform="translate(-79.042 -349.904)" fill="#12263f"/>
    </g>
    <path id="Trazado_196766" data-name="Trazado 196766" d="M63.235,0A63.235,63.235,0,1,1,0,63.235,63.235,63.235,0,0,1,63.235,0Z" transform="translate(792.992 934.172) rotate(-45)" fill="#f6f6f4"/>
    <path id="Trazado_196767" data-name="Trazado 196767" d="M52.724,0A52.724,52.724,0,1,1,0,52.724,52.724,52.724,0,0,1,52.724,0Z" transform="translate(807.857 934.172) rotate(-45)" fill="#e5e5e5"/>
    <path id="Trazado_196753" data-name="Trazado 196753" d="M11.591-6.467A7.923,7.923,0,0,1,10.248-1.5,4.687,4.687,0,0,1,6.316.215a4.72,4.72,0,0,1-3.91-1.687A7.691,7.691,0,0,1,1.021-6.306V-9.185a7.819,7.819,0,0,1,1.359-4.974,4.722,4.722,0,0,1,3.916-1.7,4.726,4.726,0,0,1,3.91,1.681,7.668,7.668,0,0,1,1.386,4.829Zm-3.1-3.165a5.727,5.727,0,0,0-.532-2.833,1.8,1.8,0,0,0-1.66-.887,1.765,1.765,0,0,0-1.617.844,5.36,5.36,0,0,0-.553,2.64v3.806a6.012,6.012,0,0,0,.521,2.844,1.773,1.773,0,0,0,1.67.93A1.743,1.743,0,0,0,7.96-3.181a5.868,5.868,0,0,0,.526-2.731ZM22.87-5.887h1.772v2.5H22.87V0h-3.1V-3.384H13.353l-.14-1.955,6.521-10.3H22.87Zm-6.563,0h3.459v-5.521l-.2.354ZM26.6-1.525a1.563,1.563,0,0,1,.5-1.2,1.772,1.772,0,0,1,1.251-.462,1.787,1.787,0,0,1,1.262.462,1.563,1.563,0,0,1,.5,1.2,1.542,1.542,0,0,1-.494,1.187,1.794,1.794,0,0,1-1.268.457,1.78,1.78,0,0,1-1.257-.457A1.542,1.542,0,0,1,26.6-1.525Z" transform="translate(822.022 891.807)" fill="#00334e"/>
    <g id="Grupo_155311" data-name="Grupo 155311" transform="translate(864.188 903.078)">
      <path id="Trazado_195696" data-name="Trazado 195696" d="M-143.2-539.534a20.813,20.813,0,0,1,2.134.562,9.614,9.614,0,0,1,6.4,7.668c.146.761-.1,1.239-.636,1.326s-.9-.234-1-.855a7.873,7.873,0,0,0-5.422-6.584,8.053,8.053,0,0,0-10.44,5.7,8.077,8.077,0,0,0,6.468,9.895,8.052,8.052,0,0,0,8.939-5.089c.337-.9.657-1.16,1.2-.971.6.207.7.652.359,1.586a9.742,9.742,0,0,1-10.761,6.143c-.176-.032-.356-.041-.582-.066v.694q0,14.344.01,28.688a1.629,1.629,0,0,1-.569,1.308c-2.343,2.161-4.66,4.349-7.012,6.5a1.673,1.673,0,0,1-1.025.414c-5.837.025-11.673.018-17.51.017-.677,0-1.033-.275-1.037-.805a.782.782,0,0,1,.711-.847,3.194,3.194,0,0,1,.555-.011h16.665v-3.26c0-.686,0-1.371,0-2.057a1.522,1.522,0,0,1,1.682-1.687c1.925,0,3.851,0,5.86,0,0-.225,0-.42,0-.615q0-14.205,0-28.41a.67.67,0,0,0-.4-.734,9.726,9.726,0,0,1-4.759-12.425c.059-.149.109-.3.177-.49h-27.568v49.679h.524c1.167,0,2.335,0,3.5,0,.616,0,.967.3.975.817s-.341.841-.946.843c-1.353.006-2.705.009-4.058,0a1.655,1.655,0,0,1-1.7-1.674c0-.111,0-.222,0-.333q0-24.491,0-48.981a3.121,3.121,0,0,1,.085-.878,1.687,1.687,0,0,1,1.807-1.169q13.841,0,27.682.008a1.41,1.41,0,0,0,1.218-.54,9.414,9.414,0,0,1,5.89-3.257,1,1,0,0,0,.242-.107Zm-6.334,49.957h-4.495v4.182Z" transform="translate(182.462 539.534)" fill="#12263f"/>
      <path id="Trazado_195697" data-name="Trazado 195697" d="M-109.348-379.508h9.667c.148,0,.3-.006.444,0a.893.893,0,0,1,.936.833.9.9,0,0,1-.958.867c-.129.007-.259,0-.389,0h-19.445c-.917,0-1.3-.245-1.31-.836-.012-.615.378-.87,1.332-.87Z" transform="translate(127.317 397.338)" fill="#12263f"/>
      <path id="Trazado_195698" data-name="Trazado 195698" d="M-109.346-232.773h9.667c.148,0,.3-.006.444,0a.891.891,0,0,1,.934.834.892.892,0,0,1-.9.865c-.147.012-.3,0-.444,0h-19.445c-.913,0-1.3-.248-1.308-.84-.01-.611.382-.866,1.334-.866Z" transform="translate(127.316 266.949)" fill="#12263f"/>
      <path id="Trazado_195699" data-name="Trazado 195699" d="M-109.375-304.28q-5.028,0-10.055,0c-.611,0-.969-.308-.978-.816-.009-.528.358-.838,1-.846.13,0,.259,0,.389,0h13.889c1.963,0,3.926,0,5.889,0a.85.85,0,0,1,.935.813c.01.493-.374.834-.959.848-.13,0-.259,0-.389,0Z" transform="translate(127.321 331.968)" fill="#12263f"/>
      <path id="Trazado_195700" data-name="Trazado 195700" d="M-109.064-194.48q-4.917,0-9.833,0c-.221,0-.521.049-.645-.07-.229-.22-.5-.56-.481-.827s.36-.535.612-.737c.117-.094.357-.041.542-.041q9.833,0,19.666,0c.13,0,.26-.007.389,0a.871.871,0,0,1,.85.856.832.832,0,0,1-.878.811c-1.7.013-3.407.006-5.111.007Z" transform="translate(126.98 234.423)" fill="#12263f"/>
      <path id="Trazado_195701" data-name="Trazado 195701" d="M-109.365-341.13h-9.556c-.13,0-.259,0-.389,0-.746-.013-1.119-.308-1.1-.869.018-.533.394-.818,1.1-.818q4.333,0,8.666,0h11.055a2.646,2.646,0,0,1,.554.019.805.805,0,0,1,.716.855.777.777,0,0,1-.77.8c-.2.018-.407.018-.61.018Z" transform="translate(127.323 364.737)" fill="#12263f"/>
      <path id="Trazado_195702" data-name="Trazado 195702" d="M-109.042-267.745q-4.917,0-9.833,0c-.236,0-.55.022-.688-.111a1.251,1.251,0,0,1-.454-.834c.032-.26.381-.517.645-.7.142-.1.4-.041.6-.041q9.75,0,19.5,0c.891,0,1.311.269,1.314.834s-.429.854-1.3.854Z" transform="translate(126.977 299.537)" fill="#12263f"/>
      <path id="Trazado_195703" data-name="Trazado 195703" d="M129.824-483.279c.87-.848,1.617-1.588,2.378-2.313a.823.823,0,0,1,1.456.366,1.2,1.2,0,0,1-.3.831c-.562.638-1.183,1.225-1.78,1.833-.139.142-.272.29-.514.55.772.727,1.544,1.419,2.267,2.158a1.119,1.119,0,0,1,.324.817.972.972,0,0,1-.57.648,1.034,1.034,0,0,1-.836-.224c-.647-.579-1.235-1.225-1.848-1.843-.14-.142-.289-.275-.426-.405-.765.747-1.508,1.465-2.242,2.192a.844.844,0,0,1-1.187.184.814.814,0,0,1-.024-1.337c.752-.738,1.531-1.448,2.4-2.263-.866-.829-1.636-1.52-2.343-2.27a1.254,1.254,0,0,1-.327-.92.817.817,0,0,1,1.438-.321c.6.578,1.179,1.178,1.755,1.78A4.225,4.225,0,0,1,129.824-483.279Z" transform="translate(-91.803 491.869)" fill="#12263f"/>
      <path id="Trazado_195704" data-name="Trazado 195704" d="M-26.2-153.334a7.254,7.254,0,0,1-3.216,1.837.869.869,0,0,1-1.161-.534.847.847,0,0,1,.7-1.067,5.494,5.494,0,0,0,3.528-2.9.833.833,0,0,1,1.093-.5.857.857,0,0,1,.517,1.043c-.042.283-.039.572-.065,1.01.351-.266.579-.435.8-.609a.839.839,0,0,1,1.117-.041,1.063,1.063,0,0,0,1.418-.04.819.819,0,0,1,1.189.107.823.823,0,0,1-.172,1.223,2.738,2.738,0,0,1-2.55.542,1,1,0,0,0-.688.106A1.693,1.693,0,0,1-26.2-153.334Z" transform="translate(47.53 199.233)" fill="#12263f"/>
      <path id="Trazado_195705" data-name="Trazado 195705" d="M-117.108-451.031c-.8,0-1.59.007-2.386,0a.825.825,0,0,1-.915-.818.819.819,0,0,1,.895-.84q2.413-.013,4.827,0a.85.85,0,0,1,.928.819.857.857,0,0,1-.963.84C-115.517-451.026-116.312-451.031-117.108-451.031Z" transform="translate(127.321 462.371)" fill="#12263f"/>
      <path id="Trazado_195706" data-name="Trazado 195706" d="M-117.065-415.963c.777,0,1.553-.007,2.33,0,.6.007.976.337.978.823a.878.878,0,0,1-.969.848q-2.358.014-4.715,0c-.6,0-.959-.331-.964-.839s.342-.825.955-.833C-118.655-415.97-117.86-415.963-117.065-415.963Z" transform="translate(127.319 429.732)" fill="#12263f"/>
    </g>
    <path id="Trazado_196768" data-name="Trazado 196768" d="M63.235,0A63.235,63.235,0,1,1,0,63.235,63.235,63.235,0,0,1,63.235,0Z" transform="matrix(0.163, -0.987, 0.987, 0.163, 994.839, 986.288)" fill="#f6f6f4"/>
    <path id="Trazado_196769" data-name="Trazado 196769" d="M52.724,0A52.724,52.724,0,1,1,0,52.724,52.724,52.724,0,0,1,52.724,0Z" transform="translate(992.948 934.172) rotate(-45)" fill="#e5e5e5"/>
    <path id="Trazado_196754" data-name="Trazado 196754" d="M11.591-6.467A7.923,7.923,0,0,1,10.248-1.5,4.687,4.687,0,0,1,6.316.215a4.72,4.72,0,0,1-3.91-1.687A7.691,7.691,0,0,1,1.021-6.306V-9.185a7.819,7.819,0,0,1,1.359-4.974,4.722,4.722,0,0,1,3.916-1.7,4.726,4.726,0,0,1,3.91,1.681,7.668,7.668,0,0,1,1.386,4.829Zm-3.1-3.165a5.727,5.727,0,0,0-.532-2.833,1.8,1.8,0,0,0-1.66-.887,1.765,1.765,0,0,0-1.617.844,5.36,5.36,0,0,0-.553,2.64v3.806a6.012,6.012,0,0,0,.521,2.844,1.773,1.773,0,0,0,1.67.93A1.743,1.743,0,0,0,7.96-3.181a5.868,5.868,0,0,0,.526-2.731Zm5.661,1.941.9-7.949h8.766v2.589H17.6l-.387,3.362a4.922,4.922,0,0,1,2.353-.591,4.508,4.508,0,0,1,3.5,1.386,5.535,5.535,0,0,1,1.268,3.878A5.671,5.671,0,0,1,23.692-2.3,4.511,4.511,0,0,1,21.86-.446a5.718,5.718,0,0,1-2.814.661A6.072,6.072,0,0,1,16.414-.36,4.668,4.668,0,0,1,14.5-1.977a4.406,4.406,0,0,1-.747-2.374h3.072a2.3,2.3,0,0,0,.682,1.52,2.163,2.163,0,0,0,1.531.542,1.909,1.909,0,0,0,1.622-.757,3.508,3.508,0,0,0,.569-2.143,2.9,2.9,0,0,0-.655-2.041,2.4,2.4,0,0,0-1.858-.709,2.687,2.687,0,0,0-1.794.58l-.3.279ZM26.6-1.525a1.563,1.563,0,0,1,.5-1.2,1.772,1.772,0,0,1,1.251-.462,1.787,1.787,0,0,1,1.262.462,1.563,1.563,0,0,1,.5,1.2,1.542,1.542,0,0,1-.494,1.187,1.794,1.794,0,0,1-1.268.457,1.78,1.78,0,0,1-1.257-.457A1.542,1.542,0,0,1,26.6-1.525Z" transform="translate(1007.209 891.807)" fill="#00334e"/>
    <g id="Grupo_155312" data-name="Grupo 155312" transform="translate(1038.209 902.99)">
      <path id="Trazado_195707" data-name="Trazado 195707" d="M-214.587-1669.671h1.311a.9.9,0,0,0,.181.124,2.926,2.926,0,0,1,2.09,2.925c.005.287,0,.575,0,.854h19.669c0-.284,0-.537,0-.79a3.134,3.134,0,0,1,2.371-3.113h1.192a3.218,3.218,0,0,1,2.379,3.585,1.821,1.821,0,0,0,.063.374h5.833v.875c0,9.372.014,18.745-.016,28.117a6.2,6.2,0,0,0,.8,3.638,3.48,3.48,0,0,1,.314.768,14.908,14.908,0,0,1,.841,5.974h-1.963v3.931h-11.754v11.72h6.82v-2.676a6.128,6.128,0,0,1-.743-.577c-.364-.393-.692-.818-1.035-1.23l-3.883-4.664,1.529-1.265c1.449,1.738,2.853,3.409,4.238,5.1a1.1,1.1,0,0,0,.948.458c3.376-.018,6.751-.01,10.127-.01h.6v-2.938h-1.876v-1.983h3.89c0-.612.033-1.167-.017-1.714a.855.855,0,0,0-.364-.569,3.017,3.017,0,0,1-1.592-2.738q0-2.145,0-4.289c0-.17.026-.339.038-.49h5.9c0,1.575-.005,3.1,0,4.629a3.059,3.059,0,0,1-1.685,2.924.58.58,0,0,0-.293.375c-.031.608-.014,1.219-.014,1.9h3.9v1.97h-1.872v2.914h4.858v2.026h-1.892v2.86h1.892v2.026h-36.4v-2h4.858v-11.775H-222.76v-43.339h5.781a13.465,13.465,0,0,1,.182-1.705A3.163,3.163,0,0,1-214.587-1669.671Zm31.15,13.8v.74q0,7.686,0,15.372c0,.231-.023.547.109.677.556.55,1.166,1.045,1.8,1.6v-26.214H-185.4c0,.973.009,1.9,0,2.834a2.9,2.9,0,0,1-1.02,2.262,2.809,2.809,0,0,1-3.11.488,2.869,2.869,0,0,1-1.8-2.718c-.036-.947-.007-1.9-.007-2.866h-19.681c0,1.051.029,2.061-.006,3.069a2.926,2.926,0,0,1-3.647,2.675,3,3,0,0,1-2.255-3.111c-.016-.868,0-1.737,0-2.635h-3.838v39.259h27.435v-1.93h-25.513v-29.5Zm-2,1.981h-31.4v25.483c.074.032.11.06.145.06,3.1.006,6.195,0,9.292.02.424,0,.415-.263.444-.544a14.452,14.452,0,0,1,4.066-8.722c.151-.158.295-.323.555-.609h-2.732v-5.845h7.884v2.751l1.942-.557v-2.179h7.865c0,.806-.011,1.56.008,2.313,0,.176.061.448.178.507.557.277,1.144.5,1.75.748Zm-11.727,25.5h9.735a18.448,18.448,0,0,0-4.872-11.359A18.514,18.514,0,0,0-197.168-1628.387Zm2.26-11.4a12.568,12.568,0,0,0-10.085,11.427h5.829a21.842,21.842,0,0,1,1.245-6.02A21.048,21.048,0,0,1-194.908-1639.789Zm15.315,11.426c-.4-6.354-5.685-10.82-10.077-11.4a19.89,19.89,0,0,1,4.174,11.018c.024.393.253.416.563.415,1.608-.009,3.215,0,4.823-.005C-179.938-1628.334-179.765-1628.353-179.592-1628.363Zm-2.807,17.67h16.639v-2.828H-182.4Zm-8.862-15.625v1.886h9.756v-1.886Zm3.859-37.428c0-.951.008-1.9,0-2.852-.008-.671-.359-1.054-.938-1.064-.6-.01-.98.386-.984,1.083q-.015,2.823,0,5.645a.946.946,0,0,0,.943,1.065c.6.01.972-.388.98-1.084C-187.394-1661.884-187.4-1662.815-187.4-1663.746Zm-25.587.037c0-.951.013-1.9,0-2.853-.013-.723-.364-1.1-.963-1.1s-.97.4-.977,1.106q-.026,2.793,0,5.587c.007.7.4,1.1.982,1.1s.945-.393.958-1.108C-212.977-1661.887-212.989-1662.8-212.99-1663.71Zm9.886,23.56c1.14,0,2.21.027,3.277-.022a.8.8,0,0,0,.592-.478,7.425,7.425,0,0,0,.028-1.41h-3.9Zm32.484,11.847c0,1.031-.017,2,.007,2.969a.922.922,0,0,0,.919.909.876.876,0,0,0,.958-.8c.059-1.019.017-2.043.017-3.081Zm1.9,9.873H-170.6v2.823h1.879Z" transform="translate(222.76 1669.671)" fill="#12263f"/>
      <path id="Trazado_195708" data-name="Trazado 195708" d="M-156.965-1521.1h7.787v5.833h-7.787Zm5.8,3.865v-1.891h-3.8v1.891Z" transform="translate(164.822 1538.842)" fill="#12263f"/>
      <path id="Trazado_195709" data-name="Trazado 195709" d="M-149.106-1449.213H-156.9v-5.835h7.791Zm-5.8-1.975h3.8v-1.9h-3.8Z" transform="translate(164.762 1480.676)" fill="#12263f"/>
      <path id="Trazado_195710" data-name="Trazado 195710" d="M-157.008-1389.221h7.8v5.844h-7.8Zm2,3.877h3.805v-1.9h-3.805Z" transform="translate(164.859 1422.709)" fill="#12263f"/>
      <path id="Trazado_195711" data-name="Trazado 195711" d="M-66.687-1521.076v5.83H-74.51v-5.83Zm-5.872,3.853h3.851v-1.869H-72.56Z" transform="translate(92.213 1538.82)" fill="#12263f"/>
      <path id="Trazado_195712" data-name="Trazado 195712" d="M7.789-1521.095h7.8v5.833h-7.8Zm1.994,3.851h3.843v-1.874H9.783Z" transform="translate(19.741 1538.836)" fill="#12263f"/>
    </g>
    <path id="Trazado_196770" data-name="Trazado 196770" d="M63.235,0A63.235,63.235,0,1,1,0,63.235,63.235,63.235,0,0,1,63.235,0Z" transform="matrix(0.163, -0.987, 0.987, 0.163, 1179.321, 986.288)" fill="#f6f6f4"/>
    <path id="Trazado_196771" data-name="Trazado 196771" d="M52.724,0A52.724,52.724,0,1,1,0,52.724,52.724,52.724,0,0,1,52.724,0Z" transform="translate(1177.431 934.172) rotate(-45)" fill="#e5e5e5"/>
    <path id="Trazado_196755" data-name="Trazado 196755" d="M11.591-6.467A7.923,7.923,0,0,1,10.248-1.5,4.687,4.687,0,0,1,6.316.215a4.72,4.72,0,0,1-3.91-1.687A7.691,7.691,0,0,1,1.021-6.306V-9.185a7.819,7.819,0,0,1,1.359-4.974,4.722,4.722,0,0,1,3.916-1.7,4.726,4.726,0,0,1,3.91,1.681,7.668,7.668,0,0,1,1.386,4.829Zm-3.1-3.165a5.727,5.727,0,0,0-.532-2.833,1.8,1.8,0,0,0-1.66-.887,1.765,1.765,0,0,0-1.617.844,5.36,5.36,0,0,0-.553,2.64v3.806a6.012,6.012,0,0,0,.521,2.844,1.773,1.773,0,0,0,1.67.93A1.743,1.743,0,0,0,7.96-3.181a5.868,5.868,0,0,0,.526-2.731ZM22.107-15.8v2.557h-.3a5.274,5.274,0,0,0-3.389,1.1A4.452,4.452,0,0,0,16.876-9.2a4.228,4.228,0,0,1,3.147-1.268A3.984,3.984,0,0,1,23.268-9a5.856,5.856,0,0,1,1.2,3.846A5.761,5.761,0,0,1,23.81-2.4,4.738,4.738,0,0,1,21.941-.473a5.43,5.43,0,0,1-2.734.688A5.072,5.072,0,0,1,15.216-1.5,6.672,6.672,0,0,1,13.7-6.091V-7.208a10.04,10.04,0,0,1,.961-4.5,7.05,7.05,0,0,1,2.761-3.019,8.09,8.09,0,0,1,4.173-1.08ZM19.078-7.96a2.48,2.48,0,0,0-1.364.391,2.358,2.358,0,0,0-.9,1.035v.943a4.18,4.18,0,0,0,.612,2.429,1.979,1.979,0,0,0,1.719.874,1.957,1.957,0,0,0,1.617-.788,3.214,3.214,0,0,0,.618-2.043,3.208,3.208,0,0,0-.623-2.059A2.031,2.031,0,0,0,19.078-7.96ZM26.6-1.525a1.563,1.563,0,0,1,.5-1.2,1.772,1.772,0,0,1,1.251-.462,1.787,1.787,0,0,1,1.262.462,1.563,1.563,0,0,1,.5,1.2,1.542,1.542,0,0,1-.494,1.187,1.794,1.794,0,0,1-1.268.457,1.78,1.78,0,0,1-1.257-.457A1.542,1.542,0,0,1,26.6-1.525Z" transform="translate(1191.691 891.807)" fill="#00334e"/>
    <path id="Trazado_195713" data-name="Trazado 195713" d="M-242.346-2479.713a9.908,9.908,0,0,1,6.852,3.2,9.821,9.821,0,0,1,1.749,10.632,10.824,10.824,0,0,1-2.434,3.323,9.843,9.843,0,0,1-16.288-5.372,9.891,9.891,0,0,1,5.867-11.015,17.3,17.3,0,0,1,2.966-.715c.308-.06.377-.141.376-.432q-.013-8.135-.008-16.27c0-.183,0-.365,0-.581h-43.8v3.861a2.152,2.152,0,0,0,.314-.091,12.532,12.532,0,0,1,4.221-1.132,1.258,1.258,0,0,1,1.543,1.4q0,4.445,0,8.889c0,.49,0,.981,0,1.533.459,0,.871,0,1.283,0,1.784.017,3.568.049,5.352.051,1.323,0,2.646-.041,3.97-.049,1.263-.008,1.841.566,1.82,1.825a21.779,21.779,0,0,1-.133,3.17,7.654,7.654,0,0,1-7.139,6.424l-.52.04c.46.665.871,1.28,1.312,1.872.074.1.278.115.427.14a4.553,4.553,0,0,1,3.9,4.455,4.569,4.569,0,0,1-3.773,4.527,4.562,4.562,0,0,1-5.225-3.593c-.061-.306-.152-.419-.469-.411-.793.021-1.587.007-2.413.007-.054.234-.1.442-.151.649a4.533,4.533,0,0,1-6.7,2.762,4.288,4.288,0,0,1-2.128-2.972,4.456,4.456,0,0,1,3.7-5.4,1.021,1.021,0,0,0,.776-.5c.312-.5.662-.972,1.039-1.52-.386-.044-.7-.077-1.015-.118a7.713,7.713,0,0,1-6.768-7.706,38.34,38.34,0,0,1,.183-5.086,11.8,11.8,0,0,1,5.193-8.262.811.811,0,0,0,.4-.759c0-2.462.016-4.925.023-7.388,0-.825-.008-1.651-.013-2.476a4.133,4.133,0,0,1,4.274-4.321c1.559-.009,3.119,0,4.678,0h.607c.011-.2.026-.365.027-.529.006-.78-.02-1.561.018-2.339a1.936,1.936,0,0,1,1.874-1.856c.435-.023.873-.021,1.309-.008a1.97,1.97,0,0,1,2.01,2.021c.02.717.006,1.435.007,2.152,0,.168,0,.335,0,.525h5.472c0-.806.046-1.585-.01-2.356a2.089,2.089,0,0,1,2.354-2.35c.279.021.561,0,.842.009a2.01,2.01,0,0,1,2.035,2.1c.012.826.01,1.653.016,2.479a.458.458,0,0,0,.046.116h5.4c0-.81.047-1.6-.01-2.391a2.09,2.09,0,0,1,2.3-2.316c.264.02.53,0,.8,0a2.025,2.025,0,0,1,2.142,2.141c.005.84,0,1.68,0,2.561.165.012.3.03.431.03q2.386,0,4.772,0a4.161,4.161,0,0,1,4.383,4.37q0,8.655,0,17.31c0,1.136-.038,2.273-.05,3.41C-242.353-2481.274-242.346-2480.513-242.346-2479.713ZM-257.1-2506.1h-5.457c0,.186,0,.339,0,.491,0,.717.009,1.435,0,2.152a1.84,1.84,0,0,1-1.671,1.963,9.835,9.835,0,0,1-1.986,0,1.8,1.8,0,0,1-1.548-1.673c-.012-.809-.008-1.617-.014-2.426,0-.166-.016-.332-.026-.507h-5.42c-.009.186-.022.339-.023.492,0,.748.009,1.5-.009,2.245a1.861,1.861,0,0,1-1.414,1.868,7.072,7.072,0,0,1-2.221.038,1.871,1.871,0,0,1-1.569-1.932c-.014-.9,0-1.8,0-2.686a1.087,1.087,0,0,0-.2-.053c-1.824,0-3.649-.04-5.471.014a3.054,3.054,0,0,0-2.923,2.929c-.058,1.666-.023,3.335-.026,5a.833.833,0,0,0,.059.2h43.705a1.1,1.1,0,0,0,.054-.217c0-1.652.05-3.307-.013-4.957a3.061,3.061,0,0,0-2.909-2.954c-1.852-.067-3.709-.011-5.564-.007-.025,0-.051.031-.076.048a.255.255,0,0,0-.032.084c-.005.842,0,1.683-.013,2.525a1.991,1.991,0,0,1-1.74,2.052,8.615,8.615,0,0,1-1.772,0,2.053,2.053,0,0,1-1.709-2.027C-257.118-2504.3-257.1-2505.174-257.1-2506.1Zm14.3,45.143a8.853,8.853,0,0,0,8.908-8.842,8.8,8.8,0,0,0-9.165-8.931,8.792,8.792,0,0,0-8.6,8.891A8.907,8.907,0,0,0-242.8-2460.955Zm-38.386-11.1h4.865a6.624,6.624,0,0,0,6.565-5.21,20.2,20.2,0,0,0,.205-3.393c.026-.69-.154-.849-.848-.856-1.647-.015-3.294-.037-4.941-.043q-3.151-.01-6.3,0c-1.944.007-3.887.031-5.83.039q-2.479.01-4.959,0c-.323,0-.438.095-.43.426.02.795,0,1.591.008,2.386a6.733,6.733,0,0,0,6.66,6.65C-284.526-2472.046-282.858-2472.053-281.189-2472.053Zm-8-18.3,7.2,7.059v-2.2q0-3.6,0-7.2c0-.636-.02-.67-.662-.592a13.606,13.606,0,0,0-1.564.274A11.315,11.315,0,0,0-289.191-2490.357Zm-3.661,7.865h10.115l-7.162-7.154A11.429,11.429,0,0,0-292.851-2482.491Zm16.656,13.45c-.431-.618-.849-1.235-1.292-1.834a.554.554,0,0,0-.394-.171q-3.319-.015-6.638,0c-.117,0-.287.015-.341.089-.465.632-.908,1.279-1.355,1.916.082.066.1.1.13.1a4.581,4.581,0,0,1,3.428,3.637.488.488,0,0,0,.366.272c.7.027,1.4,0,2.1.019.312.008.409-.1.474-.41a4.393,4.393,0,0,1,2.129-2.991A13.615,13.615,0,0,1-276.2-2469.042Zm-14.507,4.474a3.5,3.5,0,0,0,3.5,3.6,3.555,3.555,0,0,0,3.612-3.519,3.556,3.556,0,0,0-3.5-3.582A3.54,3.54,0,0,0-290.7-2464.567Zm15.456-3.5a3.545,3.545,0,0,0-3.573,3.507,3.57,3.57,0,0,0,3.535,3.6,3.579,3.579,0,0,0,3.577-3.567A3.558,3.558,0,0,0-275.246-2468.066Zm11.688-38.529c0-1.06.006-2.119,0-3.179a1.022,1.022,0,0,0-1.025-1.1,8.4,8.4,0,0,0-1.214,0,1,1,0,0,0-1,1.029c-.015,2.166-.016,4.331.011,6.5a.987.987,0,0,0,1.12,1.044,10.309,10.309,0,0,0,1.069-.065c.791-.083,1.041-.37,1.044-1.186C-263.553-2504.569-263.556-2505.582-263.557-2506.594Zm-10.675.03h0c0-1.059.008-2.118,0-3.178a1.029,1.029,0,0,0-1-1.129,7.84,7.84,0,0,0-1.26,0,.991.991,0,0,0-.989,1.039q-.022,3.224,0,6.449a1,1,0,0,0,1.015,1.009c.342.016.685.009,1.028.005a1.07,1.07,0,0,0,1.21-1.205C-274.228-2504.57-274.232-2505.567-274.232-2506.564Zm21.35-.049c0-1.059.007-2.119,0-3.177a1,1,0,0,0-.99-1.08,8.616,8.616,0,0,0-1.26,0,.993.993,0,0,0-.979,1q-.016,3.247.005,6.494a.98.98,0,0,0,1.01,1.007c.373.017.748.013,1.121,0a1.015,1.015,0,0,0,1.094-1.114C-252.878-2504.527-252.882-2505.57-252.882-2506.613Z" transform="translate(1513.809 3416.826)" fill="#12263f" stroke="#12263f" stroke-width="0.5"/>
    <path id="Trazado_195714" data-name="Trazado 195714" d="M-20.585-2303.331c-.592,0-1.184.009-1.776,0a1.6,1.6,0,0,1-1.66-1.652q-.028-1.776,0-3.552a1.607,1.607,0,0,1,1.648-1.671q1.776-.037,3.553,0a1.625,1.625,0,0,1,1.687,1.729q.007,1.683,0,3.365a1.637,1.637,0,0,1-1.768,1.782C-19.463-2303.328-20.024-2303.331-20.585-2303.331Zm2.448-3.417h0c0-.576.008-1.152,0-1.727-.009-.5-.218-.737-.7-.743q-1.75-.02-3.5,0a.621.621,0,0,0-.691.7q-.017,1.75,0,3.5a.612.612,0,0,0,.7.69q1.75.021,3.5,0c.468-.005.679-.233.688-.7C-18.128-2305.6-18.136-2306.172-18.136-2306.748Z" transform="translate(1269.242 3234.049)" fill="#12263f" stroke="#12263f" stroke-width="0.5"/>
    <path id="Trazado_195715" data-name="Trazado 195715" d="M-17.155-2086.069c0,.592.007,1.184,0,1.776a1.609,1.609,0,0,1-1.644,1.667c-1.2.02-2.392.018-3.588,0a1.7,1.7,0,0,1-1.647-1.584c-.031-1.245-.033-2.492,0-3.737a1.566,1.566,0,0,1,1.615-1.543c1.215-.014,2.43-.018,3.644,0a1.605,1.605,0,0,1,1.617,1.645c.011.592,0,1.184,0,1.775Zm-5.9.027c0,.544,0,1.089,0,1.634.006.577.22.8.782.8q1.657.007,3.314,0c.586,0,.8-.2.8-.78q.011-1.657,0-3.314c0-.6-.188-.788-.779-.79q-1.68-.008-3.36,0c-.545,0-.746.209-.754.77S-23.052-2086.6-23.053-2086.042Z" transform="translate(1269.265 3033.976)" fill="#12263f" stroke="#12263f" stroke-width="0.5"/>
    <path id="Trazado_195716" data-name="Trazado 195716" d="M106.482-2306.733c0-.608-.012-1.216,0-1.823a1.493,1.493,0,0,1,1.45-1.587c1.321-.062,2.648-.063,3.969,0a1.5,1.5,0,0,1,1.431,1.61q.018,1.8,0,3.6a1.571,1.571,0,0,1-1.619,1.63q-1.8.024-3.6,0a1.573,1.573,0,0,1-1.64-1.656c-.009-.592,0-1.184,0-1.776Zm.975-.022h0c0,.561-.008,1.123,0,1.684s.209.781.757.786q1.707.014,3.414-.007c.5-.006.719-.214.724-.714q.019-1.73,0-3.46c-.007-.5-.226-.712-.725-.717q-1.707-.017-3.414,0c-.518,0-.737.228-.749.748C107.446-2307.877,107.456-2307.316,107.456-2306.755Z" transform="translate(1150.945 3234.015)" fill="#12263f" stroke="#12263f" stroke-width="0.5"/>
    <path id="Trazado_195717" data-name="Trazado 195717" d="M-37.877-1967.827h10.031a1.519,1.519,0,0,1,.6.031c.164.076.379.3.367.435a.791.791,0,0,1-.382.479c-.126.078-.334.026-.5.027H-47.945c-.14,0-.322.047-.411-.022-.163-.127-.374-.327-.371-.493a.6.6,0,0,1,.429-.4c1.411-.038,2.823-.036,4.235-.038q3.092-.005,6.185,0Z" transform="translate(1291.624 2923.699)" fill="#12263f" stroke="#12263f" stroke-width="0.5"/>
    <path id="Trazado_195718" data-name="Trazado 195718" d="M106.486-2195.96c0-.608-.011-1.216,0-1.824a1.554,1.554,0,0,1,1.735-1.579c1.057.04,2.117.036,3.174.009a1.667,1.667,0,0,1,1.93,1.649,9.013,9.013,0,0,1-.018,1.725.685.685,0,0,1-.472.432c-.113.023-.393-.253-.415-.419a12.7,12.7,0,0,1-.058-1.53c-.009-.7-.2-.942-.906-.963q-1.583-.045-3.168,0c-.6.016-.825.284-.829.9q-.01,1.614,0,3.228c0,.615.2.813.813.826.5.011,1,0,1.5.006.343,0,.591.135.578.516-.012.362-.27.455-.585.454-.577,0-1.154.012-1.731,0a1.53,1.53,0,0,1-1.541-1.5c-.028-.638-.006-1.278-.006-1.918Z" transform="translate(1150.94 3133.56)" fill="#12263f" stroke="#12263f" stroke-width="0.5"/>
    <path id="Trazado_195719" data-name="Trazado 195719" d="M-136.226-2306.678c0,.577.009,1.154,0,1.73a1.586,1.586,0,0,1-1.674,1.673c-1.122.011-2.244,0-3.367,0-.36,0-.695-.066-.686-.5s.353-.484.707-.483c1.075,0,2.151.005,3.226,0,.614,0,.812-.209.814-.818q.005-1.613,0-3.227c0-.653-.2-.854-.875-.856-1.06,0-2.12-.006-3.18,0-.361,0-.693-.054-.693-.494s.352-.5.7-.5c1.122,0,2.245-.016,3.367,0a1.606,1.606,0,0,1,1.66,1.7C-136.218-2307.863-136.226-2307.271-136.226-2306.678Z" transform="translate(1376.13 3233.99)" fill="#12263f" stroke="#12263f" stroke-width="0.5"/>
    <path id="Trazado_195720" data-name="Trazado 195720" d="M-6.028-2196.221c0,.576.006,1.154,0,1.73a1.614,1.614,0,0,1-1.7,1.7c-1.107,0-2.214,0-3.321,0-.368,0-.748-.026-.735-.5s.395-.482.76-.48q1.567.007,3.133,0c.682,0,.858-.184.86-.865q0-1.59,0-3.18c0-.659-.2-.859-.873-.862-.967-.005-1.933-.007-2.9,0-.345,0-.651-.052-.66-.472-.009-.453.317-.5.677-.5,1.013.006,2.027,0,3.04,0A1.613,1.613,0,0,1-6.03-2197.9C-6.024-2197.344-6.029-2196.782-6.028-2196.221Z" transform="translate(1258.139 3133.812)" fill="#12263f" stroke="#12263f" stroke-width="0.5"/>
    <path id="Trazado_195721" data-name="Trazado 195721" d="M106.472-2086.2c0-.577-.006-1.154,0-1.73a1.59,1.59,0,0,1,1.673-1.675,1.747,1.747,0,0,1,.648.02.848.848,0,0,1,.48.45c.076.3-.168.483-.466.516-.231.026-.467.009-.7.013a.591.591,0,0,0-.65.638c-.013,1.184-.016,2.369,0,3.553.005.462.244.677.707.69.42.012.842,0,1.262.007a.463.463,0,0,1,.523.474.459.459,0,0,1-.5.5c-.5.013-1,.026-1.5-.01a1.525,1.525,0,0,1-1.469-1.528c-.022-.638,0-1.278,0-1.917Z" transform="translate(1150.949 3034.092)" fill="#12263f" stroke="#12263f" stroke-width="0.5"/>
    <path id="Trazado_195722" data-name="Trazado 195722" d="M220.253-2125.685c0,.345,0,.653,0,.961,0,.339-.133.6-.509.586-.343-.013-.463-.261-.466-.583,0-.3.088-.677-.06-.86-.133-.164-.537-.1-.82-.149a2.284,2.284,0,0,1-1.937-2.143c-.007-.327.1-.574.442-.6s.483.182.531.517a1.309,1.309,0,0,0,1.455,1.26c.608.007,1.216.013,1.824,0a1.294,1.294,0,0,0,1.387-1.416c0-.4,0-.811,0-1.216a1.312,1.312,0,0,0-1.461-1.435c-.608,0-1.216,0-1.824,0a2.268,2.268,0,0,1-2.358-2.31c-.014-.483-.017-.967,0-1.45a2.21,2.21,0,0,1,2.267-2.237c.456,0,.617-.138.56-.582a1.085,1.085,0,0,1,.025-.6.738.738,0,0,1,.485-.376c.138-.01.363.213.425.379a1.6,1.6,0,0,1,.026.694c-.038.374.109.489.477.477a2.123,2.123,0,0,1,2.027,1.1,3.247,3.247,0,0,1,.327,1.01.477.477,0,0,1-.447.633c-.345.026-.486-.193-.534-.517a1.305,1.305,0,0,0-1.455-1.255c-.608,0-1.216-.01-1.824,0a1.315,1.315,0,0,0-1.389,1.379c-.012.42-.014.842,0,1.262a1.306,1.306,0,0,0,1.412,1.393c.639.008,1.278-.007,1.917,0a2.3,2.3,0,0,1,2.336,2.3c.013.436,0,.873,0,1.309a2.3,2.3,0,0,1-2.422,2.445C220.562-2125.7,220.454-2125.7,220.253-2125.685Z" transform="translate(1051.265 3078.226)" fill="#12263f" stroke="#12263f" stroke-width="0.5"/>
    <path id="Trazado_195723" data-name="Trazado 195723" d="M-240.8-2022.984a1.69,1.69,0,0,1,1.765-1.657,1.752,1.752,0,0,1,1.746,1.757,1.791,1.791,0,0,1-1.775,1.792A1.739,1.739,0,0,1-240.8-2022.984Zm2.513.123a.785.785,0,0,0-.785-.8.78.78,0,0,0-.765.775.76.76,0,0,0,.784.8A.762.762,0,0,0-238.285-2022.86Z" transform="translate(1465.724 2975.185)" fill="#12263f" stroke="#12263f" stroke-width="0.5"/>
    <path id="Trazado_195724" data-name="Trazado 195724" d="M-114.158-2022.945a1.752,1.752,0,0,1,1.754-1.752,1.76,1.76,0,0,1,1.788,1.77,1.782,1.782,0,0,1-1.781,1.785A1.784,1.784,0,0,1-114.158-2022.945Zm2.544,0a.775.775,0,0,0-.774-.765.78.78,0,0,0-.776.81.769.769,0,0,0,.774.762A.78.78,0,0,0-111.615-2022.95Z" transform="translate(1350.934 2975.236)" fill="#12263f" stroke="#12263f" stroke-width="0.5"/>
    <path id="Trazado_195676" data-name="Trazado 195676" d="M202.227-176.086v27.172H47.388A13.591,13.591,0,0,1,33.8-162.5a13.544,13.544,0,0,1,3.981-9.605,13.544,13.544,0,0,1,9.605-3.981Z" transform="translate(217.47 1211.971)" fill="url(#linear-gradient)"/>
    <path id="Trazado_196756" data-name="Trazado 196756" d="M7.266-2.707a3.139,3.139,0,0,1-1,2.089A3.274,3.274,0,0,1,4.031.117,3.006,3.006,0,0,1,1.608-.967,4.361,4.361,0,0,1,.7-3.867v-.82a4.861,4.861,0,0,1,.425-2.092,3.173,3.173,0,0,1,1.2-1.386,3.353,3.353,0,0,1,1.8-.483,3.083,3.083,0,0,1,2.18.759,3.176,3.176,0,0,1,.955,2.1H6.135A2.451,2.451,0,0,0,5.5-7.27a1.924,1.924,0,0,0-1.368-.458,2.013,2.013,0,0,0-1.69.8,3.661,3.661,0,0,0-.612,2.269v.827a3.764,3.764,0,0,0,.58,2.211A1.874,1.874,0,0,0,4.031-.8,2.165,2.165,0,0,0,5.47-1.228a2.357,2.357,0,0,0,.665-1.479Zm4.43-2.66a3.248,3.248,0,0,0-.533-.041A1.428,1.428,0,0,0,9.715-4.5V0H8.631V-6.34H9.686l.018.732a1.688,1.688,0,0,1,1.512-.85,1.107,1.107,0,0,1,.48.082ZM15.211.117a2.77,2.77,0,0,1-2.1-.847A3.142,3.142,0,0,1,12.3-2.994v-.2a3.8,3.8,0,0,1,.36-1.685,2.811,2.811,0,0,1,1.008-1.16,2.534,2.534,0,0,1,1.4-.419A2.374,2.374,0,0,1,17-5.643a3.526,3.526,0,0,1,.686,2.332v.451H13.389a2.254,2.254,0,0,0,.548,1.515,1.722,1.722,0,0,0,1.333.577A1.888,1.888,0,0,0,16.242-1a2.444,2.444,0,0,0,.7-.621l.662.516A2.662,2.662,0,0,1,15.211.117Zm-.135-5.684a1.446,1.446,0,0,0-1.1.478,2.321,2.321,0,0,0-.551,1.339H16.6v-.082a2.065,2.065,0,0,0-.445-1.28A1.361,1.361,0,0,0,15.076-5.566ZM22.852,0A2.277,2.277,0,0,1,22.7-.668a2.419,2.419,0,0,1-1.8.785,2.238,2.238,0,0,1-1.538-.53,1.716,1.716,0,0,1-.6-1.345A1.792,1.792,0,0,1,19.509-3.3a3.55,3.55,0,0,1,2.118-.548h1.055v-.5a1.217,1.217,0,0,0-.34-.905,1.366,1.366,0,0,0-1-.337,1.581,1.581,0,0,0-.973.293.863.863,0,0,0-.393.709h-1.09a1.5,1.5,0,0,1,.337-.917,2.3,2.3,0,0,1,.914-.7A3.075,3.075,0,0,1,21.4-6.457a2.506,2.506,0,0,1,1.717.548A1.976,1.976,0,0,1,23.766-4.4v2.918a3.567,3.567,0,0,0,.223,1.389V0Zm-1.8-.826a1.905,1.905,0,0,0,.967-.264,1.6,1.6,0,0,0,.662-.686v-1.3h-.85q-1.992,0-1.992,1.166a.987.987,0,0,0,.34.8A1.306,1.306,0,0,0,21.053-.826Zm6.955.059a1.561,1.561,0,0,0,1.014-.352A1.237,1.237,0,0,0,29.5-2h1.025a1.966,1.966,0,0,1-.375,1.037,2.47,2.47,0,0,1-.923.785,2.663,2.663,0,0,1-1.222.293,2.612,2.612,0,0,1-2.06-.864,3.442,3.442,0,0,1-.765-2.364v-.182a3.817,3.817,0,0,1,.34-1.646A2.588,2.588,0,0,1,26.5-6.059a2.771,2.771,0,0,1,1.5-.4,2.543,2.543,0,0,1,1.772.639,2.283,2.283,0,0,1,.753,1.658H29.5a1.494,1.494,0,0,0-.466-1.011A1.449,1.449,0,0,0,28-5.566a1.517,1.517,0,0,0-1.28.595,2.793,2.793,0,0,0-.454,1.72v.205a2.737,2.737,0,0,0,.451,1.688A1.524,1.524,0,0,0,28.008-.768ZM32.924,0H31.84V-6.34h1.084ZM31.752-8.021a.647.647,0,0,1,.161-.445.6.6,0,0,1,.478-.182.614.614,0,0,1,.48.182.64.64,0,0,1,.164.445.619.619,0,0,1-.164.439.626.626,0,0,1-.48.176.616.616,0,0,1-.478-.176A.626.626,0,0,1,31.752-8.021Zm2.619,4.793A3.745,3.745,0,0,1,34.737-4.9a2.732,2.732,0,0,1,1.02-1.148,2.775,2.775,0,0,1,1.491-.4,2.674,2.674,0,0,1,2.095.9,3.449,3.449,0,0,1,.8,2.385V-3.1a3.777,3.777,0,0,1-.354,1.661A2.692,2.692,0,0,1,38.774-.293a2.807,2.807,0,0,1-1.515.41,2.667,2.667,0,0,1-2.089-.9,3.432,3.432,0,0,1-.8-2.373Zm1.09.129a2.712,2.712,0,0,0,.489,1.693,1.566,1.566,0,0,0,1.31.639,1.556,1.556,0,0,0,1.313-.647,2.966,2.966,0,0,0,.486-1.813,2.708,2.708,0,0,0-.5-1.69,1.574,1.574,0,0,0-1.315-.647,1.557,1.557,0,0,0-1.295.639A2.944,2.944,0,0,0,35.461-3.1ZM37.74-8.988h1.313l-1.57,1.723-.873,0ZM42.527-6.34l.035.8a2.31,2.31,0,0,1,1.9-.914q2.01,0,2.027,2.268V0H45.4V-4.2a1.459,1.459,0,0,0-.313-1.014,1.256,1.256,0,0,0-.958-.328,1.564,1.564,0,0,0-.926.281,1.91,1.91,0,0,0-.621.738V0H41.5V-6.34Zm8.3,3.117a3.714,3.714,0,0,1,.691-2.347,2.186,2.186,0,0,1,1.811-.888A2.2,2.2,0,0,1,55.1-5.7V-9H56.18V0h-1l-.053-.68a2.208,2.208,0,0,1-1.811.8,2.165,2.165,0,0,1-1.8-.9,3.756,3.756,0,0,1-.694-2.355Zm1.084.123a2.812,2.812,0,0,0,.445,1.688A1.44,1.44,0,0,0,53.59-.8,1.581,1.581,0,0,0,55.1-1.729V-4.641a1.593,1.593,0,0,0-1.494-.9,1.446,1.446,0,0,0-1.242.615A3.1,3.1,0,0,0,51.914-3.1ZM60.492.117a2.77,2.77,0,0,1-2.1-.847,3.142,3.142,0,0,1-.809-2.265v-.2a3.8,3.8,0,0,1,.36-1.685,2.811,2.811,0,0,1,1.008-1.16,2.534,2.534,0,0,1,1.4-.419,2.374,2.374,0,0,1,1.922.814,3.526,3.526,0,0,1,.686,2.332v.451H58.67a2.254,2.254,0,0,0,.548,1.515,1.722,1.722,0,0,0,1.333.577A1.888,1.888,0,0,0,61.523-1a2.444,2.444,0,0,0,.7-.621l.662.516A2.662,2.662,0,0,1,60.492.117Zm-.135-5.684a1.446,1.446,0,0,0-1.1.478,2.321,2.321,0,0,0-.551,1.339h3.176v-.082a2.065,2.065,0,0,0-.445-1.28A1.361,1.361,0,0,0,60.357-5.566ZM71.1-.627a2.3,2.3,0,0,1-1.857.744A1.971,1.971,0,0,1,67.7-.472a2.549,2.549,0,0,1-.536-1.743V-6.34H68.25v4.1Q68.25-.8,69.422-.8a1.623,1.623,0,0,0,1.652-.926V-6.34h1.084V0H71.127ZM74.83-6.34l.035.8a2.31,2.31,0,0,1,1.9-.914q2.01,0,2.027,2.268V0H77.707V-4.2a1.459,1.459,0,0,0-.313-1.014,1.256,1.256,0,0,0-.958-.328,1.564,1.564,0,0,0-.926.281,1.91,1.91,0,0,0-.621.738V0H73.8V-6.34Zm9.592,0,.035.8a2.31,2.31,0,0,1,1.9-.914q2.01,0,2.027,2.268V0H87.3V-4.2a1.459,1.459,0,0,0-.313-1.014,1.256,1.256,0,0,0-.958-.328,1.564,1.564,0,0,0-.926.281,1.91,1.91,0,0,0-.621.738V0H83.4V-6.34Zm9.51,5.713a2.3,2.3,0,0,1-1.857.744A1.971,1.971,0,0,1,90.53-.472a2.549,2.549,0,0,1-.536-1.743V-6.34h1.084v4.1Q91.078-.8,92.25-.8A1.623,1.623,0,0,0,93.9-1.729V-6.34h1.084V0H93.955Zm5.332.744a2.77,2.77,0,0,1-2.1-.847,3.142,3.142,0,0,1-.809-2.265v-.2a3.8,3.8,0,0,1,.36-1.685,2.811,2.811,0,0,1,1.008-1.16,2.534,2.534,0,0,1,1.4-.419,2.374,2.374,0,0,1,1.922.814,3.526,3.526,0,0,1,.686,2.332v.451H97.441a2.254,2.254,0,0,0,.548,1.515,1.722,1.722,0,0,0,1.333.577A1.888,1.888,0,0,0,100.295-1a2.444,2.444,0,0,0,.7-.621l.662.516A2.662,2.662,0,0,1,99.264.117Zm-.135-5.684a1.446,1.446,0,0,0-1.1.478,2.321,2.321,0,0,0-.551,1.339h3.176v-.082a2.065,2.065,0,0,0-.445-1.28A1.361,1.361,0,0,0,99.129-5.566Zm5.877,4.1,1.57-4.869h1.107L105.41,0h-.826l-2.3-6.34h1.107Zm3.346-1.758a3.745,3.745,0,0,1,.366-1.676,2.732,2.732,0,0,1,1.02-1.148,2.775,2.775,0,0,1,1.491-.4,2.674,2.674,0,0,1,2.095.9,3.449,3.449,0,0,1,.8,2.385V-3.1a3.777,3.777,0,0,1-.354,1.661,2.692,2.692,0,0,1-1.014,1.146,2.807,2.807,0,0,1-1.515.41,2.667,2.667,0,0,1-2.089-.9,3.432,3.432,0,0,1-.8-2.373Zm1.09.129a2.712,2.712,0,0,0,.489,1.693,1.566,1.566,0,0,0,1.31.639,1.556,1.556,0,0,0,1.313-.647,2.966,2.966,0,0,0,.486-1.813,2.708,2.708,0,0,0-.5-1.69,1.574,1.574,0,0,0-1.315-.647,1.557,1.557,0,0,0-1.295.639A2.944,2.944,0,0,0,109.441-3.1ZM121-.768a1.561,1.561,0,0,0,1.014-.352A1.237,1.237,0,0,0,122.49-2h1.025a1.966,1.966,0,0,1-.375,1.037,2.47,2.47,0,0,1-.923.785A2.663,2.663,0,0,1,121,.117a2.612,2.612,0,0,1-2.06-.864,3.442,3.442,0,0,1-.765-2.364v-.182a3.817,3.817,0,0,1,.34-1.646,2.588,2.588,0,0,1,.976-1.119,2.771,2.771,0,0,1,1.5-.4,2.543,2.543,0,0,1,1.772.639,2.283,2.283,0,0,1,.753,1.658H122.49a1.494,1.494,0,0,0-.466-1.011,1.449,1.449,0,0,0-1.034-.4,1.517,1.517,0,0,0-1.28.595,2.793,2.793,0,0,0-.454,1.72v.205a2.737,2.737,0,0,0,.451,1.688A1.524,1.524,0,0,0,121-.768ZM128.648,0a2.277,2.277,0,0,1-.152-.668,2.419,2.419,0,0,1-1.8.785,2.238,2.238,0,0,1-1.538-.53,1.716,1.716,0,0,1-.6-1.345,1.792,1.792,0,0,1,.753-1.538,3.55,3.55,0,0,1,2.118-.548h1.055v-.5a1.217,1.217,0,0,0-.34-.905,1.366,1.366,0,0,0-1-.337,1.581,1.581,0,0,0-.973.293.863.863,0,0,0-.393.709h-1.09a1.5,1.5,0,0,1,.337-.917,2.3,2.3,0,0,1,.914-.7,3.075,3.075,0,0,1,1.269-.258,2.506,2.506,0,0,1,1.717.548,1.976,1.976,0,0,1,.645,1.509v2.918a3.567,3.567,0,0,0,.223,1.389V0Zm-1.8-.826a1.905,1.905,0,0,0,.967-.264,1.6,1.6,0,0,0,.662-.686v-1.3h-.85q-1.992,0-1.992,1.166a.987.987,0,0,0,.34.8A1.306,1.306,0,0,0,126.85-.826Zm7.477-4.541a3.248,3.248,0,0,0-.533-.041,1.428,1.428,0,0,0-1.447.908V0h-1.084V-6.34h1.055l.018.732a1.688,1.688,0,0,1,1.512-.85,1.107,1.107,0,0,1,.48.082Zm.627,2.145a3.726,3.726,0,0,1,.686-2.358,2.192,2.192,0,0,1,1.816-.876,2.181,2.181,0,0,1,1.811.82l.053-.7h.99V-.152a2.579,2.579,0,0,1-.729,1.939,2.692,2.692,0,0,1-1.96.709,3.261,3.261,0,0,1-1.342-.293,2.31,2.31,0,0,1-1-.8l.563-.65a2.12,2.12,0,0,0,1.705.861,1.661,1.661,0,0,0,1.233-.445,1.7,1.7,0,0,0,.442-1.254V-.633a2.228,2.228,0,0,1-1.775.75,2.166,2.166,0,0,1-1.8-.9A3.918,3.918,0,0,1,134.953-3.223Zm1.09.123a2.843,2.843,0,0,0,.439,1.685,1.428,1.428,0,0,0,1.23.612,1.588,1.588,0,0,0,1.506-.932V-4.629a1.606,1.606,0,0,0-1.494-.908,1.441,1.441,0,0,0-1.236.615A3.1,3.1,0,0,0,136.043-3.1Zm5.613-.129a3.745,3.745,0,0,1,.366-1.676,2.732,2.732,0,0,1,1.02-1.148,2.775,2.775,0,0,1,1.491-.4,2.674,2.674,0,0,1,2.095.9,3.449,3.449,0,0,1,.8,2.385V-3.1a3.777,3.777,0,0,1-.354,1.661A2.692,2.692,0,0,1,146.06-.293a2.807,2.807,0,0,1-1.515.41,2.667,2.667,0,0,1-2.089-.9,3.432,3.432,0,0,1-.8-2.373Zm1.09.129a2.712,2.712,0,0,0,.489,1.693,1.566,1.566,0,0,0,1.31.639,1.556,1.556,0,0,0,1.313-.647,2.966,2.966,0,0,0,.486-1.813,2.708,2.708,0,0,0-.5-1.69,1.574,1.574,0,0,0-1.315-.647,1.557,1.557,0,0,0-1.295.639A2.944,2.944,0,0,0,142.746-3.1Z" transform="translate(259.871 1053.794)" fill="#fff"/>
    <path id="Trazado_196757" data-name="Trazado 196757" d="M0,0H185.081V27.172H0Z" transform="translate(419.696 1035.885)" fill="url(#linear-gradient-2)"/>
    <path id="Trazado_196758" data-name="Trazado 196758" d="M6.885-7.611H4.143V0H3.023V-7.611H.287v-.92h6.6Zm3.721,2.244a3.248,3.248,0,0,0-.533-.041A1.428,1.428,0,0,0,8.625-4.5V0H7.541V-6.34H8.6l.018.732a1.688,1.688,0,0,1,1.512-.85,1.107,1.107,0,0,1,.48.082ZM15.281,0a2.277,2.277,0,0,1-.152-.668,2.419,2.419,0,0,1-1.8.785,2.238,2.238,0,0,1-1.538-.53,1.716,1.716,0,0,1-.6-1.345A1.792,1.792,0,0,1,11.938-3.3a3.55,3.55,0,0,1,2.118-.548h1.055v-.5a1.217,1.217,0,0,0-.34-.905,1.366,1.366,0,0,0-1-.337,1.581,1.581,0,0,0-.973.293.863.863,0,0,0-.393.709h-1.09a1.5,1.5,0,0,1,.337-.917,2.3,2.3,0,0,1,.914-.7,3.075,3.075,0,0,1,1.269-.258,2.506,2.506,0,0,1,1.717.548A1.976,1.976,0,0,1,16.2-4.4v2.918a3.567,3.567,0,0,0,.223,1.389V0Zm-1.8-.826a1.905,1.905,0,0,0,.967-.264,1.6,1.6,0,0,0,.662-.686v-1.3h-.85q-1.992,0-1.992,1.166a.987.987,0,0,0,.34.8A1.306,1.306,0,0,0,13.482-.826ZM18.92-6.34l.035.8a2.31,2.31,0,0,1,1.9-.914q2.01,0,2.027,2.268V0H21.8V-4.2a1.459,1.459,0,0,0-.313-1.014,1.256,1.256,0,0,0-.958-.328,1.564,1.564,0,0,0-.926.281,1.91,1.91,0,0,0-.621.738V0H17.895V-6.34Zm9.287,4.658a.8.8,0,0,0-.331-.683,3.187,3.187,0,0,0-1.154-.419,5.457,5.457,0,0,1-1.307-.422,1.859,1.859,0,0,1-.715-.586,1.4,1.4,0,0,1-.231-.809,1.645,1.645,0,0,1,.659-1.318,2.574,2.574,0,0,1,1.685-.539,2.649,2.649,0,0,1,1.749.557,1.768,1.768,0,0,1,.671,1.424h-1.09a.979.979,0,0,0-.378-.768,1.416,1.416,0,0,0-.952-.322,1.482,1.482,0,0,0-.926.258.812.812,0,0,0-.334.674.658.658,0,0,0,.311.592,3.821,3.821,0,0,0,1.122.381,5.847,5.847,0,0,1,1.315.434,1.919,1.919,0,0,1,.747.606,1.491,1.491,0,0,1,.243.864A1.623,1.623,0,0,1,28.611-.4a2.851,2.851,0,0,1-1.764.513A3.193,3.193,0,0,1,25.5-.152a2.192,2.192,0,0,1-.917-.753,1.815,1.815,0,0,1-.331-1.046h1.084a1.122,1.122,0,0,0,.437.864,1.693,1.693,0,0,0,1.075.319,1.748,1.748,0,0,0,.987-.249A.765.765,0,0,0,28.207-1.682ZM31.236,0V-5.5h-1V-6.34h1v-.65a2.159,2.159,0,0,1,.545-1.576,2.058,2.058,0,0,1,1.541-.557,2.862,2.862,0,0,1,.744.1l-.059.874a3.113,3.113,0,0,0-.586-.053,1.058,1.058,0,0,0-.814.309,1.252,1.252,0,0,0-.287.885v.67h1.354V-5.5H32.32V0Zm6.123.117a2.77,2.77,0,0,1-2.1-.847,3.142,3.142,0,0,1-.809-2.265v-.2a3.8,3.8,0,0,1,.36-1.685,2.811,2.811,0,0,1,1.008-1.16,2.534,2.534,0,0,1,1.4-.419,2.374,2.374,0,0,1,1.922.814,3.526,3.526,0,0,1,.686,2.332v.451H35.537a2.254,2.254,0,0,0,.548,1.515,1.722,1.722,0,0,0,1.333.577A1.888,1.888,0,0,0,38.391-1a2.444,2.444,0,0,0,.7-.621l.662.516A2.662,2.662,0,0,1,37.359.117Zm-.135-5.684a1.446,1.446,0,0,0-1.1.478,2.321,2.321,0,0,0-.551,1.339h3.176v-.082a2.065,2.065,0,0,0-.445-1.28A1.361,1.361,0,0,0,37.225-5.566Zm6.926.2a3.248,3.248,0,0,0-.533-.041A1.428,1.428,0,0,0,42.17-4.5V0H41.086V-6.34h1.055l.018.732a1.688,1.688,0,0,1,1.512-.85,1.107,1.107,0,0,1,.48.082ZM47.666.117a2.77,2.77,0,0,1-2.1-.847,3.142,3.142,0,0,1-.809-2.265v-.2a3.8,3.8,0,0,1,.36-1.685,2.811,2.811,0,0,1,1.008-1.16,2.534,2.534,0,0,1,1.4-.419,2.374,2.374,0,0,1,1.922.814,3.526,3.526,0,0,1,.686,2.332v.451H45.844a2.254,2.254,0,0,0,.548,1.515,1.722,1.722,0,0,0,1.333.577A1.888,1.888,0,0,0,48.7-1a2.444,2.444,0,0,0,.7-.621l.662.516A2.662,2.662,0,0,1,47.666.117Zm-.135-5.684a1.446,1.446,0,0,0-1.1.478,2.321,2.321,0,0,0-.551,1.339h3.176v-.082a2.065,2.065,0,0,0-.445-1.28A1.361,1.361,0,0,0,47.531-5.566Zm4.887-.773.035.8a2.31,2.31,0,0,1,1.9-.914q2.01,0,2.027,2.268V0H55.295V-4.2a1.459,1.459,0,0,0-.313-1.014,1.256,1.256,0,0,0-.958-.328,1.564,1.564,0,0,0-.926.281,1.91,1.91,0,0,0-.621.738V0H51.393V-6.34ZM60.557-.768a1.561,1.561,0,0,0,1.014-.352A1.237,1.237,0,0,0,62.051-2h1.025A1.966,1.966,0,0,1,62.7-.961a2.47,2.47,0,0,1-.923.785,2.663,2.663,0,0,1-1.222.293A2.612,2.612,0,0,1,58.5-.747a3.442,3.442,0,0,1-.765-2.364v-.182a3.817,3.817,0,0,1,.34-1.646,2.588,2.588,0,0,1,.976-1.119,2.771,2.771,0,0,1,1.5-.4,2.543,2.543,0,0,1,1.772.639,2.283,2.283,0,0,1,.753,1.658H62.051a1.494,1.494,0,0,0-.466-1.011,1.449,1.449,0,0,0-1.034-.4,1.517,1.517,0,0,0-1.28.595,2.793,2.793,0,0,0-.454,1.72v.205a2.737,2.737,0,0,0,.451,1.688A1.524,1.524,0,0,0,60.557-.768ZM65.473,0H64.389V-6.34h1.084ZM64.3-8.021a.647.647,0,0,1,.161-.445.6.6,0,0,1,.478-.182.614.614,0,0,1,.48.182.64.64,0,0,1,.164.445.619.619,0,0,1-.164.439.626.626,0,0,1-.48.176.616.616,0,0,1-.478-.176A.626.626,0,0,1,64.3-8.021ZM71.121,0a2.277,2.277,0,0,1-.152-.668,2.419,2.419,0,0,1-1.8.785,2.238,2.238,0,0,1-1.538-.53,1.716,1.716,0,0,1-.6-1.345A1.792,1.792,0,0,1,67.778-3.3,3.55,3.55,0,0,1,69.9-3.844h1.055v-.5a1.217,1.217,0,0,0-.34-.905,1.366,1.366,0,0,0-1-.337,1.581,1.581,0,0,0-.973.293.863.863,0,0,0-.393.709h-1.09a1.5,1.5,0,0,1,.337-.917,2.3,2.3,0,0,1,.914-.7,3.075,3.075,0,0,1,1.269-.258,2.506,2.506,0,0,1,1.717.548A1.976,1.976,0,0,1,72.035-4.4v2.918a3.567,3.567,0,0,0,.223,1.389V0Zm-1.8-.826a1.905,1.905,0,0,0,.967-.264,1.6,1.6,0,0,0,.662-.686v-1.3H70.1q-1.992,0-1.992,1.166a.987.987,0,0,0,.34.8A1.306,1.306,0,0,0,69.322-.826Z" transform="translate(475.237 1054.471)" fill="#12263f"/>
    <path id="Trazado_196759" data-name="Trazado 196759" d="M0,0H185.095V27.172H0Z" transform="translate(604.777 1035.885)" fill="url(#linear-gradient)"/>
    <path id="Trazado_196760" data-name="Trazado 196760" d="M0,0H185.095V27.172H0Z" transform="translate(789.872 1035.885)" fill="url(#linear-gradient-2)"/>
    <path id="Trazado_196761" data-name="Trazado 196761" d="M4.119-3.451h-2V0H.984V-8.531H3.809a3.343,3.343,0,0,1,2.218.656A2.361,2.361,0,0,1,6.8-5.965a2.3,2.3,0,0,1-.431,1.389,2.571,2.571,0,0,1-1.2.885l2,3.621V0H5.971Zm-2-.92H3.844a1.95,1.95,0,0,0,1.333-.434,1.469,1.469,0,0,0,.5-1.162A1.547,1.547,0,0,0,5.2-7.183a2,2,0,0,0-1.362-.429H2.115ZM10.84.117a2.77,2.77,0,0,1-2.1-.847,3.142,3.142,0,0,1-.809-2.265v-.2a3.8,3.8,0,0,1,.36-1.685A2.811,2.811,0,0,1,9.3-6.038a2.534,2.534,0,0,1,1.4-.419,2.374,2.374,0,0,1,1.922.814,3.526,3.526,0,0,1,.686,2.332v.451H9.018a2.254,2.254,0,0,0,.548,1.515A1.722,1.722,0,0,0,10.9-.768,1.888,1.888,0,0,0,11.871-1a2.444,2.444,0,0,0,.7-.621l.662.516A2.662,2.662,0,0,1,10.84.117Zm-.135-5.684a1.446,1.446,0,0,0-1.1.478A2.321,2.321,0,0,0,9.053-3.75h3.176v-.082a2.065,2.065,0,0,0-.445-1.28A1.361,1.361,0,0,0,10.705-5.566Zm4.887-.773.035.8a2.31,2.31,0,0,1,1.9-.914q2.01,0,2.027,2.268V0H18.469V-4.2a1.459,1.459,0,0,0-.313-1.014,1.256,1.256,0,0,0-.958-.328,1.564,1.564,0,0,0-.926.281,1.91,1.91,0,0,0-.621.738V0H14.566V-6.34ZM25.1-.627a2.3,2.3,0,0,1-1.857.744A1.971,1.971,0,0,1,21.7-.472a2.549,2.549,0,0,1-.536-1.743V-6.34h1.084v4.1Q22.248-.8,23.42-.8a1.623,1.623,0,0,0,1.652-.926V-6.34h1.084V0H25.125ZM28.828-6.34l.035.8a2.31,2.31,0,0,1,1.9-.914q2.01,0,2.027,2.268V0H31.705V-4.2a1.459,1.459,0,0,0-.313-1.014,1.256,1.256,0,0,0-.958-.328,1.564,1.564,0,0,0-.926.281,1.91,1.91,0,0,0-.621.738V0H27.8V-6.34ZM36.967-.768a1.561,1.561,0,0,0,1.014-.352A1.237,1.237,0,0,0,38.461-2h1.025a1.966,1.966,0,0,1-.375,1.037,2.47,2.47,0,0,1-.923.785,2.663,2.663,0,0,1-1.222.293,2.612,2.612,0,0,1-2.06-.864,3.442,3.442,0,0,1-.765-2.364v-.182a3.817,3.817,0,0,1,.34-1.646,2.588,2.588,0,0,1,.976-1.119,2.771,2.771,0,0,1,1.5-.4,2.543,2.543,0,0,1,1.772.639,2.283,2.283,0,0,1,.753,1.658H38.461A1.494,1.494,0,0,0,38-5.171a1.449,1.449,0,0,0-1.034-.4,1.517,1.517,0,0,0-1.28.595,2.793,2.793,0,0,0-.454,1.72v.205a2.737,2.737,0,0,0,.451,1.688A1.524,1.524,0,0,0,36.967-.768ZM41.883,0H40.8V-6.34h1.084ZM40.711-8.021a.647.647,0,0,1,.161-.445.6.6,0,0,1,.478-.182.614.614,0,0,1,.48.182.64.64,0,0,1,.164.445.619.619,0,0,1-.164.439.626.626,0,0,1-.48.176.616.616,0,0,1-.478-.176A.626.626,0,0,1,40.711-8.021ZM47.531,0a2.277,2.277,0,0,1-.152-.668,2.419,2.419,0,0,1-1.8.785,2.238,2.238,0,0,1-1.538-.53,1.716,1.716,0,0,1-.6-1.345A1.792,1.792,0,0,1,44.188-3.3a3.55,3.55,0,0,1,2.118-.548h1.055v-.5a1.217,1.217,0,0,0-.34-.905,1.366,1.366,0,0,0-1-.337,1.581,1.581,0,0,0-.973.293.863.863,0,0,0-.393.709h-1.09A1.5,1.5,0,0,1,43.9-5.5a2.3,2.3,0,0,1,.914-.7,3.075,3.075,0,0,1,1.269-.258,2.506,2.506,0,0,1,1.717.548A1.976,1.976,0,0,1,48.445-4.4v2.918a3.567,3.567,0,0,0,.223,1.389V0Zm-1.8-.826A1.905,1.905,0,0,0,46.7-1.09a1.6,1.6,0,0,0,.662-.686v-1.3h-.85q-1.992,0-1.992,1.166a.987.987,0,0,0,.34.8A1.306,1.306,0,0,0,45.732-.826Z" transform="translate(857.236 1054.471)" fill="#12263f"/>
    <path id="Trazado_196744" data-name="Trazado 196744" d="M.99,0V-8.531H3.4a3.877,3.877,0,0,1,1.969.492,3.329,3.329,0,0,1,1.321,1.4A4.558,4.558,0,0,1,7.16-4.553v.545a4.574,4.574,0,0,1-.466,2.115A3.277,3.277,0,0,1,5.364-.5,4.124,4.124,0,0,1,3.352,0ZM2.115-7.611V-.92H3.3a2.575,2.575,0,0,0,2.024-.809,3.344,3.344,0,0,0,.724-2.3v-.5a3.4,3.4,0,0,0-.683-2.261,2.429,2.429,0,0,0-1.937-.818ZM11.32.117a2.77,2.77,0,0,1-2.1-.847,3.142,3.142,0,0,1-.809-2.265v-.2a3.8,3.8,0,0,1,.36-1.685,2.811,2.811,0,0,1,1.008-1.16,2.534,2.534,0,0,1,1.4-.419,2.374,2.374,0,0,1,1.922.814,3.526,3.526,0,0,1,.686,2.332v.451H9.5a2.254,2.254,0,0,0,.548,1.515,1.722,1.722,0,0,0,1.333.577A1.888,1.888,0,0,0,12.352-1a2.444,2.444,0,0,0,.7-.621l.662.516A2.662,2.662,0,0,1,11.32.117Zm-.135-5.684a1.446,1.446,0,0,0-1.1.478A2.321,2.321,0,0,0,9.533-3.75h3.176v-.082a2.065,2.065,0,0,0-.445-1.28A1.361,1.361,0,0,0,11.186-5.566Zm7.553,3.885a.8.8,0,0,0-.331-.683,3.187,3.187,0,0,0-1.154-.419,5.457,5.457,0,0,1-1.307-.422,1.859,1.859,0,0,1-.715-.586A1.4,1.4,0,0,1,15-4.6a1.645,1.645,0,0,1,.659-1.318,2.574,2.574,0,0,1,1.685-.539,2.649,2.649,0,0,1,1.749.557,1.768,1.768,0,0,1,.671,1.424h-1.09a.979.979,0,0,0-.378-.768,1.416,1.416,0,0,0-.952-.322,1.482,1.482,0,0,0-.926.258.812.812,0,0,0-.334.674.658.658,0,0,0,.311.592,3.821,3.821,0,0,0,1.122.381,5.847,5.847,0,0,1,1.315.434,1.919,1.919,0,0,1,.747.606,1.491,1.491,0,0,1,.243.864A1.623,1.623,0,0,1,19.143-.4a2.851,2.851,0,0,1-1.764.513,3.193,3.193,0,0,1-1.348-.27,2.192,2.192,0,0,1-.917-.753,1.815,1.815,0,0,1-.331-1.046h1.084a1.122,1.122,0,0,0,.437.864,1.693,1.693,0,0,0,1.075.319,1.748,1.748,0,0,0,.987-.249A.765.765,0,0,0,18.738-1.682ZM26.59-3.1a3.8,3.8,0,0,1-.662,2.332,2.122,2.122,0,0,1-1.793.885,2.325,2.325,0,0,1-1.816-.732V2.438H21.234V-6.34h.99l.053.7a2.233,2.233,0,0,1,1.84-.82,2.162,2.162,0,0,1,1.808.861,3.838,3.838,0,0,1,.665,2.4Zm-1.084-.123a2.8,2.8,0,0,0-.457-1.693,1.472,1.472,0,0,0-1.254-.621,1.593,1.593,0,0,0-1.477.873v3.029a1.6,1.6,0,0,0,1.488.867,1.465,1.465,0,0,0,1.239-.618A3.058,3.058,0,0,0,25.506-3.223ZM29.145,0H28.061V-6.34h1.084ZM27.973-8.021a.647.647,0,0,1,.161-.445.6.6,0,0,1,.478-.182.614.614,0,0,1,.48.182.64.64,0,0,1,.164.445.619.619,0,0,1-.164.439.626.626,0,0,1-.48.176.616.616,0,0,1-.478-.176A.626.626,0,0,1,27.973-8.021Zm2.643,4.8a3.714,3.714,0,0,1,.691-2.347,2.186,2.186,0,0,1,1.811-.888,2.2,2.2,0,0,1,1.764.762V-9h1.084V0h-1l-.053-.68a2.208,2.208,0,0,1-1.811.8,2.165,2.165,0,0,1-1.8-.9,3.756,3.756,0,0,1-.694-2.355ZM31.7-3.1a2.812,2.812,0,0,0,.445,1.688,1.44,1.44,0,0,0,1.23.609,1.581,1.581,0,0,0,1.506-.926V-4.641a1.593,1.593,0,0,0-1.494-.9,1.446,1.446,0,0,0-1.242.615A3.1,3.1,0,0,0,31.7-3.1Zm5.66-.129A3.745,3.745,0,0,1,37.726-4.9a2.732,2.732,0,0,1,1.02-1.148,2.775,2.775,0,0,1,1.491-.4,2.674,2.674,0,0,1,2.095.9,3.449,3.449,0,0,1,.8,2.385V-3.1a3.777,3.777,0,0,1-.354,1.661A2.692,2.692,0,0,1,41.763-.293a2.807,2.807,0,0,1-1.515.41,2.667,2.667,0,0,1-2.089-.9,3.432,3.432,0,0,1-.8-2.373Zm1.09.129a2.712,2.712,0,0,0,.489,1.693,1.566,1.566,0,0,0,1.31.639,1.556,1.556,0,0,0,1.313-.647,2.966,2.966,0,0,0,.486-1.813,2.708,2.708,0,0,0-.5-1.69,1.574,1.574,0,0,0-1.315-.647,1.557,1.557,0,0,0-1.295.639A2.944,2.944,0,0,0,38.449-3.1Z" transform="translate(675.871 1053.795)" fill="#fff"/>
    <path id="Trazado_196735" data-name="Trazado 196735" d="M0,0H31.664V2.054H0Z" transform="translate(1065.875 1035.885) rotate(-90)" fill="#d2d2d2"/>
    <path id="Trazado_196736" data-name="Trazado 196736" d="M0,0H30.789V2.054H0Z" transform="translate(1250.644 1035.885) rotate(-90)" fill="#d2d2d2"/>
    <path id="Trazado_196745" data-name="Trazado 196745" d="M0,0H185.095V27.172H0Z" transform="translate(974.354 1035.885)" fill="url(#linear-gradient)"/>
    <path id="Trazado_196746" data-name="Trazado 196746" d="M3.814-1.494,6.252-8.531h1.23L4.318,0h-1L.164-8.531H1.389ZM12.1,0a2.277,2.277,0,0,1-.152-.668,2.419,2.419,0,0,1-1.8.785A2.238,2.238,0,0,1,8.6-.413,1.716,1.716,0,0,1,8-1.758,1.792,1.792,0,0,1,8.757-3.3a3.55,3.55,0,0,1,2.118-.548H11.93v-.5a1.217,1.217,0,0,0-.34-.905,1.366,1.366,0,0,0-1-.337,1.581,1.581,0,0,0-.973.293.863.863,0,0,0-.393.709H8.133A1.5,1.5,0,0,1,8.47-5.5a2.3,2.3,0,0,1,.914-.7,3.075,3.075,0,0,1,1.269-.258,2.506,2.506,0,0,1,1.717.548A1.976,1.976,0,0,1,13.014-4.4v2.918a3.567,3.567,0,0,0,.223,1.389V0ZM10.3-.826a1.905,1.905,0,0,0,.967-.264,1.6,1.6,0,0,0,.662-.686v-1.3h-.85q-1.992,0-1.992,1.166a.987.987,0,0,0,.34.8A1.306,1.306,0,0,0,10.3-.826Zm6.955.059a1.561,1.561,0,0,0,1.014-.352A1.237,1.237,0,0,0,18.75-2h1.025A1.966,1.966,0,0,1,19.4-.961a2.47,2.47,0,0,1-.923.785,2.663,2.663,0,0,1-1.222.293A2.612,2.612,0,0,1,15.2-.747a3.442,3.442,0,0,1-.765-2.364v-.182a3.817,3.817,0,0,1,.34-1.646,2.588,2.588,0,0,1,.976-1.119,2.771,2.771,0,0,1,1.5-.4,2.543,2.543,0,0,1,1.772.639,2.283,2.283,0,0,1,.753,1.658H18.75a1.494,1.494,0,0,0-.466-1.011,1.449,1.449,0,0,0-1.034-.4,1.517,1.517,0,0,0-1.28.595,2.793,2.793,0,0,0-.454,1.72v.205a2.737,2.737,0,0,0,.451,1.688A1.524,1.524,0,0,0,17.256-.768ZM24.908,0a2.277,2.277,0,0,1-.152-.668,2.419,2.419,0,0,1-1.8.785,2.238,2.238,0,0,1-1.538-.53,1.716,1.716,0,0,1-.6-1.345A1.792,1.792,0,0,1,21.565-3.3a3.55,3.55,0,0,1,2.118-.548h1.055v-.5a1.217,1.217,0,0,0-.34-.905,1.366,1.366,0,0,0-1-.337,1.581,1.581,0,0,0-.973.293.863.863,0,0,0-.393.709h-1.09a1.5,1.5,0,0,1,.337-.917,2.3,2.3,0,0,1,.914-.7,3.075,3.075,0,0,1,1.269-.258,2.506,2.506,0,0,1,1.717.548A1.976,1.976,0,0,1,25.822-4.4v2.918a3.567,3.567,0,0,0,.223,1.389V0Zm-1.8-.826a1.905,1.905,0,0,0,.967-.264,1.6,1.6,0,0,0,.662-.686v-1.3h-.85Q21.9-3.076,21.9-1.91a.987.987,0,0,0,.34.8A1.306,1.306,0,0,0,23.109-.826Zm6.955.059a1.561,1.561,0,0,0,1.014-.352A1.237,1.237,0,0,0,31.559-2h1.025a1.966,1.966,0,0,1-.375,1.037,2.47,2.47,0,0,1-.923.785,2.663,2.663,0,0,1-1.222.293A2.612,2.612,0,0,1,28-.747a3.442,3.442,0,0,1-.765-2.364v-.182a3.817,3.817,0,0,1,.34-1.646,2.588,2.588,0,0,1,.976-1.119,2.771,2.771,0,0,1,1.5-.4,2.543,2.543,0,0,1,1.772.639,2.283,2.283,0,0,1,.753,1.658H31.559a1.494,1.494,0,0,0-.466-1.011,1.449,1.449,0,0,0-1.034-.4,1.517,1.517,0,0,0-1.28.595,2.793,2.793,0,0,0-.454,1.72v.205a2.737,2.737,0,0,0,.451,1.688A1.524,1.524,0,0,0,30.064-.768ZM34.98,0H33.9V-6.34H34.98ZM33.809-8.021a.647.647,0,0,1,.161-.445.6.6,0,0,1,.478-.182.614.614,0,0,1,.48.182.64.64,0,0,1,.164.445.619.619,0,0,1-.164.439.626.626,0,0,1-.48.176.616.616,0,0,1-.478-.176A.626.626,0,0,1,33.809-8.021Zm2.619,4.793A3.745,3.745,0,0,1,36.794-4.9a2.732,2.732,0,0,1,1.02-1.148,2.775,2.775,0,0,1,1.491-.4,2.674,2.674,0,0,1,2.095.9,3.449,3.449,0,0,1,.8,2.385V-3.1a3.777,3.777,0,0,1-.354,1.661A2.692,2.692,0,0,1,40.831-.293a2.807,2.807,0,0,1-1.515.41,2.667,2.667,0,0,1-2.089-.9,3.432,3.432,0,0,1-.8-2.373Zm1.09.129a2.712,2.712,0,0,0,.489,1.693,1.566,1.566,0,0,0,1.31.639,1.556,1.556,0,0,0,1.313-.647,2.966,2.966,0,0,0,.486-1.813,2.708,2.708,0,0,0-.5-1.69A1.574,1.574,0,0,0,39.3-5.566a1.557,1.557,0,0,0-1.295.639A2.944,2.944,0,0,0,37.518-3.1Zm7.066-3.24.035.8a2.31,2.31,0,0,1,1.9-.914q2.01,0,2.027,2.268V0H47.461V-4.2a1.459,1.459,0,0,0-.313-1.014,1.256,1.256,0,0,0-.958-.328,1.564,1.564,0,0,0-.926.281,1.91,1.91,0,0,0-.621.738V0H43.559V-6.34ZM52.811.117a2.77,2.77,0,0,1-2.1-.847A3.142,3.142,0,0,1,49.9-2.994v-.2a3.8,3.8,0,0,1,.36-1.685,2.811,2.811,0,0,1,1.008-1.16,2.534,2.534,0,0,1,1.4-.419,2.374,2.374,0,0,1,1.922.814,3.526,3.526,0,0,1,.686,2.332v.451H50.988a2.254,2.254,0,0,0,.548,1.515,1.722,1.722,0,0,0,1.333.577A1.888,1.888,0,0,0,53.842-1a2.444,2.444,0,0,0,.7-.621l.662.516A2.662,2.662,0,0,1,52.811.117Zm-.135-5.684a1.446,1.446,0,0,0-1.1.478,2.321,2.321,0,0,0-.551,1.339H54.2v-.082a2.065,2.065,0,0,0-.445-1.28A1.361,1.361,0,0,0,52.676-5.566Zm7.553,3.885a.8.8,0,0,0-.331-.683,3.187,3.187,0,0,0-1.154-.419,5.457,5.457,0,0,1-1.307-.422,1.859,1.859,0,0,1-.715-.586A1.4,1.4,0,0,1,56.49-4.6a1.645,1.645,0,0,1,.659-1.318,2.574,2.574,0,0,1,1.685-.539,2.649,2.649,0,0,1,1.749.557,1.768,1.768,0,0,1,.671,1.424h-1.09a.979.979,0,0,0-.378-.768,1.416,1.416,0,0,0-.952-.322,1.482,1.482,0,0,0-.926.258.812.812,0,0,0-.334.674.658.658,0,0,0,.311.592,3.821,3.821,0,0,0,1.122.381,5.847,5.847,0,0,1,1.315.434,1.919,1.919,0,0,1,.747.606,1.491,1.491,0,0,1,.243.864A1.623,1.623,0,0,1,60.633-.4a2.851,2.851,0,0,1-1.764.513,3.193,3.193,0,0,1-1.348-.27A2.192,2.192,0,0,1,56.6-.905a1.815,1.815,0,0,1-.331-1.046h1.084a1.122,1.122,0,0,0,.437.864,1.693,1.693,0,0,0,1.075.319,1.748,1.748,0,0,0,.987-.249A.765.765,0,0,0,60.229-1.682Z" transform="translate(1037.237 1054.471)" fill="#fff"/>
    <path id="Trazado_195677" data-name="Trazado 195677" d="M891.55-162.5a13.543,13.543,0,0,1-3.981,9.605,13.543,13.543,0,0,1-9.605,3.981H702.271v-27.172H877.964A13.591,13.591,0,0,1,891.55-162.5Z" transform="translate(457.178 1211.971)" fill="url(#linear-gradient-2)"/>
    <path id="Trazado_196747" data-name="Trazado 196747" d="M2.121-.92H6.164V0H.99V-8.531H2.121ZM8.455,0H7.371V-6.34H8.455ZM7.283-8.021a.647.647,0,0,1,.161-.445.6.6,0,0,1,.478-.182.614.614,0,0,1,.48.182.64.64,0,0,1,.164.445.619.619,0,0,1-.164.439.626.626,0,0,1-.48.176.616.616,0,0,1-.478-.176A.626.626,0,0,1,7.283-8.021ZM12.732-.768a1.561,1.561,0,0,0,1.014-.352A1.237,1.237,0,0,0,14.227-2h1.025a1.966,1.966,0,0,1-.375,1.037,2.47,2.47,0,0,1-.923.785,2.663,2.663,0,0,1-1.222.293,2.612,2.612,0,0,1-2.06-.864,3.442,3.442,0,0,1-.765-2.364v-.182a3.817,3.817,0,0,1,.34-1.646,2.588,2.588,0,0,1,.976-1.119,2.771,2.771,0,0,1,1.5-.4,2.543,2.543,0,0,1,1.772.639,2.283,2.283,0,0,1,.753,1.658H14.227a1.494,1.494,0,0,0-.466-1.011,1.449,1.449,0,0,0-1.034-.4,1.517,1.517,0,0,0-1.28.595,2.793,2.793,0,0,0-.454,1.72v.205a2.737,2.737,0,0,0,.451,1.688A1.524,1.524,0,0,0,12.732-.768ZM19.1.117A2.77,2.77,0,0,1,17-.729,3.142,3.142,0,0,1,16.2-2.994v-.2a3.8,3.8,0,0,1,.36-1.685,2.811,2.811,0,0,1,1.008-1.16,2.534,2.534,0,0,1,1.4-.419,2.374,2.374,0,0,1,1.922.814,3.526,3.526,0,0,1,.686,2.332v.451H17.279a2.254,2.254,0,0,0,.548,1.515,1.722,1.722,0,0,0,1.333.577A1.888,1.888,0,0,0,20.133-1a2.444,2.444,0,0,0,.7-.621l.662.516A2.662,2.662,0,0,1,19.1.117Zm-.135-5.684a1.446,1.446,0,0,0-1.1.478,2.321,2.321,0,0,0-.551,1.339H20.49v-.082a2.065,2.065,0,0,0-.445-1.28A1.361,1.361,0,0,0,18.967-5.566Zm4.887-.773.035.8a2.31,2.31,0,0,1,1.9-.914q2.01,0,2.027,2.268V0H26.73V-4.2a1.459,1.459,0,0,0-.313-1.014,1.256,1.256,0,0,0-.958-.328,1.564,1.564,0,0,0-.926.281,1.91,1.91,0,0,0-.621.738V0H22.828V-6.34ZM31.992-.768a1.561,1.561,0,0,0,1.014-.352A1.237,1.237,0,0,0,33.486-2h1.025a1.966,1.966,0,0,1-.375,1.037,2.47,2.47,0,0,1-.923.785,2.663,2.663,0,0,1-1.222.293,2.612,2.612,0,0,1-2.06-.864,3.442,3.442,0,0,1-.765-2.364v-.182a3.817,3.817,0,0,1,.34-1.646,2.588,2.588,0,0,1,.976-1.119,2.771,2.771,0,0,1,1.5-.4,2.543,2.543,0,0,1,1.772.639,2.283,2.283,0,0,1,.753,1.658H33.486a1.494,1.494,0,0,0-.466-1.011,1.449,1.449,0,0,0-1.034-.4,1.517,1.517,0,0,0-1.28.595,2.793,2.793,0,0,0-.454,1.72v.205A2.737,2.737,0,0,0,30.7-1.359,1.524,1.524,0,0,0,31.992-.768ZM36.908,0H35.824V-6.34h1.084ZM35.736-8.021a.647.647,0,0,1,.161-.445.6.6,0,0,1,.478-.182.614.614,0,0,1,.48.182.64.64,0,0,1,.164.445.619.619,0,0,1-.164.439.626.626,0,0,1-.48.176.616.616,0,0,1-.478-.176A.626.626,0,0,1,35.736-8.021ZM42.557,0A2.277,2.277,0,0,1,42.4-.668a2.419,2.419,0,0,1-1.8.785,2.238,2.238,0,0,1-1.538-.53,1.716,1.716,0,0,1-.6-1.345A1.792,1.792,0,0,1,39.214-3.3a3.55,3.55,0,0,1,2.118-.548h1.055v-.5a1.217,1.217,0,0,0-.34-.905,1.366,1.366,0,0,0-1-.337,1.581,1.581,0,0,0-.973.293.863.863,0,0,0-.393.709H38.59a1.5,1.5,0,0,1,.337-.917,2.3,2.3,0,0,1,.914-.7,3.075,3.075,0,0,1,1.269-.258,2.506,2.506,0,0,1,1.717.548A1.976,1.976,0,0,1,43.471-4.4v2.918a3.567,3.567,0,0,0,.223,1.389V0Zm-1.8-.826a1.905,1.905,0,0,0,.967-.264,1.6,1.6,0,0,0,.662-.686v-1.3h-.85q-1.992,0-1.992,1.166a.987.987,0,0,0,.34.8A1.306,1.306,0,0,0,40.758-.826Zm7.119-2.4a3.714,3.714,0,0,1,.691-2.347,2.186,2.186,0,0,1,1.811-.888,2.2,2.2,0,0,1,1.764.762V-9h1.084V0h-1l-.053-.68a2.208,2.208,0,0,1-1.811.8,2.165,2.165,0,0,1-1.8-.9,3.756,3.756,0,0,1-.694-2.355Zm1.084.123a2.812,2.812,0,0,0,.445,1.688,1.44,1.44,0,0,0,1.23.609,1.581,1.581,0,0,0,1.506-.926V-4.641a1.593,1.593,0,0,0-1.494-.9,1.446,1.446,0,0,0-1.242.615A3.1,3.1,0,0,0,48.961-3.1ZM57.539.117a2.77,2.77,0,0,1-2.1-.847,3.142,3.142,0,0,1-.809-2.265v-.2a3.8,3.8,0,0,1,.36-1.685A2.811,2.811,0,0,1,56-6.038a2.534,2.534,0,0,1,1.4-.419,2.374,2.374,0,0,1,1.922.814,3.526,3.526,0,0,1,.686,2.332v.451H55.717a2.254,2.254,0,0,0,.548,1.515A1.722,1.722,0,0,0,57.6-.768,1.888,1.888,0,0,0,58.57-1a2.444,2.444,0,0,0,.7-.621l.662.516A2.662,2.662,0,0,1,57.539.117ZM57.4-5.566a1.446,1.446,0,0,0-1.1.478,2.321,2.321,0,0,0-.551,1.339h3.176v-.082a2.065,2.065,0,0,0-.445-1.28A1.361,1.361,0,0,0,57.4-5.566Zm7.852-.773.029.7a2.341,2.341,0,0,1,1.881-.82,1.813,1.813,0,0,1,1.811,1.02,2.4,2.4,0,0,1,.823-.738A2.431,2.431,0,0,1,71-6.457q2.086,0,2.121,2.209V0H72.035V-4.184A1.456,1.456,0,0,0,71.725-5.2a1.368,1.368,0,0,0-1.043-.337,1.437,1.437,0,0,0-1,.36,1.462,1.462,0,0,0-.463.97V0h-1.09V-4.154a1.209,1.209,0,0,0-1.354-1.383,1.45,1.45,0,0,0-1.459.908V0H64.23V-6.34ZM78.668,0a2.277,2.277,0,0,1-.152-.668,2.419,2.419,0,0,1-1.8.785,2.238,2.238,0,0,1-1.538-.53,1.716,1.716,0,0,1-.6-1.345A1.792,1.792,0,0,1,75.325-3.3a3.55,3.55,0,0,1,2.118-.548H78.5v-.5a1.217,1.217,0,0,0-.34-.905,1.366,1.366,0,0,0-1-.337,1.581,1.581,0,0,0-.973.293.863.863,0,0,0-.393.709H74.7a1.5,1.5,0,0,1,.337-.917,2.3,2.3,0,0,1,.914-.7,3.075,3.075,0,0,1,1.269-.258,2.506,2.506,0,0,1,1.717.548A1.976,1.976,0,0,1,79.582-4.4v2.918A3.567,3.567,0,0,0,79.8-.094V0Zm-1.8-.826a1.905,1.905,0,0,0,.967-.264,1.6,1.6,0,0,0,.662-.686v-1.3h-.85q-1.992,0-1.992,1.166a.987.987,0,0,0,.34.8A1.306,1.306,0,0,0,76.869-.826Zm5.883-7.049V-6.34h1.184V-5.5H82.752v3.937a.88.88,0,0,0,.158.572.666.666,0,0,0,.539.191,2.624,2.624,0,0,0,.516-.07V0a3.161,3.161,0,0,1-.832.116,1.35,1.35,0,0,1-1.1-.439,1.888,1.888,0,0,1-.369-1.248V-5.5H80.514V-6.34h1.154V-7.875ZM87.832.117a2.77,2.77,0,0,1-2.1-.847,3.142,3.142,0,0,1-.809-2.265v-.2a3.8,3.8,0,0,1,.36-1.685,2.811,2.811,0,0,1,1.008-1.16,2.534,2.534,0,0,1,1.4-.419,2.374,2.374,0,0,1,1.922.814A3.526,3.526,0,0,1,90.3-3.311v.451H86.01a2.254,2.254,0,0,0,.548,1.515,1.722,1.722,0,0,0,1.333.577A1.888,1.888,0,0,0,88.863-1a2.444,2.444,0,0,0,.7-.621l.662.516A2.662,2.662,0,0,1,87.832.117ZM87.7-5.566a1.446,1.446,0,0,0-1.1.478,2.321,2.321,0,0,0-.551,1.339h3.176v-.082a2.065,2.065,0,0,0-.445-1.28A1.361,1.361,0,0,0,87.7-5.566Zm6.926.2a3.248,3.248,0,0,0-.533-.041,1.428,1.428,0,0,0-1.447.908V0H91.559V-6.34h1.055l.018.732a1.688,1.688,0,0,1,1.512-.85,1.107,1.107,0,0,1,.48.082Zm2.021-.973.035.8a2.31,2.31,0,0,1,1.9-.914q2.01,0,2.027,2.268V0H99.521V-4.2a1.459,1.459,0,0,0-.313-1.014,1.256,1.256,0,0,0-.958-.328,1.564,1.564,0,0,0-.926.281,1.91,1.91,0,0,0-.621.738V0H95.619V-6.34ZM103.418,0h-1.084V-6.34h1.084Zm-1.172-8.021a.647.647,0,0,1,.161-.445.6.6,0,0,1,.478-.182.614.614,0,0,1,.48.182.64.64,0,0,1,.164.445.619.619,0,0,1-.164.439.626.626,0,0,1-.48.176.616.616,0,0,1-.478-.176A.626.626,0,0,1,102.246-8.021Zm2.643,4.8a3.714,3.714,0,0,1,.691-2.347,2.186,2.186,0,0,1,1.811-.888,2.2,2.2,0,0,1,1.764.762V-9h1.084V0h-1l-.053-.68a2.208,2.208,0,0,1-1.811.8,2.165,2.165,0,0,1-1.8-.9,3.756,3.756,0,0,1-.694-2.355Zm1.084.123a2.812,2.812,0,0,0,.445,1.688,1.44,1.44,0,0,0,1.23.609,1.581,1.581,0,0,0,1.506-.926V-4.641a1.593,1.593,0,0,0-1.494-.9,1.446,1.446,0,0,0-1.242.615A3.1,3.1,0,0,0,105.973-3.1ZM115.834,0a2.277,2.277,0,0,1-.152-.668,2.419,2.419,0,0,1-1.8.785,2.238,2.238,0,0,1-1.538-.53,1.716,1.716,0,0,1-.6-1.345,1.792,1.792,0,0,1,.753-1.538,3.55,3.55,0,0,1,2.118-.548h1.055v-.5a1.217,1.217,0,0,0-.34-.905,1.366,1.366,0,0,0-1-.337,1.581,1.581,0,0,0-.973.293.863.863,0,0,0-.393.709h-1.09A1.5,1.5,0,0,1,112.2-5.5a2.3,2.3,0,0,1,.914-.7,3.075,3.075,0,0,1,1.269-.258,2.506,2.506,0,0,1,1.717.548,1.976,1.976,0,0,1,.645,1.509v2.918a3.567,3.567,0,0,0,.223,1.389V0Zm-1.8-.826A1.905,1.905,0,0,0,115-1.09a1.6,1.6,0,0,0,.662-.686v-1.3h-.85q-1.992,0-1.992,1.166a.987.987,0,0,0,.34.8A1.306,1.306,0,0,0,114.035-.826Zm4.148-2.4a3.714,3.714,0,0,1,.691-2.347,2.186,2.186,0,0,1,1.811-.888,2.2,2.2,0,0,1,1.764.762V-9h1.084V0h-1l-.053-.68a2.208,2.208,0,0,1-1.811.8,2.165,2.165,0,0,1-1.8-.9,3.756,3.756,0,0,1-.694-2.355Zm1.084.123a2.812,2.812,0,0,0,.445,1.688,1.44,1.44,0,0,0,1.23.609,1.581,1.581,0,0,0,1.506-.926V-4.641a1.593,1.593,0,0,0-1.494-.9,1.446,1.446,0,0,0-1.242.615A3.1,3.1,0,0,0,119.268-3.1Z" transform="translate(1191.237 1054.471)" fill="#12263f"/>
  </g>
</svg>
