<svg xmlns="http://www.w3.org/2000/svg" width="61" height="61" viewBox="0 0 61 61">
  <g id="Grupo_142439" data-name="Grupo 142439" transform="translate(-0.266 0.499)">
    <circle id="Elipse_4868" data-name="Elipse 4868" cx="30.5" cy="30.5" r="30.5" transform="translate(0.266 -0.499)" fill="#2194e5"/>
    <g id="KiCqgd.tif" transform="translate(-1229.951 6382.664)">
      <g id="Grupo_156327" data-name="Grupo 156327" transform="translate(1241.718 -6376.62)">
        <path id="Trazado_196667" data-name="Trazado 196667" d="M1528.823-6077.966l-.477-1.941-1.743,1.019c-1.1-1.108-2.2-2.2-3.283-3.309a.388.388,0,0,1-.014-.355c.267-.489.56-.963.879-1.5l-1.916-.51v-4.866l1.914-.51-1.036-1.76c.168-.148.35-.292.513-.455.914-.909,1.828-1.818,2.731-2.736a.326.326,0,0,1,.492-.063c.456.294.932.558,1.449.862l.507-1.912h4.873l.5,1.914c.5-.292.958-.546,1.4-.83a.387.387,0,0,1,.587.062c1.045,1.071,2.111,2.121,3.183,3.191l-1.021,1.736,1.945.481v4.923l-1.944.452.962,1.652-3.469,3.481-1.658-.974-.453,1.952Zm-4-4.62,2.05,2.041c.349-.206.724-.437,1.111-.648a.5.5,0,0,1,.348-.06c1.088.361,1.087.365,1.379,1.49a.582.582,0,0,1,.034.112c.015.342.208.41.52.4a17.5,17.5,0,0,1,1.873,0c.444.03.687-.087.717-.552a1.293,1.293,0,0,1,1.119-1.349c.062-.012.118-.074.177-.076a.9.9,0,0,1,.42.034c.391.2.764.439,1.113.644l2.046-2.046c-.205-.348-.439-.722-.647-1.111a.521.521,0,0,1-.047-.381c.419-1.088.424-1.087,1.549-1.369a.835.835,0,0,1,.115-.021c.255-.031.33-.171.323-.426-.017-.7-.025-1.407,0-2.108.014-.341-.09-.51-.433-.533a1.491,1.491,0,0,1-1.528-1.288c0-.012-.017-.023-.016-.034a1.093,1.093,0,0,1,.031-.421c.208-.4.45-.781.652-1.125l-2.035-2.047c-.357.21-.734.44-1.12.651a.505.505,0,0,1-.35.063,7.578,7.578,0,0,1-.971-.4.505.505,0,0,1-.207-.3c-.126-.432-.231-.869-.346-1.311-.9,0-1.76-.009-2.618.012a.426.426,0,0,0-.3.249c-.115.343-.172.706-.28,1.053a.539.539,0,0,1-.246.306c-1.04.478-1.043.473-2.026-.111a1.5,1.5,0,0,1-.167-.1c-.177-.144-.306-.1-.462.059-.5.517-.995,1.031-1.521,1.516-.248.23-.3.422-.077.679a1.465,1.465,0,0,1,.171,1.985.93.93,0,0,1-.4.345c-.4.138-.822.225-1.234.332v2.848a1.8,1.8,0,0,0,.38.109,1.542,1.542,0,0,1,1.576,1.342.689.689,0,0,1-.029.421C1525.268-6083.318,1525.031-6082.944,1524.821-6082.586Z" transform="translate(-1500.309 6117.971)" fill="#fff"/>
        <path id="Trazado_196668" data-name="Trazado 196668" d="M1241.718-6062.9v-16.761h12.873c.009.1.023.171.023.246q0,8.258-.006,16.515Zm1.315-1.315c.114.01.179.021.243.021,3.242,0,6.484,0,9.726.007.336,0,.338-.164.338-.41q-.006-6.68,0-13.361c0-.126-.01-.254-.017-.4h-10.286Z" transform="translate(-1241.718 6102.902)" fill="#fff"/>
        <path id="Trazado_196669" data-name="Trazado 196669" d="M1413.813-6356H1398.36c-.008-.119-.022-.23-.022-.343,0-.99-.005-1.979,0-2.969a3.225,3.225,0,0,1,2.158-3.086c.9-.339,1.8-.674,2.7-1.012a.475.475,0,0,0,.2-.763c-.321-.452-.612-.924-.931-1.378a.613.613,0,0,0-.3-.205,2.526,2.526,0,0,1-1.883-2.525,26.135,26.135,0,0,1,.109-3.584,5.728,5.728,0,0,1,5.7-4.76,5.705,5.705,0,0,1,5.67,4.787,19.937,19.937,0,0,1,.063,4.011,2.374,2.374,0,0,1-1.784,2.065.957.957,0,0,0-.406.346c-.275.375-.5.791-.79,1.151-.33.407-.281.706.213.892.851.321,1.7.634,2.554.96a3.223,3.223,0,0,1,2.2,3.21C1413.815-6358.146,1413.813-6357.093,1413.813-6356ZM1410.6-6370.6a4.4,4.4,0,0,0-2.078-3.989,4.288,4.288,0,0,0-4.888,0,4.407,4.407,0,0,0-2.077,4.02,13.96,13.96,0,0,1,1.507-.245,3.794,3.794,0,0,0,2.522-1.072,6.471,6.471,0,0,0,.491-.628,6.192,6.192,0,0,0,.436.575,3.708,3.708,0,0,0,2.152,1.089C1409.3-6370.76,1409.933-6370.687,1410.6-6370.6Zm-.269,9.08-1.3,3.874c-.909-.453-1.786-.879-2.65-1.33a.581.581,0,0,0-.609,0c-.865.447-1.741.875-2.649,1.327l-1.3-3.868c-.411.16-.782.282-1.133.448a1.685,1.685,0,0,0-.921,1.015,10.135,10.135,0,0,0-.142,2.77h12.844c0-.853.052-1.686-.018-2.508a1.579,1.579,0,0,0-.924-1.237C1411.162-6361.216,1410.765-6361.345,1410.328-6361.522Zm-6.831-8.039c0,.908-.01,1.778,0,2.647a2.58,2.58,0,0,0,2.567,2.554,2.579,2.579,0,0,0,2.584-2.538c.015-.806,0-1.612,0-2.418a1.744,1.744,0,0,0-.036-.253,5.334,5.334,0,0,1-2.337-.87.405.405,0,0,0-.361-.03A5.4,5.4,0,0,1,1403.5-6369.562Zm.366,7.286-.824.312.838,2.5,1.285-.647Zm4.426,0-1.3,2.168,1.291.644.828-2.5Zm-.975-.888h-2.478l1.241,2.063Zm-5.112-4.009v-2.109A1.205,1.205,0,0,0,1402.2-6367.174Zm7.78-2.092v2.078A1.2,1.2,0,0,0,1409.981-6369.266Z" transform="translate(-1386.076 6376.62)" fill="#fff"/>
        <path id="Trazado_196670" data-name="Trazado 196670" d="M1320.588-6295.1c-.96,0-1.921-.012-2.881.006a.584.584,0,0,0-.591.606c-.01.129,0,.26,0,.39q0,5.368,0,10.737v.491h-1.3v-.427q0-5.466,0-10.932a1.981,1.981,0,0,1,2.181-2.178c.866,0,1.732,0,2.65,0l-1.457-1.4.96-.875,2.915,2.936-2.954,2.958-.885-.878,1.43-1.327Z" transform="translate(-1310.011 6304.792)" fill="#fff"/>
        <path id="Trazado_196671" data-name="Trazado 196671" d="M1588.194-6268.3v-1.3h.437c.885,0,1.769-.01,2.654,0a1.948,1.948,0,0,1,2.048,2.069q.006,3.728,0,7.456v.482l1.354-1.458.884.977-2.9,2.875-2.94-2.947.884-.868,1.387,1.484c.016-.242.031-.362.031-.483q0-3.688,0-7.378c0-.737-.177-.909-.928-.909Z" transform="translate(-1561.074 6277.986)" fill="#fff"/>
        <path id="Trazado_196672" data-name="Trazado 196672" d="M1419.825-6016.373v1.314h-4.849l1.466,1.389-.906.913-2.957-2.961,2.949-2.944.859.849-1.407,1.318.078.122Z" transform="translate(-1399.206 6046.68)" fill="#fff"/>
        <path id="Trazado_196673" data-name="Trazado 196673" d="M1581.656-6041.769a5.151,5.151,0,0,1-5.185,5.138,5.168,5.168,0,0,1-5.135-5.2,5.189,5.189,0,0,1,5.175-5.127A5.168,5.168,0,0,1,1581.656-6041.769Zm-9.019-.015a3.877,3.877,0,0,0,3.878,3.869,3.893,3.893,0,0,0,3.857-3.858,3.873,3.873,0,0,0-3.866-3.879A3.856,3.856,0,0,0,1572.637-6041.783Z" transform="translate(-1545.535 6072.758)" fill="#fff"/>
        <path id="Trazado_196674" data-name="Trazado 196674" d="M1282.79-6046.568v1.248H1275.1v-1.248Z" transform="translate(-1272.49 6072.402)" fill="#fff"/>
        <path id="Trazado_196675" data-name="Trazado 196675" d="M1274.858-5979.436v-1.243h7.7v1.243Z" transform="translate(-1272.264 6011.67)" fill="#fff"/>
        <path id="Trazado_196676" data-name="Trazado 196676" d="M1274.9-5946.479v-1.247h7.7v1.247Z" transform="translate(-1272.305 5981.297)" fill="#fff"/>
        <path id="Trazado_196677" data-name="Trazado 196677" d="M1307.831-6012.384v-1.253h5.12v1.253Z" transform="translate(-1302.656 6042.049)" fill="#fff"/>
        <path id="Trazado_196678" data-name="Trazado 196678" d="M1280.083-5914.579v1.235h-5.121v-1.235Z" transform="translate(-1272.36 5950.745)" fill="#fff"/>
        <path id="Trazado_196679" data-name="Trazado 196679" d="M1276.221-6013.686v1.248h-1.249v-1.248Z" transform="translate(-1272.369 6042.094)" fill="#fff"/>
        <path id="Trazado_196680" data-name="Trazado 196680" d="M1357.534-5914.725h1.227v1.251h-1.227Z" transform="translate(-1348.469 5950.879)" fill="#fff"/>
        <path id="Trazado_196681" data-name="Trazado 196681" d="M1609.481-6011.379a2.557,2.557,0,0,1-2.562,2.592,2.582,2.582,0,0,1-2.592-2.573,2.6,2.6,0,0,1,2.555-2.583A2.578,2.578,0,0,1,1609.481-6011.379Zm-2.582-1.266a1.276,1.276,0,0,0-1.274,1.3,1.29,1.29,0,0,0,1.3,1.281,1.307,1.307,0,0,0,1.281-1.3A1.29,1.29,0,0,0,1606.9-6012.645Z" transform="translate(-1575.944 6042.331)" fill="#fff"/>
      </g>
    </g>
  </g>
</svg>
